<ttFont>
    <TTGlyph name="A" xMin="2" yMin="0" xMax="1509" yMax="1434">
      <contour>
        <pt x="391" y="324" on="1"/>
        <pt x="254" y="0" on="1"/>
        <pt x="2" y="0" on="1"/>
        <pt x="635" y="1434" on="1"/>
        <pt x="883" y="1434" on="1"/>
        <pt x="1509" y="0" on="1"/>
        <pt x="1251" y="0" on="1"/>
        <pt x="1114" y="324" on="1"/>
      </contour>
      <contour>
        <pt x="752" y="1176" on="1"/>
        <pt x="481" y="539" on="1"/>
        <pt x="1022" y="539" on="1"/>
      </contour>
    </TTGlyph>
    <TTGlyph name="AE" xMin="2" yMin="0" xMax="2046" yMax="1434">
      <contour>
        <pt x="2046" y="0" on="1"/>
        <pt x="999" y="0" on="1"/>
        <pt x="999" y="354" on="1"/>
        <pt x="455" y="354" on="1"/>
        <pt x="254" y="0" on="1"/>
        <pt x="2" y="0" on="1"/>
        <pt x="834" y="1434" on="1"/>
        <pt x="2021" y="1434" on="1"/>
        <pt x="2021" y="1217" on="1"/>
        <pt x="1239" y="1217" on="1"/>
        <pt x="1239" y="827" on="1"/>
        <pt x="1942" y="827" on="1"/>
        <pt x="1942" y="612" on="1"/>
        <pt x="1239" y="612" on="1"/>
        <pt x="1239" y="217" on="1"/>
        <pt x="2046" y="217" on="1"/>
      </contour>
      <contour>
        <pt x="999" y="1233" on="1"/>
        <pt x="950" y="1233" on="1"/>
        <pt x="561" y="543" on="1"/>
        <pt x="999" y="543" on="1"/>
      </contour>
    </TTGlyph>
    <TTGlyph name="Aacute" xMin="2" yMin="0" xMax="1509" yMax="1892">
      <component glyphName="A" x="0" y="0" flags="0x1000"/>
      <component glyphName="acute" x="492" y="344" flags="0x1000"/>
    </TTGlyph>
    <TTGlyph name="Abreve" xMin="2" yMin="0" xMax="1509" yMax="1876">
      <component glyphName="A" x="0" y="0" flags="0x1000"/>
      <component glyphName="breve" x="397" y="342" flags="0x1000"/>
    </TTGlyph>
    <TTGlyph name="Acircumflex" xMin="2" yMin="0" xMax="1509" yMax="1884">
      <component glyphName="A" x="0" y="0" flags="0x1000"/>
      <component glyphName="circumflex" x="397" y="338" flags="0x1000"/>
    </TTGlyph>
    <TTGlyph name="Adieresis" xMin="2" yMin="0" xMax="1509" yMax="1886">
      <contour>
        <pt x="522" y="1626" on="0"/>
        <pt x="451" y="1700" on="0"/>
        <pt x="451" y="1755" on="1"/>
        <pt x="451" y="1812" on="0"/>
        <pt x="522" y="1886" on="0"/>
        <pt x="575" y="1886" on="1"/>
        <pt x="628" y="1886" on="0"/>
        <pt x="698" y="1812" on="0"/>
        <pt x="698" y="1755" on="1"/>
        <pt x="698" y="1700" on="0"/>
        <pt x="629" y="1626" on="0"/>
        <pt x="575" y="1626" on="1"/>
      </contour>
      <contour>
        <pt x="885" y="1626" on="0"/>
        <pt x="813" y="1700" on="0"/>
        <pt x="813" y="1755" on="1"/>
        <pt x="813" y="1812" on="0"/>
        <pt x="885" y="1886" on="0"/>
        <pt x="938" y="1886" on="1"/>
        <pt x="991" y="1886" on="0"/>
        <pt x="1061" y="1812" on="0"/>
        <pt x="1061" y="1755" on="1"/>
        <pt x="1061" y="1700" on="0"/>
        <pt x="991" y="1626" on="0"/>
        <pt x="938" y="1626" on="1"/>
      </contour>
      <contour>
        <pt x="391" y="324" on="1"/>
        <pt x="254" y="0" on="1"/>
        <pt x="2" y="0" on="1"/>
        <pt x="635" y="1434" on="1"/>
        <pt x="883" y="1434" on="1"/>
        <pt x="1509" y="0" on="1"/>
        <pt x="1251" y="0" on="1"/>
        <pt x="1114" y="324" on="1"/>
      </contour>
      <contour>
        <pt x="752" y="1176" on="1"/>
        <pt x="481" y="539" on="1"/>
        <pt x="1022" y="539" on="1"/>
      </contour>
    </TTGlyph>
    <TTGlyph name="Agrave" xMin="2" yMin="0" xMax="1509" yMax="1894">
      <component glyphName="A" x="0" y="0" flags="0x1000"/>
      <component glyphName="grave" x="309" y="344" flags="0x1000"/>
    </TTGlyph>
    <TTGlyph name="Amacron" xMin="2" yMin="0" xMax="1509" yMax="1827">
      <component glyphName="A" x="0" y="0" flags="0x1000"/>
      <component glyphName="macron" x="397" y="344" flags="0x1000"/>
    </TTGlyph>
    <TTGlyph name="Aogonek" xMin="2" yMin="-412" xMax="1573" yMax="1434">
      <contour>
        <pt x="1444" y="0" on="1"/>
        <pt x="1344" y="-141" on="0"/>
        <pt x="1343" y="-215" on="1"/>
        <pt x="1343" y="-246" on="0"/>
        <pt x="1376" y="-281" on="0"/>
        <pt x="1405" y="-281" on="1"/>
        <pt x="1454" y="-281" on="0"/>
        <pt x="1505" y="-215" on="1"/>
        <pt x="1573" y="-295" on="1"/>
        <pt x="1540" y="-350" on="0"/>
        <pt x="1436" y="-412" on="0"/>
        <pt x="1378" y="-412" on="1"/>
        <pt x="1312" y="-412" on="0"/>
        <pt x="1217" y="-330" on="0"/>
        <pt x="1217" y="-252" on="1"/>
        <pt x="1217" y="-197" on="0"/>
        <pt x="1270" y="-76" on="0"/>
        <pt x="1323" y="0" on="1"/>
        <pt x="1253" y="0" on="1"/>
        <pt x="1114" y="324" on="1"/>
        <pt x="393" y="324" on="1"/>
        <pt x="254" y="0" on="1"/>
        <pt x="2" y="0" on="1"/>
        <pt x="635" y="1434" on="1"/>
        <pt x="885" y="1434" on="1"/>
        <pt x="1511" y="0" on="1"/>
      </contour>
      <contour>
        <pt x="1028" y="537" on="1"/>
        <pt x="754" y="1176" on="1"/>
        <pt x="479" y="537" on="1"/>
      </contour>
    </TTGlyph>
    <TTGlyph name="Aring" xMin="2" yMin="0" xMax="1509" yMax="1835">
      <contour>
        <pt x="391" y="324" on="1"/>
        <pt x="254" y="0" on="1"/>
        <pt x="2" y="0" on="1"/>
        <pt x="614" y="1384" on="1"/>
        <pt x="565" y="1419" on="0"/>
        <pt x="510" y="1524" on="0"/>
        <pt x="510" y="1585" on="1"/>
        <pt x="510" y="1687" on="0"/>
        <pt x="657" y="1835" on="0"/>
        <pt x="760" y="1835" on="1"/>
        <pt x="864" y="1835" on="0"/>
        <pt x="1012" y="1688" on="0"/>
        <pt x="1012" y="1585" on="1"/>
        <pt x="1012" y="1526" on="0"/>
        <pt x="954" y="1417" on="0"/>
        <pt x="905" y="1382" on="1"/>
        <pt x="1509" y="0" on="1"/>
        <pt x="1251" y="0" on="1"/>
        <pt x="1114" y="324" on="1"/>
      </contour>
      <contour>
        <pt x="702" y="1720" on="0"/>
        <pt x="618" y="1640" on="0"/>
        <pt x="618" y="1585" on="1"/>
        <pt x="618" y="1530" on="0"/>
        <pt x="700" y="1452" on="0"/>
        <pt x="760" y="1452" on="1"/>
        <pt x="819" y="1452" on="0"/>
        <pt x="903" y="1530" on="0"/>
        <pt x="903" y="1585" on="1"/>
        <pt x="903" y="1640" on="0"/>
        <pt x="819" y="1720" on="0"/>
        <pt x="760" y="1720" on="1"/>
      </contour>
      <contour>
        <pt x="752" y="1176" on="1"/>
        <pt x="481" y="539" on="1"/>
        <pt x="1022" y="539" on="1"/>
      </contour>
    </TTGlyph>
    <TTGlyph name="Atilde" xMin="2" yMin="0" xMax="1509" yMax="1896">
      <component glyphName="A" x="0" y="0" flags="0x1000"/>
      <component glyphName="tilde" x="397" y="344" flags="0x1000"/>
    </TTGlyph>
    <TTGlyph name="B" xMin="188" yMin="0" xMax="1348" yMax="1434">
      <contour>
        <pt x="1034" y="1434" on="0"/>
        <pt x="1292" y="1243" on="0"/>
        <pt x="1292" y="1075" on="1"/>
        <pt x="1292" y="954" on="0"/>
        <pt x="1157" y="784" on="0"/>
        <pt x="1040" y="756" on="1"/>
        <pt x="1183" y="731" on="0"/>
        <pt x="1348" y="539" on="0"/>
        <pt x="1348" y="393" on="1"/>
        <pt x="1348" y="209" on="0"/>
        <pt x="1069" y="0" on="0"/>
        <pt x="825" y="0" on="1"/>
        <pt x="188" y="0" on="1"/>
        <pt x="188" y="1434" on="1"/>
        <pt x="811" y="1434" on="1"/>
      </contour>
      <contour>
        <pt x="430" y="840" on="1"/>
        <pt x="799" y="840" on="1"/>
        <pt x="914" y="840" on="0"/>
        <pt x="1044" y="942" on="0"/>
        <pt x="1044" y="1032" on="1"/>
        <pt x="1044" y="1122" on="0"/>
        <pt x="915" y="1219" on="0"/>
        <pt x="799" y="1219" on="1"/>
        <pt x="430" y="1219" on="1"/>
      </contour>
      <contour>
        <pt x="430" y="215" on="1"/>
        <pt x="799" y="215" on="1"/>
        <pt x="942" y="215" on="0"/>
        <pt x="1100" y="324" on="0"/>
        <pt x="1100" y="424" on="1"/>
        <pt x="1100" y="518" on="0"/>
        <pt x="940" y="627" on="0"/>
        <pt x="799" y="627" on="1"/>
        <pt x="430" y="627" on="1"/>
      </contour>
    </TTGlyph>
    <TTGlyph name="C" xMin="70" yMin="-10" xMax="1370" yMax="1440">
      <contour>
        <pt x="975" y="1440" on="0"/>
        <pt x="1264" y="1323" on="0"/>
        <pt x="1368" y="1219" on="1"/>
        <pt x="1227" y="1042" on="1"/>
        <pt x="1149" y="1126" on="0"/>
        <pt x="936" y="1225" on="0"/>
        <pt x="827" y="1225" on="1"/>
        <pt x="686" y="1225" on="0"/>
        <pt x="451" y="1092" on="0"/>
        <pt x="315" y="860" on="0"/>
        <pt x="315" y="721" on="1"/>
        <pt x="315" y="582" on="0"/>
        <pt x="451" y="350" on="0"/>
        <pt x="686" y="215" on="0"/>
        <pt x="827" y="215" on="1"/>
        <pt x="933" y="215" on="0"/>
        <pt x="1145" y="305" on="0"/>
        <pt x="1227" y="385" on="1"/>
        <pt x="1370" y="225" on="1"/>
        <pt x="1259" y="116" on="0"/>
        <pt x="965" y="-10" on="0"/>
        <pt x="815" y="-10" on="1"/>
        <pt x="608" y="-10" on="0"/>
        <pt x="266" y="182" on="0"/>
        <pt x="70" y="516" on="0"/>
        <pt x="70" y="719" on="1"/>
        <pt x="70" y="920" on="0"/>
        <pt x="268" y="1249" on="0"/>
        <pt x="614" y="1440" on="0"/>
        <pt x="823" y="1440" on="1"/>
      </contour>
    </TTGlyph>
    <TTGlyph name="Cacute" xMin="70" yMin="-10" xMax="1370" yMax="1892">
      <component glyphName="C" x="0" y="0" flags="0x1000"/>
      <component glyphName="acute" x="498" y="344" flags="0x1000"/>
    </TTGlyph>
    <TTGlyph name="Ccaron" xMin="70" yMin="-10" xMax="1370" yMax="1884">
      <component glyphName="C" x="0" y="0" flags="0x1000"/>
      <component glyphName="caron" x="397" y="338" flags="0x1000"/>
    </TTGlyph>
    <TTGlyph name="Ccedilla" xMin="70" yMin="-459" xMax="1370" yMax="1440">
      <contour>
        <pt x="905" y="-115" on="0"/>
        <pt x="983" y="-199" on="0"/>
        <pt x="983" y="-264" on="1"/>
        <pt x="983" y="-352" on="0"/>
        <pt x="858" y="-459" on="0"/>
        <pt x="766" y="-459" on="1"/>
        <pt x="717" y="-459" on="0"/>
        <pt x="623" y="-428" on="0"/>
        <pt x="586" y="-401" on="1"/>
        <pt x="631" y="-291" on="1"/>
        <pt x="684" y="-332" on="0"/>
        <pt x="750" y="-332" on="1"/>
        <pt x="793" y="-332" on="0"/>
        <pt x="844" y="-281" on="0"/>
        <pt x="844" y="-248" on="1"/>
        <pt x="844" y="-215" on="0"/>
        <pt x="793" y="-170" on="0"/>
        <pt x="745" y="-170" on="1"/>
        <pt x="710" y="-170" on="0"/>
        <pt x="674" y="-180" on="1"/>
        <pt x="748" y="-8" on="1"/>
        <pt x="558" y="8" on="0"/>
        <pt x="246" y="207" on="0"/>
        <pt x="70" y="526" on="0"/>
        <pt x="70" y="719" on="1"/>
        <pt x="70" y="920" on="0"/>
        <pt x="268" y="1249" on="0"/>
        <pt x="614" y="1440" on="0"/>
        <pt x="823" y="1440" on="1"/>
        <pt x="975" y="1440" on="0"/>
        <pt x="1264" y="1323" on="0"/>
        <pt x="1368" y="1219" on="1"/>
        <pt x="1227" y="1042" on="1"/>
        <pt x="1149" y="1126" on="0"/>
        <pt x="936" y="1225" on="0"/>
        <pt x="827" y="1225" on="1"/>
        <pt x="686" y="1225" on="0"/>
        <pt x="451" y="1092" on="0"/>
        <pt x="315" y="860" on="0"/>
        <pt x="315" y="721" on="1"/>
        <pt x="315" y="582" on="0"/>
        <pt x="451" y="350" on="0"/>
        <pt x="686" y="215" on="0"/>
        <pt x="827" y="215" on="1"/>
        <pt x="933" y="215" on="0"/>
        <pt x="1145" y="305" on="0"/>
        <pt x="1227" y="385" on="1"/>
        <pt x="1370" y="225" on="1"/>
        <pt x="1272" y="129" on="0"/>
        <pt x="1020" y="8" on="0"/>
        <pt x="885" y="-6" on="1"/>
        <pt x="840" y="-102" on="1"/>
      </contour>
    </TTGlyph>
    <TTGlyph name="D" xMin="188" yMin="0" xMax="1518" yMax="1434">
      <contour>
        <pt x="989" y="1434" on="0"/>
        <pt x="1327" y="1249" on="0"/>
        <pt x="1518" y="922" on="0"/>
        <pt x="1518" y="717" on="1"/>
        <pt x="1518" y="512" on="0"/>
        <pt x="1325" y="186" on="0"/>
        <pt x="985" y="0" on="0"/>
        <pt x="770" y="0" on="1"/>
        <pt x="188" y="0" on="1"/>
        <pt x="188" y="1434" on="1"/>
        <pt x="776" y="1434" on="1"/>
      </contour>
      <contour>
        <pt x="430" y="217" on="1"/>
        <pt x="782" y="217" on="1"/>
        <pt x="919" y="217" on="0"/>
        <pt x="1145" y="344" on="0"/>
        <pt x="1274" y="571" on="0"/>
        <pt x="1274" y="715" on="1"/>
        <pt x="1274" y="858" on="0"/>
        <pt x="1141" y="1087" on="0"/>
        <pt x="911" y="1217" on="0"/>
        <pt x="772" y="1217" on="1"/>
        <pt x="430" y="1217" on="1"/>
      </contour>
    </TTGlyph>
    <TTGlyph name="Dcaron" xMin="188" yMin="0" xMax="1518" yMax="1884">
      <component glyphName="D" x="0" y="0" flags="0x1000"/>
      <component glyphName="caron" x="383" y="338" flags="0x1000"/>
    </TTGlyph>
    <TTGlyph name="Dcroat" xMin="188" yMin="0" xMax="1518" yMax="1827">
      <component glyphName="D" x="0" y="0" flags="0x1000"/>
      <component glyphName="macron" x="389" y="344" flags="0x1000"/>
    </TTGlyph>
    <TTGlyph name="Delta" xMin="2" yMin="0" xMax="1509" yMax="1434">
      <contour>
        <pt x="2" y="0" on="1"/>
        <pt x="635" y="1434" on="1"/>
        <pt x="883" y="1434" on="1"/>
        <pt x="1509" y="0" on="1"/>
      </contour>
      <contour>
        <pt x="752" y="1176" on="1"/>
        <pt x="334" y="190" on="1"/>
        <pt x="1169" y="190" on="1"/>
      </contour>
    </TTGlyph>
    <TTGlyph name="E" xMin="188" yMin="0" xMax="1237" yMax="1434">
      <contour>
        <pt x="430" y="1217" on="1"/>
        <pt x="430" y="829" on="1"/>
        <pt x="1130" y="829" on="1"/>
        <pt x="1130" y="612" on="1"/>
        <pt x="430" y="612" on="1"/>
        <pt x="430" y="217" on="1"/>
        <pt x="1237" y="217" on="1"/>
        <pt x="1237" y="0" on="1"/>
        <pt x="188" y="0" on="1"/>
        <pt x="188" y="1434" on="1"/>
        <pt x="1212" y="1434" on="1"/>
        <pt x="1212" y="1217" on="1"/>
      </contour>
    </TTGlyph>
    <TTGlyph name="Eacute" xMin="188" yMin="0" xMax="1237" yMax="1892">
      <component glyphName="E" x="0" y="0" flags="0x1000"/>
      <component glyphName="acute" x="440" y="344" flags="0x1000"/>
    </TTGlyph>
    <TTGlyph name="Ecaron" xMin="188" yMin="0" xMax="1237" yMax="1884">
      <component glyphName="E" x="0" y="0" flags="0x1000"/>
      <component glyphName="caron" x="340" y="338" flags="0x1000"/>
    </TTGlyph>
    <TTGlyph name="Ecircumflex" xMin="188" yMin="0" xMax="1237" yMax="1884">
      <component glyphName="E" x="0" y="0" flags="0x1000"/>
      <component glyphName="circumflex" x="346" y="338" flags="0x1000"/>
    </TTGlyph>
    <TTGlyph name="Edieresis" xMin="188" yMin="0" xMax="1237" yMax="1886">
      <contour>
        <pt x="578" y="1886" on="0"/>
        <pt x="647" y="1812" on="0"/>
        <pt x="647" y="1755" on="1"/>
        <pt x="647" y="1700" on="0"/>
        <pt x="578" y="1626" on="0"/>
        <pt x="524" y="1626" on="1"/>
        <pt x="471" y="1626" on="0"/>
        <pt x="399" y="1700" on="0"/>
        <pt x="399" y="1755" on="1"/>
        <pt x="399" y="1812" on="0"/>
        <pt x="471" y="1886" on="0"/>
        <pt x="524" y="1886" on="1"/>
      </contour>
      <contour>
        <pt x="940" y="1886" on="0"/>
        <pt x="1010" y="1812" on="0"/>
        <pt x="1010" y="1755" on="1"/>
        <pt x="1010" y="1700" on="0"/>
        <pt x="940" y="1626" on="0"/>
        <pt x="887" y="1626" on="1"/>
        <pt x="834" y="1626" on="0"/>
        <pt x="762" y="1700" on="0"/>
        <pt x="762" y="1755" on="1"/>
        <pt x="762" y="1812" on="0"/>
        <pt x="834" y="1886" on="0"/>
        <pt x="887" y="1886" on="1"/>
      </contour>
      <contour>
        <pt x="430" y="1217" on="1"/>
        <pt x="430" y="829" on="1"/>
        <pt x="1130" y="829" on="1"/>
        <pt x="1130" y="612" on="1"/>
        <pt x="430" y="612" on="1"/>
        <pt x="430" y="217" on="1"/>
        <pt x="1237" y="217" on="1"/>
        <pt x="1237" y="0" on="1"/>
        <pt x="188" y="0" on="1"/>
        <pt x="188" y="1434" on="1"/>
        <pt x="1212" y="1434" on="1"/>
        <pt x="1212" y="1217" on="1"/>
      </contour>
    </TTGlyph>
    <TTGlyph name="Edotaccent" xMin="188" yMin="0" xMax="1237" yMax="1888">
      <component glyphName="E" x="0" y="0" flags="0x1000"/>
      <component glyphName="dotaccent" x="346" y="344" flags="0x1000"/>
    </TTGlyph>
    <TTGlyph name="Egrave" xMin="188" yMin="0" xMax="1237" yMax="1894">
      <component glyphName="E" x="0" y="0" flags="0x1000"/>
      <component glyphName="grave" x="258" y="344" flags="0x1000"/>
    </TTGlyph>
    <TTGlyph name="Emacron" xMin="188" yMin="0" xMax="1237" yMax="1827">
      <component glyphName="E" x="0" y="0" flags="0x1000"/>
      <component glyphName="macron" x="346" y="344" flags="0x1000"/>
    </TTGlyph>
    <TTGlyph name="Eogonek" xMin="188" yMin="-412" xMax="1255" yMax="1434">
      <contour>
        <pt x="430" y="1233" on="1"/>
        <pt x="430" y="827" on="1"/>
        <pt x="1149" y="827" on="1"/>
        <pt x="1149" y="629" on="1"/>
        <pt x="430" y="629" on="1"/>
        <pt x="430" y="201" on="1"/>
        <pt x="1255" y="201" on="1"/>
        <pt x="1255" y="0" on="1"/>
        <pt x="1120" y="0" on="1"/>
        <pt x="1018" y="-141" on="0"/>
        <pt x="1018" y="-215" on="1"/>
        <pt x="1018" y="-246" on="0"/>
        <pt x="1053" y="-281" on="0"/>
        <pt x="1079" y="-281" on="1"/>
        <pt x="1130" y="-281" on="0"/>
        <pt x="1182" y="-215" on="1"/>
        <pt x="1249" y="-295" on="1"/>
        <pt x="1212" y="-350" on="0"/>
        <pt x="1110" y="-412" on="0"/>
        <pt x="1053" y="-412" on="1"/>
        <pt x="987" y="-412" on="0"/>
        <pt x="893" y="-330" on="0"/>
        <pt x="893" y="-252" on="1"/>
        <pt x="893" y="-197" on="0"/>
        <pt x="944" y="-76" on="0"/>
        <pt x="999" y="0" on="1"/>
        <pt x="188" y="0" on="1"/>
        <pt x="188" y="1434" on="1"/>
        <pt x="1231" y="1434" on="1"/>
        <pt x="1231" y="1233" on="1"/>
      </contour>
    </TTGlyph>
    <TTGlyph name="Eth" xMin="0" yMin="0" xMax="1559" yMax="1434">
      <contour>
        <pt x="1028" y="1434" on="0"/>
        <pt x="1366" y="1249" on="0"/>
        <pt x="1559" y="922" on="0"/>
        <pt x="1559" y="717" on="1"/>
        <pt x="1559" y="512" on="0"/>
        <pt x="1366" y="186" on="0"/>
        <pt x="1024" y="0" on="0"/>
        <pt x="809" y="0" on="1"/>
        <pt x="229" y="0" on="1"/>
        <pt x="229" y="649" on="1"/>
        <pt x="0" y="649" on="1"/>
        <pt x="0" y="791" on="1"/>
        <pt x="229" y="791" on="1"/>
        <pt x="229" y="1434" on="1"/>
        <pt x="817" y="1434" on="1"/>
      </contour>
      <contour>
        <pt x="961" y="217" on="0"/>
        <pt x="1186" y="344" on="0"/>
        <pt x="1313" y="571" on="0"/>
        <pt x="1313" y="715" on="1"/>
        <pt x="1313" y="858" on="0"/>
        <pt x="1182" y="1087" on="0"/>
        <pt x="952" y="1217" on="0"/>
        <pt x="813" y="1217" on="1"/>
        <pt x="469" y="1217" on="1"/>
        <pt x="469" y="791" on="1"/>
        <pt x="877" y="791" on="1"/>
        <pt x="877" y="649" on="1"/>
        <pt x="469" y="649" on="1"/>
        <pt x="469" y="217" on="1"/>
        <pt x="823" y="217" on="1"/>
      </contour>
    </TTGlyph>
    <TTGlyph name="Euro" xMin="76" yMin="-10" xMax="1561" yMax="1440">
      <contour>
        <pt x="1452" y="117" on="0"/>
        <pt x="1157" y="-10" on="0"/>
        <pt x="1006" y="-10" on="1"/>
        <pt x="842" y="-10" on="0"/>
        <pt x="555" y="113" on="0"/>
        <pt x="348" y="336" on="0"/>
        <pt x="299" y="481" on="1"/>
        <pt x="76" y="481" on="1"/>
        <pt x="76" y="612" on="1"/>
        <pt x="268" y="612" on="1"/>
        <pt x="260" y="659" on="0"/>
        <pt x="260" y="719" on="1"/>
        <pt x="260" y="780" on="0"/>
        <pt x="268" y="827" on="1"/>
        <pt x="76" y="827" on="1"/>
        <pt x="76" y="958" on="1"/>
        <pt x="301" y="958" on="1"/>
        <pt x="350" y="1099" on="0"/>
        <pt x="561" y="1319" on="0"/>
        <pt x="850" y="1440" on="0"/>
        <pt x="1016" y="1440" on="1"/>
        <pt x="1168" y="1440" on="0"/>
        <pt x="1456" y="1321" on="0"/>
        <pt x="1559" y="1219" on="1"/>
        <pt x="1419" y="1042" on="1"/>
        <pt x="1339" y="1128" on="0"/>
        <pt x="1126" y="1225" on="0"/>
        <pt x="1018" y="1225" on="1"/>
        <pt x="873" y="1225" on="0"/>
        <pt x="631" y="1079" on="0"/>
        <pt x="565" y="958" on="1"/>
        <pt x="1079" y="958" on="1"/>
        <pt x="1079" y="827" on="1"/>
        <pt x="516" y="827" on="1"/>
        <pt x="506" y="770" on="0"/>
        <pt x="506" y="721" on="1"/>
        <pt x="506" y="666" on="0"/>
        <pt x="518" y="612" on="1"/>
        <pt x="1079" y="612" on="1"/>
        <pt x="1079" y="481" on="1"/>
        <pt x="565" y="481" on="1"/>
        <pt x="631" y="360" on="0"/>
        <pt x="872" y="215" on="0"/>
        <pt x="1018" y="215" on="1"/>
        <pt x="1124" y="215" on="0"/>
        <pt x="1335" y="305" on="0"/>
        <pt x="1419" y="385" on="1"/>
        <pt x="1561" y="225" on="1"/>
      </contour>
    </TTGlyph>
    <TTGlyph name="F" xMin="188" yMin="0" xMax="1151" yMax="1434">
      <contour>
        <pt x="430" y="1217" on="1"/>
        <pt x="430" y="803" on="1"/>
        <pt x="1081" y="803" on="1"/>
        <pt x="1081" y="588" on="1"/>
        <pt x="430" y="588" on="1"/>
        <pt x="430" y="0" on="1"/>
        <pt x="188" y="0" on="1"/>
        <pt x="188" y="1434" on="1"/>
        <pt x="1151" y="1434" on="1"/>
        <pt x="1149" y="1217" on="1"/>
      </contour>
    </TTGlyph>
    <TTGlyph name="G" xMin="70" yMin="-10" xMax="1389" yMax="1440">
      <contour>
        <pt x="1380" y="705" on="1"/>
        <pt x="1380" y="176" on="1"/>
        <pt x="1269" y="92" on="0"/>
        <pt x="969" y="-10" on="0"/>
        <pt x="823" y="-10" on="1"/>
        <pt x="614" y="-10" on="0"/>
        <pt x="268" y="182" on="0"/>
        <pt x="70" y="516" on="0"/>
        <pt x="70" y="717" on="1"/>
        <pt x="70" y="920" on="0"/>
        <pt x="272" y="1249" on="0"/>
        <pt x="625" y="1440" on="0"/>
        <pt x="838" y="1440" on="1"/>
        <pt x="990" y="1440" on="0"/>
        <pt x="1282" y="1331" on="0"/>
        <pt x="1389" y="1239" on="1"/>
        <pt x="1251" y="1061" on="1"/>
        <pt x="1167" y="1139" on="0"/>
        <pt x="950" y="1225" on="0"/>
        <pt x="838" y="1225" on="1"/>
        <pt x="695" y="1225" on="0"/>
        <pt x="455" y="1090" on="0"/>
        <pt x="315" y="856" on="0"/>
        <pt x="315" y="717" on="1"/>
        <pt x="315" y="576" on="0"/>
        <pt x="455" y="342" on="0"/>
        <pt x="696" y="207" on="0"/>
        <pt x="840" y="207" on="1"/>
        <pt x="920" y="207" on="0"/>
        <pt x="1092" y="258" on="0"/>
        <pt x="1169" y="305" on="1"/>
        <pt x="1169" y="705" on="1"/>
      </contour>
    </TTGlyph>
    <TTGlyph name="Gbreve" xMin="70" yMin="-10" xMax="1389" yMax="1876">
      <component glyphName="G" x="0" y="0" flags="0x1000"/>
      <component glyphName="breve" x="434" y="342" flags="0x1000"/>
    </TTGlyph>
    <TTGlyph name="Gcommaaccent" xMin="70" yMin="-514" xMax="1389" yMax="1440">
      <component glyphName="G" x="0" y="0" flags="0x1000"/>
      <component glyphName="uni0326" x="582" y="0" flags="0x1000"/>
    </TTGlyph>
    <TTGlyph name="H" xMin="188" yMin="0" xMax="1432" yMax="1434">
      <contour>
        <pt x="1190" y="0" on="1"/>
        <pt x="1190" y="594" on="1"/>
        <pt x="430" y="594" on="1"/>
        <pt x="430" y="0" on="1"/>
        <pt x="188" y="0" on="1"/>
        <pt x="188" y="1434" on="1"/>
        <pt x="430" y="1434" on="1"/>
        <pt x="430" y="811" on="1"/>
        <pt x="1190" y="811" on="1"/>
        <pt x="1190" y="1434" on="1"/>
        <pt x="1432" y="1434" on="1"/>
        <pt x="1432" y="0" on="1"/>
      </contour>
    </TTGlyph>
    <TTGlyph name="I" xMin="188" yMin="0" xMax="430" yMax="1434">
      <contour>
        <pt x="188" y="0" on="1"/>
        <pt x="188" y="1434" on="1"/>
        <pt x="430" y="1434" on="1"/>
        <pt x="430" y="0" on="1"/>
      </contour>
    </TTGlyph>
    <TTGlyph name="IJ" xMin="188" yMin="-10" xMax="1482" yMax="1434">
      <component glyphName="I" x="0" y="0" flags="0x1000"/>
      <component glyphName="J" x="618" y="0" flags="0x1000"/>
    </TTGlyph>
    <TTGlyph name="Iacute" xMin="172" yMin="0" xMax="631" yMax="1892">
      <component glyphName="I" x="0" y="0" flags="0x1000"/>
      <component glyphName="acute" x="45" y="344" flags="0x1000"/>
    </TTGlyph>
    <TTGlyph name="Icircumflex" xMin="-10" yMin="0" xMax="629" yMax="1884">
      <component glyphName="I" x="0" y="0" flags="0x1000"/>
      <component glyphName="circumflex" x="-49" y="338" flags="0x1000"/>
    </TTGlyph>
    <TTGlyph name="Idieresis" xMin="4" yMin="0" xMax="614" yMax="1886">
      <contour>
        <pt x="182" y="1886" on="0"/>
        <pt x="252" y="1812" on="0"/>
        <pt x="252" y="1755" on="1"/>
        <pt x="252" y="1700" on="0"/>
        <pt x="182" y="1626" on="0"/>
        <pt x="129" y="1626" on="1"/>
        <pt x="76" y="1626" on="0"/>
        <pt x="4" y="1700" on="0"/>
        <pt x="4" y="1755" on="1"/>
        <pt x="4" y="1812" on="0"/>
        <pt x="76" y="1886" on="0"/>
        <pt x="129" y="1886" on="1"/>
      </contour>
      <contour>
        <pt x="545" y="1886" on="0"/>
        <pt x="614" y="1812" on="0"/>
        <pt x="614" y="1755" on="1"/>
        <pt x="614" y="1700" on="0"/>
        <pt x="545" y="1626" on="0"/>
        <pt x="492" y="1626" on="1"/>
        <pt x="439" y="1626" on="0"/>
        <pt x="367" y="1700" on="0"/>
        <pt x="367" y="1755" on="1"/>
        <pt x="367" y="1812" on="0"/>
        <pt x="438" y="1886" on="0"/>
        <pt x="492" y="1886" on="1"/>
      </contour>
      <contour>
        <pt x="188" y="0" on="1"/>
        <pt x="188" y="1434" on="1"/>
        <pt x="430" y="1434" on="1"/>
        <pt x="430" y="0" on="1"/>
      </contour>
    </TTGlyph>
    <TTGlyph name="Idotaccent" xMin="172" yMin="0" xMax="447" yMax="1888">
      <component glyphName="I" x="0" y="0" flags="0x1000"/>
      <component glyphName="dotaccent" x="-49" y="344" flags="0x1000"/>
    </TTGlyph>
    <TTGlyph name="Igrave" xMin="-22" yMin="0" xMax="436" yMax="1894">
      <component glyphName="I" x="0" y="0" flags="0x1000"/>
      <component glyphName="grave" x="-137" y="344" flags="0x1000"/>
    </TTGlyph>
    <TTGlyph name="Imacron" xMin="49" yMin="0" xMax="572" yMax="1827">
      <component glyphName="I" x="0" y="0" flags="0x1000"/>
      <component glyphName="macron" x="-49" y="344" flags="0x1000"/>
    </TTGlyph>
    <TTGlyph name="Iogonek" xMin="154" yMin="-412" xMax="510" yMax="1434">
      <contour>
        <pt x="475" y="-350" on="0"/>
        <pt x="373" y="-412" on="0"/>
        <pt x="315" y="-412" on="1"/>
        <pt x="249" y="-412" on="0"/>
        <pt x="154" y="-332" on="0"/>
        <pt x="154" y="-252" on="1"/>
        <pt x="154" y="-197" on="0"/>
        <pt x="207" y="-76" on="0"/>
        <pt x="260" y="0" on="1"/>
        <pt x="188" y="0" on="1"/>
        <pt x="188" y="1434" on="1"/>
        <pt x="430" y="1434" on="1"/>
        <pt x="430" y="0" on="1"/>
        <pt x="381" y="0" on="1"/>
        <pt x="281" y="-141" on="0"/>
        <pt x="281" y="-215" on="1"/>
        <pt x="281" y="-246" on="0"/>
        <pt x="313" y="-281" on="0"/>
        <pt x="340" y="-281" on="1"/>
        <pt x="391" y="-281" on="0"/>
        <pt x="442" y="-215" on="1"/>
        <pt x="510" y="-295" on="1"/>
      </contour>
    </TTGlyph>
    <TTGlyph name="Itilde" xMin="-20" yMin="0" xMax="639" yMax="1896">
      <component glyphName="I" x="0" y="0" flags="0x1000"/>
      <component glyphName="tilde" x="-49" y="344" flags="0x1000"/>
    </TTGlyph>
    <TTGlyph name="J" xMin="-4" yMin="-10" xMax="864" yMax="1434">
      <contour>
        <pt x="864" y="227" on="0"/>
        <pt x="627" y="-10" on="0"/>
        <pt x="418" y="-10" on="1"/>
        <pt x="291" y="-10" on="0"/>
        <pt x="78" y="96" on="0"/>
        <pt x="-4" y="197" on="1"/>
        <pt x="111" y="381" on="1"/>
        <pt x="181" y="305" on="0"/>
        <pt x="340" y="223" on="0"/>
        <pt x="416" y="223" on="1"/>
        <pt x="514" y="223" on="0"/>
        <pt x="621" y="340" on="0"/>
        <pt x="621" y="451" on="1"/>
        <pt x="621" y="1217" on="1"/>
        <pt x="125" y="1217" on="1"/>
        <pt x="125" y="1434" on="1"/>
        <pt x="864" y="1434" on="1"/>
        <pt x="864" y="442" on="1"/>
      </contour>
    </TTGlyph>
    <TTGlyph name="Jcircumflex" xMin="-4" yMin="-10" xMax="864" yMax="1884">
      <component glyphName="J" x="0" y="0" flags="0x1000"/>
      <component glyphName="circumflex" x="129" y="338" flags="0x1000"/>
    </TTGlyph>
    <TTGlyph name="K" xMin="188" yMin="0" xMax="1436" yMax="1434">
      <contour>
        <pt x="674" y="633" on="1"/>
        <pt x="430" y="365" on="1"/>
        <pt x="430" y="0" on="1"/>
        <pt x="188" y="0" on="1"/>
        <pt x="188" y="1434" on="1"/>
        <pt x="430" y="1434" on="1"/>
        <pt x="430" y="692" on="1"/>
        <pt x="1114" y="1434" on="1"/>
        <pt x="1399" y="1434" on="1"/>
        <pt x="844" y="821" on="1"/>
        <pt x="1436" y="0" on="1"/>
        <pt x="1145" y="0" on="1"/>
      </contour>
    </TTGlyph>
    <TTGlyph name="Kcommaaccent" xMin="188" yMin="-514" xMax="1436" yMax="1434">
      <component glyphName="K" x="0" y="0" flags="0x1000"/>
      <component glyphName="uni0326" x="512" y="0" flags="0x1000"/>
    </TTGlyph>
    <TTGlyph name="L" xMin="188" yMin="0" xMax="1051" yMax="1434">
      <contour>
        <pt x="1051" y="219" on="1"/>
        <pt x="1051" y="0" on="1"/>
        <pt x="188" y="0" on="1"/>
        <pt x="188" y="1434" on="1"/>
        <pt x="430" y="1434" on="1"/>
        <pt x="430" y="219" on="1"/>
      </contour>
    </TTGlyph>
    <TTGlyph name="Lacute" xMin="176" yMin="0" xMax="1051" yMax="1892">
      <component glyphName="L" x="0" y="0" flags="0x1000"/>
      <component glyphName="acute" x="49" y="344" flags="0x1000"/>
    </TTGlyph>
    <TTGlyph name="Lcaron" xMin="188" yMin="0" xMax="1051" yMax="1434">
      <component glyphName="L" x="0" y="0" flags="0x1000"/>
      <component glyphName="quoteright" x="674" y="-66" flags="0x1000"/>
    </TTGlyph>
    <TTGlyph name="Lcommaaccent" xMin="188" yMin="-514" xMax="1051" yMax="1434">
      <component glyphName="L" x="0" y="0" flags="0x1000"/>
      <component glyphName="uni0326" x="383" y="0" flags="0x1000"/>
    </TTGlyph>
    <TTGlyph name="Ldot" xMin="188" yMin="0" xMax="1051" yMax="1434">
      <component glyphName="L" x="0" y="0" flags="0x1000"/>
      <component glyphName="periodcentered" x="594" y="365" flags="0x1000"/>
    </TTGlyph>
    <TTGlyph name="Lslash" xMin="12" yMin="0" xMax="1085" yMax="1434">
      <contour>
        <pt x="1085" y="0" on="1"/>
        <pt x="223" y="0" on="1"/>
        <pt x="223" y="754" on="1"/>
        <pt x="53" y="705" on="1"/>
        <pt x="12" y="860" on="1"/>
        <pt x="223" y="922" on="1"/>
        <pt x="223" y="1434" on="1"/>
        <pt x="463" y="1434" on="1"/>
        <pt x="463" y="993" on="1"/>
        <pt x="791" y="1090" on="1"/>
        <pt x="831" y="932" on="1"/>
        <pt x="463" y="823" on="1"/>
        <pt x="463" y="219" on="1"/>
        <pt x="1085" y="219" on="1"/>
      </contour>
    </TTGlyph>
    <TTGlyph name="M" xMin="188" yMin="0" xMax="1704" yMax="1434">
      <contour>
        <pt x="1481" y="0" on="1"/>
        <pt x="1479" y="1071" on="1"/>
        <pt x="1026" y="150" on="1"/>
        <pt x="868" y="150" on="1"/>
        <pt x="416" y="1071" on="1"/>
        <pt x="416" y="0" on="1"/>
        <pt x="188" y="0" on="1"/>
        <pt x="188" y="1434" on="1"/>
        <pt x="475" y="1434" on="1"/>
        <pt x="948" y="481" on="1"/>
        <pt x="1419" y="1434" on="1"/>
        <pt x="1704" y="1434" on="1"/>
        <pt x="1704" y="0" on="1"/>
      </contour>
    </TTGlyph>
    <TTGlyph name="N" xMin="188" yMin="0" xMax="1432" yMax="1434">
      <contour>
        <pt x="1194" y="0" on="1"/>
        <pt x="430" y="1028" on="1"/>
        <pt x="430" y="0" on="1"/>
        <pt x="188" y="0" on="1"/>
        <pt x="188" y="1434" on="1"/>
        <pt x="426" y="1434" on="1"/>
        <pt x="1194" y="403" on="1"/>
        <pt x="1194" y="1434" on="1"/>
        <pt x="1432" y="1434" on="1"/>
        <pt x="1432" y="0" on="1"/>
      </contour>
    </TTGlyph>
    <TTGlyph name="Nacute" xMin="188" yMin="0" xMax="1432" yMax="1892">
      <component glyphName="N" x="0" y="0" flags="0x1000"/>
      <component glyphName="acute" x="547" y="344" flags="0x1000"/>
    </TTGlyph>
    <TTGlyph name="Ncaron" xMin="188" yMin="0" xMax="1432" yMax="1884">
      <component glyphName="N" x="0" y="0" flags="0x1000"/>
      <component glyphName="caron" x="446" y="338" flags="0x1000"/>
    </TTGlyph>
    <TTGlyph name="Ncommaaccent" xMin="188" yMin="-514" xMax="1432" yMax="1434">
      <component glyphName="N" x="0" y="0" flags="0x1000"/>
      <component glyphName="uni0326" x="600" y="0" flags="0x1000"/>
    </TTGlyph>
    <TTGlyph name="Ntilde" xMin="188" yMin="0" xMax="1432" yMax="1896">
      <component glyphName="N" x="0" y="0" flags="0x1000"/>
      <component glyphName="tilde" x="453" y="344" flags="0x1000"/>
    </TTGlyph>
    <TTGlyph name="O" xMin="70" yMin="-10" xMax="1589" yMax="1440">
      <contour>
        <pt x="1040" y="1440" on="0"/>
        <pt x="1389" y="1249" on="0"/>
        <pt x="1589" y="918" on="0"/>
        <pt x="1589" y="717" on="1"/>
        <pt x="1589" y="514" on="0"/>
        <pt x="1389" y="182" on="0"/>
        <pt x="1040" y="-10" on="0"/>
        <pt x="829" y="-10" on="1"/>
        <pt x="618" y="-10" on="0"/>
        <pt x="270" y="182" on="0"/>
        <pt x="70" y="514" on="0"/>
        <pt x="70" y="717" on="1"/>
        <pt x="70" y="920" on="0"/>
        <pt x="270" y="1249" on="0"/>
        <pt x="618" y="1440" on="0"/>
        <pt x="829" y="1440" on="1"/>
      </contour>
      <contour>
        <pt x="692" y="1223" on="0"/>
        <pt x="455" y="1087" on="0"/>
        <pt x="315" y="856" on="0"/>
        <pt x="315" y="717" on="1"/>
        <pt x="315" y="578" on="0"/>
        <pt x="457" y="344" on="0"/>
        <pt x="692" y="207" on="0"/>
        <pt x="831" y="207" on="1"/>
        <pt x="970" y="207" on="0"/>
        <pt x="1204" y="342" on="0"/>
        <pt x="1341" y="578" on="0"/>
        <pt x="1341" y="717" on="1"/>
        <pt x="1341" y="856" on="0"/>
        <pt x="1204" y="1087" on="0"/>
        <pt x="971" y="1223" on="0"/>
        <pt x="831" y="1223" on="1"/>
      </contour>
    </TTGlyph>
    <TTGlyph name="OE" xMin="70" yMin="0" xMax="2140" yMax="1434">
      <contour>
        <pt x="2140" y="0" on="1"/>
        <pt x="827" y="0" on="1"/>
        <pt x="616" y="0" on="0"/>
        <pt x="270" y="188" on="0"/>
        <pt x="70" y="518" on="0"/>
        <pt x="70" y="717" on="1"/>
        <pt x="70" y="916" on="0"/>
        <pt x="270" y="1243" on="0"/>
        <pt x="616" y="1434" on="0"/>
        <pt x="827" y="1434" on="1"/>
        <pt x="2116" y="1434" on="1"/>
        <pt x="2116" y="1217" on="1"/>
        <pt x="1333" y="1217" on="1"/>
        <pt x="1333" y="827" on="1"/>
        <pt x="2034" y="827" on="1"/>
        <pt x="2034" y="612" on="1"/>
        <pt x="1333" y="612" on="1"/>
        <pt x="1333" y="217" on="1"/>
        <pt x="2140" y="217" on="1"/>
      </contour>
      <contour>
        <pt x="1092" y="1214" on="1"/>
        <pt x="829" y="1214" on="1"/>
        <pt x="686" y="1214" on="0"/>
        <pt x="451" y="1083" on="0"/>
        <pt x="315" y="854" on="0"/>
        <pt x="315" y="715" on="1"/>
        <pt x="315" y="576" on="0"/>
        <pt x="451" y="348" on="0"/>
        <pt x="686" y="217" on="0"/>
        <pt x="829" y="217" on="1"/>
        <pt x="1092" y="217" on="1"/>
      </contour>
    </TTGlyph>
    <TTGlyph name="Oacute" xMin="70" yMin="-10" xMax="1589" yMax="1892">
      <component glyphName="O" x="0" y="0" flags="0x1000"/>
      <component glyphName="acute" x="555" y="344" flags="0x1000"/>
    </TTGlyph>
    <TTGlyph name="Ocircumflex" xMin="70" yMin="-10" xMax="1589" yMax="1884">
      <component glyphName="O" x="0" y="0" flags="0x1000"/>
      <component glyphName="circumflex" x="461" y="338" flags="0x1000"/>
    </TTGlyph>
    <TTGlyph name="Odieresis" xMin="70" yMin="-10" xMax="1589" yMax="1806">
      <component glyphName="O" x="0" y="0" flags="0x1000"/>
      <component glyphName="dotaccent" x="448" y="404" scale="0.908020019531" flags="0x1000"/>
      <component glyphName="dotaccent" x="448" y="404" scale="0.908020019531" flags="0x1000"/>
    </TTGlyph>
    <TTGlyph name="Ograve" xMin="70" yMin="-10" xMax="1589" yMax="1894">
      <component glyphName="O" x="0" y="0" flags="0x1000"/>
      <component glyphName="grave" x="373" y="344" flags="0x1000"/>
    </TTGlyph>
    <TTGlyph name="Ohungarumlaut" xMin="70" yMin="-10" xMax="1589" yMax="1901">
      <component glyphName="O" x="0" y="0" flags="0x1000"/>
      <component glyphName="hungarumlaut" x="516" y="338" flags="0x1000"/>
    </TTGlyph>
    <TTGlyph name="Omacron" xMin="70" yMin="-10" xMax="1589" yMax="1827">
      <component glyphName="O" x="0" y="0" flags="0x1000"/>
      <component glyphName="macron" x="461" y="344" flags="0x1000"/>
    </TTGlyph>
    <TTGlyph name="Omega" xMin="18" yMin="0" xMax="1788" yMax="1446">
      <contour>
        <pt x="1112" y="1446" on="0"/>
        <pt x="1448" y="1268" on="0"/>
        <pt x="1640" y="956" on="0"/>
        <pt x="1640" y="762" on="1"/>
        <pt x="1640" y="608" on="0"/>
        <pt x="1483" y="297" on="0"/>
        <pt x="1360" y="205" on="1"/>
        <pt x="1788" y="205" on="1"/>
        <pt x="1788" y="0" on="1"/>
        <pt x="1108" y="0" on="1"/>
        <pt x="1108" y="190" on="1"/>
        <pt x="1245" y="272" on="0"/>
        <pt x="1425" y="584" on="0"/>
        <pt x="1425" y="741" on="1"/>
        <pt x="1425" y="882" on="0"/>
        <pt x="1290" y="1106" on="0"/>
        <pt x="1053" y="1231" on="0"/>
        <pt x="903" y="1231" on="1"/>
        <pt x="753" y="1231" on="0"/>
        <pt x="518" y="1106" on="0"/>
        <pt x="383" y="883" on="0"/>
        <pt x="383" y="741" on="1"/>
        <pt x="383" y="583" on="0"/>
        <pt x="561" y="272" on="0"/>
        <pt x="700" y="188" on="1"/>
        <pt x="700" y="0" on="1"/>
        <pt x="18" y="0" on="1"/>
        <pt x="18" y="205" on="1"/>
        <pt x="449" y="205" on="1"/>
        <pt x="326" y="297" on="0"/>
        <pt x="168" y="608" on="0"/>
        <pt x="168" y="762" on="1"/>
        <pt x="168" y="957" on="0"/>
        <pt x="358" y="1268" on="0"/>
        <pt x="694" y="1446" on="0"/>
        <pt x="903" y="1446" on="1"/>
      </contour>
    </TTGlyph>
    <TTGlyph name="Oslash" xMin="70" yMin="-250" xMax="1589" yMax="1661">
      <contour>
        <pt x="1321" y="1319" on="0"/>
        <pt x="1589" y="952" on="0"/>
        <pt x="1589" y="717" on="1"/>
        <pt x="1589" y="514" on="0"/>
        <pt x="1389" y="182" on="0"/>
        <pt x="1040" y="-10" on="0"/>
        <pt x="829" y="-10" on="1"/>
        <pt x="729" y="-10" on="0"/>
        <pt x="633" y="12" on="1"/>
        <pt x="543" y="-250" on="1"/>
        <pt x="401" y="-250" on="1"/>
        <pt x="506" y="55" on="1"/>
        <pt x="307" y="143" on="0"/>
        <pt x="70" y="498" on="0"/>
        <pt x="70" y="717" on="1"/>
        <pt x="70" y="920" on="0"/>
        <pt x="270" y="1249" on="0"/>
        <pt x="618" y="1440" on="0"/>
        <pt x="829" y="1440" on="1"/>
        <pt x="899" y="1440" on="0"/>
        <pt x="971" y="1427" on="1"/>
        <pt x="1049" y="1661" on="1"/>
        <pt x="1192" y="1661" on="1"/>
        <pt x="1102" y="1395" on="1"/>
      </contour>
      <contour>
        <pt x="315" y="575" on="0"/>
        <pt x="459" y="340" on="0"/>
        <pt x="578" y="272" on="1"/>
        <pt x="899" y="1219" on="1"/>
        <pt x="854" y="1223" on="0"/>
        <pt x="831" y="1223" on="1"/>
        <pt x="692" y="1223" on="0"/>
        <pt x="455" y="1087" on="0"/>
        <pt x="315" y="856" on="0"/>
        <pt x="315" y="717" on="1"/>
      </contour>
      <contour>
        <pt x="971" y="207" on="0"/>
        <pt x="1204" y="342" on="0"/>
        <pt x="1341" y="578" on="0"/>
        <pt x="1341" y="717" on="1"/>
        <pt x="1341" y="875" on="0"/>
        <pt x="1169" y="1126" on="0"/>
        <pt x="1028" y="1184" on="1"/>
        <pt x="702" y="223" on="1"/>
        <pt x="768" y="207" on="0"/>
        <pt x="831" y="207" on="1"/>
      </contour>
    </TTGlyph>
    <TTGlyph name="Otilde" xMin="70" yMin="-10" xMax="1589" yMax="1896">
      <component glyphName="O" x="0" y="0" flags="0x1000"/>
      <component glyphName="tilde" x="461" y="344" flags="0x1000"/>
    </TTGlyph>
    <TTGlyph name="P" xMin="188" yMin="0" xMax="1327" yMax="1434">
      <contour>
        <pt x="1030" y="1434" on="0"/>
        <pt x="1327" y="1178" on="0"/>
        <pt x="1327" y="944" on="1"/>
        <pt x="1327" y="700" on="0"/>
        <pt x="1030" y="432" on="0"/>
        <pt x="760" y="432" on="1"/>
        <pt x="430" y="432" on="1"/>
        <pt x="430" y="0" on="1"/>
        <pt x="188" y="0" on="1"/>
        <pt x="188" y="1434" on="1"/>
        <pt x="760" y="1434" on="1"/>
      </contour>
      <contour>
        <pt x="430" y="649" on="1"/>
        <pt x="750" y="649" on="1"/>
        <pt x="918" y="649" on="0"/>
        <pt x="1096" y="795" on="0"/>
        <pt x="1096" y="938" on="1"/>
        <pt x="1096" y="1077" on="0"/>
        <pt x="918" y="1217" on="0"/>
        <pt x="750" y="1217" on="1"/>
        <pt x="430" y="1217" on="1"/>
      </contour>
    </TTGlyph>
    <TTGlyph name="Q" xMin="70" yMin="-315" xMax="1673" yMax="1440">
      <contour>
        <pt x="1589" y="-231" on="0"/>
        <pt x="1384" y="-315" on="0"/>
        <pt x="1284" y="-315" on="1"/>
        <pt x="1151" y="-315" on="0"/>
        <pt x="913" y="-156" on="0"/>
        <pt x="827" y="-10" on="1"/>
        <pt x="616" y="-10" on="0"/>
        <pt x="270" y="182" on="0"/>
        <pt x="70" y="514" on="0"/>
        <pt x="70" y="717" on="1"/>
        <pt x="70" y="920" on="0"/>
        <pt x="270" y="1249" on="0"/>
        <pt x="618" y="1440" on="0"/>
        <pt x="829" y="1440" on="1"/>
        <pt x="1040" y="1440" on="0"/>
        <pt x="1389" y="1249" on="0"/>
        <pt x="1589" y="918" on="0"/>
        <pt x="1589" y="717" on="1"/>
        <pt x="1589" y="555" on="0"/>
        <pt x="1460" y="274" on="0"/>
        <pt x="1225" y="74" on="0"/>
        <pt x="1073" y="27" on="1"/>
        <pt x="1196" y="-106" on="0"/>
        <pt x="1313" y="-106" on="1"/>
        <pt x="1426" y="-106" on="0"/>
        <pt x="1577" y="12" on="1"/>
        <pt x="1673" y="-158" on="1"/>
      </contour>
      <contour>
        <pt x="315" y="578" on="0"/>
        <pt x="457" y="344" on="0"/>
        <pt x="692" y="207" on="0"/>
        <pt x="831" y="207" on="1"/>
        <pt x="970" y="207" on="0"/>
        <pt x="1204" y="342" on="0"/>
        <pt x="1341" y="578" on="0"/>
        <pt x="1341" y="717" on="1"/>
        <pt x="1341" y="856" on="0"/>
        <pt x="1204" y="1087" on="0"/>
        <pt x="971" y="1223" on="0"/>
        <pt x="831" y="1223" on="1"/>
        <pt x="692" y="1223" on="0"/>
        <pt x="455" y="1087" on="0"/>
        <pt x="315" y="856" on="0"/>
        <pt x="315" y="717" on="1"/>
      </contour>
    </TTGlyph>
    <TTGlyph name="R" xMin="188" yMin="0" xMax="1372" yMax="1434">
      <contour>
        <pt x="836" y="434" on="1"/>
        <pt x="816" y="432" on="0"/>
        <pt x="770" y="432" on="1"/>
        <pt x="430" y="432" on="1"/>
        <pt x="430" y="0" on="1"/>
        <pt x="188" y="0" on="1"/>
        <pt x="188" y="1434" on="1"/>
        <pt x="770" y="1434" on="1"/>
        <pt x="1044" y="1434" on="0"/>
        <pt x="1348" y="1178" on="0"/>
        <pt x="1348" y="944" on="1"/>
        <pt x="1348" y="772" on="0"/>
        <pt x="1194" y="535" on="0"/>
        <pt x="1051" y="479" on="1"/>
        <pt x="1372" y="0" on="1"/>
        <pt x="1098" y="0" on="1"/>
      </contour>
      <contour>
        <pt x="938" y="649" on="0"/>
        <pt x="1118" y="795" on="0"/>
        <pt x="1118" y="938" on="1"/>
        <pt x="1118" y="1077" on="0"/>
        <pt x="938" y="1217" on="0"/>
        <pt x="770" y="1217" on="1"/>
        <pt x="430" y="1217" on="1"/>
        <pt x="430" y="649" on="1"/>
        <pt x="770" y="649" on="1"/>
      </contour>
    </TTGlyph>
    <TTGlyph name="Racute" xMin="188" yMin="0" xMax="1372" yMax="1892">
      <component glyphName="R" x="0" y="0" flags="0x1000"/>
      <component glyphName="acute" x="463" y="344" flags="0x1000"/>
    </TTGlyph>
    <TTGlyph name="Rcaron" xMin="188" yMin="0" xMax="1372" yMax="1884">
      <component glyphName="R" x="0" y="0" flags="0x1000"/>
      <component glyphName="caron" x="362" y="338" flags="0x1000"/>
    </TTGlyph>
    <TTGlyph name="Rcommaaccent" xMin="188" yMin="-514" xMax="1372" yMax="1434">
      <component glyphName="R" x="0" y="0" flags="0x1000"/>
      <component glyphName="uni0326" x="526" y="0" flags="0x1000"/>
    </TTGlyph>
    <TTGlyph name="S" xMin="53" yMin="-8" xMax="1180" yMax="1444">
      <contour>
        <pt x="797" y="1444" on="0"/>
        <pt x="1059" y="1364" on="0"/>
        <pt x="1161" y="1296" on="1"/>
        <pt x="1061" y="1083" on="1"/>
        <pt x="950" y="1151" on="0"/>
        <pt x="729" y="1217" on="0"/>
        <pt x="641" y="1217" on="1"/>
        <pt x="532" y="1217" on="0"/>
        <pt x="408" y="1139" on="0"/>
        <pt x="408" y="1067" on="1"/>
        <pt x="408" y="1004" on="0"/>
        <pt x="489" y="918" on="0"/>
        <pt x="612" y="866" on="0"/>
        <pt x="723" y="834" on="1"/>
        <pt x="868" y="791" on="0"/>
        <pt x="1051" y="707" on="0"/>
        <pt x="1180" y="541" on="0"/>
        <pt x="1180" y="408" on="1"/>
        <pt x="1180" y="283" on="0"/>
        <pt x="1042" y="94" on="0"/>
        <pt x="797" y="-8" on="0"/>
        <pt x="639" y="-8" on="1"/>
        <pt x="475" y="-8" on="0"/>
        <pt x="168" y="115" on="0"/>
        <pt x="53" y="219" on="1"/>
        <pt x="158" y="428" on="1"/>
        <pt x="267" y="328" on="0"/>
        <pt x="526" y="219" on="0"/>
        <pt x="643" y="219" on="1"/>
        <pt x="770" y="219" on="0"/>
        <pt x="911" y="311" on="0"/>
        <pt x="911" y="393" on="1"/>
        <pt x="911" y="459" on="0"/>
        <pt x="827" y="545" on="0"/>
        <pt x="702" y="594" on="0"/>
        <pt x="592" y="627" on="1"/>
        <pt x="445" y="670" on="0"/>
        <pt x="266" y="752" on="0"/>
        <pt x="137" y="911" on="0"/>
        <pt x="137" y="1044" on="1"/>
        <pt x="137" y="1165" on="0"/>
        <pt x="268" y="1346" on="0"/>
        <pt x="504" y="1444" on="0"/>
        <pt x="659" y="1444" on="1"/>
      </contour>
    </TTGlyph>
    <TTGlyph name="Sacute" xMin="53" yMin="-8" xMax="1180" yMax="1892">
      <component glyphName="S" x="0" y="0" flags="0x1000"/>
      <component glyphName="acute" x="389" y="344" flags="0x1000"/>
    </TTGlyph>
    <TTGlyph name="Scaron" xMin="53" yMin="-8" xMax="1180" yMax="1884">
      <component glyphName="S" x="0" y="0" flags="0x1000"/>
      <component glyphName="caron" x="289" y="338" flags="0x1000"/>
    </TTGlyph>
    <TTGlyph name="Scedilla" xMin="53" yMin="-459" xMax="1180" yMax="1444">
      <contour>
        <pt x="408" y="1004" on="0"/>
        <pt x="489" y="918" on="0"/>
        <pt x="612" y="866" on="0"/>
        <pt x="723" y="834" on="1"/>
        <pt x="868" y="791" on="0"/>
        <pt x="1051" y="707" on="0"/>
        <pt x="1180" y="541" on="0"/>
        <pt x="1180" y="408" on="1"/>
        <pt x="1180" y="242" on="0"/>
        <pt x="946" y="25" on="0"/>
        <pt x="750" y="-2" on="1"/>
        <pt x="702" y="-102" on="1"/>
        <pt x="768" y="-114" on="0"/>
        <pt x="846" y="-199" on="0"/>
        <pt x="846" y="-264" on="1"/>
        <pt x="846" y="-352" on="0"/>
        <pt x="721" y="-459" on="0"/>
        <pt x="629" y="-459" on="1"/>
        <pt x="580" y="-459" on="0"/>
        <pt x="485" y="-428" on="0"/>
        <pt x="449" y="-401" on="1"/>
        <pt x="494" y="-291" on="1"/>
        <pt x="547" y="-332" on="0"/>
        <pt x="612" y="-332" on="1"/>
        <pt x="655" y="-332" on="0"/>
        <pt x="707" y="-281" on="0"/>
        <pt x="707" y="-248" on="1"/>
        <pt x="707" y="-215" on="0"/>
        <pt x="655" y="-170" on="0"/>
        <pt x="608" y="-170" on="1"/>
        <pt x="573" y="-170" on="0"/>
        <pt x="537" y="-180" on="1"/>
        <pt x="610" y="-8" on="1"/>
        <pt x="452" y="-2" on="0"/>
        <pt x="162" y="119" on="0"/>
        <pt x="53" y="219" on="1"/>
        <pt x="158" y="428" on="1"/>
        <pt x="267" y="328" on="0"/>
        <pt x="526" y="219" on="0"/>
        <pt x="643" y="219" on="1"/>
        <pt x="770" y="219" on="0"/>
        <pt x="911" y="311" on="0"/>
        <pt x="911" y="393" on="1"/>
        <pt x="911" y="459" on="0"/>
        <pt x="827" y="545" on="0"/>
        <pt x="702" y="594" on="0"/>
        <pt x="592" y="627" on="1"/>
        <pt x="445" y="670" on="0"/>
        <pt x="266" y="752" on="0"/>
        <pt x="137" y="911" on="0"/>
        <pt x="137" y="1044" on="1"/>
        <pt x="137" y="1165" on="0"/>
        <pt x="268" y="1346" on="0"/>
        <pt x="504" y="1444" on="0"/>
        <pt x="659" y="1444" on="1"/>
        <pt x="796" y="1444" on="0"/>
        <pt x="1059" y="1364" on="0"/>
        <pt x="1161" y="1296" on="1"/>
        <pt x="1061" y="1083" on="1"/>
        <pt x="950" y="1151" on="0"/>
        <pt x="729" y="1217" on="0"/>
        <pt x="641" y="1217" on="1"/>
        <pt x="532" y="1217" on="0"/>
        <pt x="408" y="1139" on="0"/>
        <pt x="408" y="1067" on="1"/>
      </contour>
    </TTGlyph>
    <TTGlyph name="Scommaaccent" xMin="53" yMin="-514" xMax="1180" yMax="1444">
      <component glyphName="S" x="0" y="0" flags="0x1000"/>
      <component glyphName="uni0326" x="436" y="0" flags="0x1000"/>
    </TTGlyph>
    <TTGlyph name="T" xMin="18" yMin="0" xMax="1167" yMax="1434">
      <contour>
        <pt x="713" y="1217" on="1"/>
        <pt x="713" y="0" on="1"/>
        <pt x="471" y="0" on="1"/>
        <pt x="471" y="1217" on="1"/>
        <pt x="18" y="1217" on="1"/>
        <pt x="18" y="1434" on="1"/>
        <pt x="1167" y="1434" on="1"/>
        <pt x="1167" y="1217" on="1"/>
      </contour>
    </TTGlyph>
    <TTGlyph name="Tcaron" xMin="18" yMin="0" xMax="1167" yMax="1884">
      <component glyphName="T" x="0" y="0" flags="0x1000"/>
      <component glyphName="caron" x="244" y="338" flags="0x1000"/>
    </TTGlyph>
    <TTGlyph name="Tcedilla" xMin="18" yMin="-459" xMax="1167" yMax="1434">
      <contour>
        <pt x="621" y="-102" on="1"/>
        <pt x="687" y="-114" on="0"/>
        <pt x="764" y="-199" on="0"/>
        <pt x="764" y="-264" on="1"/>
        <pt x="764" y="-352" on="0"/>
        <pt x="639" y="-459" on="0"/>
        <pt x="547" y="-459" on="1"/>
        <pt x="498" y="-459" on="0"/>
        <pt x="403" y="-428" on="0"/>
        <pt x="367" y="-401" on="1"/>
        <pt x="412" y="-291" on="1"/>
        <pt x="465" y="-332" on="0"/>
        <pt x="530" y="-332" on="1"/>
        <pt x="573" y="-332" on="0"/>
        <pt x="625" y="-281" on="0"/>
        <pt x="625" y="-248" on="1"/>
        <pt x="625" y="-215" on="0"/>
        <pt x="573" y="-170" on="0"/>
        <pt x="526" y="-170" on="1"/>
        <pt x="491" y="-170" on="0"/>
        <pt x="455" y="-180" on="1"/>
        <pt x="530" y="0" on="1"/>
        <pt x="471" y="0" on="1"/>
        <pt x="471" y="1217" on="1"/>
        <pt x="18" y="1217" on="1"/>
        <pt x="18" y="1434" on="1"/>
        <pt x="1167" y="1434" on="1"/>
        <pt x="1167" y="1217" on="1"/>
        <pt x="713" y="1217" on="1"/>
        <pt x="713" y="0" on="1"/>
        <pt x="670" y="0" on="1"/>
      </contour>
    </TTGlyph>
    <TTGlyph name="Thorn" xMin="188" yMin="0" xMax="1337" yMax="1434">
      <contour>
        <pt x="1022" y="1231" on="0"/>
        <pt x="1337" y="981" on="0"/>
        <pt x="1337" y="752" on="1"/>
        <pt x="1337" y="512" on="0"/>
        <pt x="1022" y="250" on="0"/>
        <pt x="731" y="250" on="1"/>
        <pt x="430" y="250" on="1"/>
        <pt x="430" y="0" on="1"/>
        <pt x="188" y="0" on="1"/>
        <pt x="188" y="1434" on="1"/>
        <pt x="430" y="1434" on="1"/>
        <pt x="430" y="1231" on="1"/>
        <pt x="731" y="1231" on="1"/>
      </contour>
      <contour>
        <pt x="903" y="451" on="0"/>
        <pt x="1092" y="600" on="0"/>
        <pt x="1092" y="745" on="1"/>
        <pt x="1092" y="884" on="0"/>
        <pt x="903" y="1030" on="0"/>
        <pt x="721" y="1030" on="1"/>
        <pt x="430" y="1030" on="1"/>
        <pt x="430" y="451" on="1"/>
        <pt x="721" y="451" on="1"/>
      </contour>
    </TTGlyph>
    <TTGlyph name="U" xMin="160" yMin="-10" xMax="1407" yMax="1434">
      <contour>
        <pt x="1407" y="408" on="0"/>
        <pt x="1257" y="135" on="0"/>
        <pt x="977" y="-10" on="0"/>
        <pt x="784" y="-10" on="1"/>
        <pt x="591" y="-10" on="0"/>
        <pt x="311" y="135" on="0"/>
        <pt x="160" y="408" on="0"/>
        <pt x="160" y="594" on="1"/>
        <pt x="160" y="1434" on="1"/>
        <pt x="401" y="1434" on="1"/>
        <pt x="401" y="594" on="1"/>
        <pt x="401" y="414" on="0"/>
        <pt x="608" y="207" on="0"/>
        <pt x="786" y="207" on="1"/>
        <pt x="962" y="207" on="0"/>
        <pt x="1165" y="412" on="0"/>
        <pt x="1165" y="594" on="1"/>
        <pt x="1165" y="1434" on="1"/>
        <pt x="1407" y="1434" on="1"/>
        <pt x="1407" y="594" on="1"/>
      </contour>
    </TTGlyph>
    <TTGlyph name="Uacute" xMin="160" yMin="-10" xMax="1407" yMax="1892">
      <component glyphName="U" x="0" y="0" flags="0x1000"/>
      <component glyphName="acute" x="518" y="344" flags="0x1000"/>
    </TTGlyph>
    <TTGlyph name="Ucircumflex" xMin="160" yMin="-10" xMax="1407" yMax="1884">
      <component glyphName="U" x="0" y="0" flags="0x1000"/>
      <component glyphName="circumflex" x="424" y="338" flags="0x1000"/>
    </TTGlyph>
    <TTGlyph name="Udieresis" xMin="160" yMin="-10" xMax="1407" yMax="1886">
      <contour>
        <pt x="655" y="1886" on="0"/>
        <pt x="725" y="1812" on="0"/>
        <pt x="725" y="1755" on="1"/>
        <pt x="725" y="1700" on="0"/>
        <pt x="655" y="1626" on="0"/>
        <pt x="602" y="1626" on="1"/>
        <pt x="549" y="1626" on="0"/>
        <pt x="477" y="1700" on="0"/>
        <pt x="477" y="1755" on="1"/>
        <pt x="477" y="1812" on="0"/>
        <pt x="549" y="1886" on="0"/>
        <pt x="602" y="1886" on="1"/>
      </contour>
      <contour>
        <pt x="1018" y="1886" on="0"/>
        <pt x="1087" y="1812" on="0"/>
        <pt x="1087" y="1755" on="1"/>
        <pt x="1087" y="1700" on="0"/>
        <pt x="1018" y="1626" on="0"/>
        <pt x="965" y="1626" on="1"/>
        <pt x="912" y="1626" on="0"/>
        <pt x="840" y="1700" on="0"/>
        <pt x="840" y="1755" on="1"/>
        <pt x="840" y="1812" on="0"/>
        <pt x="911" y="1886" on="0"/>
        <pt x="965" y="1886" on="1"/>
      </contour>
      <contour>
        <pt x="1407" y="408" on="0"/>
        <pt x="1257" y="135" on="0"/>
        <pt x="977" y="-10" on="0"/>
        <pt x="784" y="-10" on="1"/>
        <pt x="591" y="-10" on="0"/>
        <pt x="311" y="135" on="0"/>
        <pt x="160" y="408" on="0"/>
        <pt x="160" y="594" on="1"/>
        <pt x="160" y="1434" on="1"/>
        <pt x="401" y="1434" on="1"/>
        <pt x="401" y="594" on="1"/>
        <pt x="401" y="414" on="0"/>
        <pt x="608" y="207" on="0"/>
        <pt x="786" y="207" on="1"/>
        <pt x="962" y="207" on="0"/>
        <pt x="1165" y="412" on="0"/>
        <pt x="1165" y="594" on="1"/>
        <pt x="1165" y="1434" on="1"/>
        <pt x="1407" y="1434" on="1"/>
        <pt x="1407" y="594" on="1"/>
      </contour>
    </TTGlyph>
    <TTGlyph name="Ugrave" xMin="160" yMin="-10" xMax="1407" yMax="1894">
      <component glyphName="U" x="0" y="0" flags="0x1000"/>
      <component glyphName="grave" x="336" y="344" flags="0x1000"/>
    </TTGlyph>
    <TTGlyph name="Uhungarumlaut" xMin="160" yMin="-10" xMax="1407" yMax="1901">
      <component glyphName="U" x="0" y="0" flags="0x1000"/>
      <component glyphName="hungarumlaut" x="479" y="338" flags="0x1000"/>
    </TTGlyph>
    <TTGlyph name="Umacron" xMin="160" yMin="-10" xMax="1407" yMax="1827">
      <component glyphName="U" x="0" y="0" flags="0x1000"/>
      <component glyphName="macron" x="424" y="344" flags="0x1000"/>
    </TTGlyph>
    <TTGlyph name="Uogonek" xMin="160" yMin="-412" xMax="1407" yMax="1434">
      <contour>
        <pt x="1407" y="594" on="1"/>
        <pt x="1407" y="369" on="0"/>
        <pt x="1188" y="68" on="0"/>
        <pt x="991" y="14" on="1"/>
        <pt x="882" y="-144" on="0"/>
        <pt x="883" y="-215" on="1"/>
        <pt x="883" y="-246" on="0"/>
        <pt x="915" y="-281" on="0"/>
        <pt x="942" y="-281" on="1"/>
        <pt x="993" y="-281" on="0"/>
        <pt x="1044" y="-215" on="1"/>
        <pt x="1112" y="-295" on="1"/>
        <pt x="1077" y="-350" on="0"/>
        <pt x="975" y="-412" on="0"/>
        <pt x="918" y="-412" on="1"/>
        <pt x="852" y="-412" on="0"/>
        <pt x="756" y="-332" on="0"/>
        <pt x="756" y="-252" on="1"/>
        <pt x="756" y="-152" on="0"/>
        <pt x="854" y="-8" on="1"/>
        <pt x="831" y="-10" on="0"/>
        <pt x="784" y="-10" on="1"/>
        <pt x="591" y="-10" on="0"/>
        <pt x="311" y="135" on="0"/>
        <pt x="160" y="408" on="0"/>
        <pt x="160" y="594" on="1"/>
        <pt x="160" y="1434" on="1"/>
        <pt x="399" y="1434" on="1"/>
        <pt x="399" y="594" on="1"/>
        <pt x="399" y="414" on="0"/>
        <pt x="608" y="207" on="0"/>
        <pt x="786" y="207" on="1"/>
        <pt x="962" y="207" on="0"/>
        <pt x="1165" y="412" on="0"/>
        <pt x="1165" y="594" on="1"/>
        <pt x="1165" y="1434" on="1"/>
        <pt x="1407" y="1434" on="1"/>
      </contour>
    </TTGlyph>
    <TTGlyph name="Uring" xMin="160" yMin="-10" xMax="1407" yMax="1984">
      <component glyphName="U" x="0" y="0" flags="0x1000"/>
      <component glyphName="ring" x="424" y="344" flags="0x1000"/>
    </TTGlyph>
    <TTGlyph name="V" xMin="6" yMin="0" xMax="1407" yMax="1434">
      <contour>
        <pt x="578" y="0" on="1"/>
        <pt x="6" y="1434" on="1"/>
        <pt x="266" y="1434" on="1"/>
        <pt x="709" y="268" on="1"/>
        <pt x="1155" y="1434" on="1"/>
        <pt x="1407" y="1434" on="1"/>
        <pt x="827" y="0" on="1"/>
      </contour>
    </TTGlyph>
    <TTGlyph name="W" xMin="6" yMin="0" xMax="2142" yMax="1434">
      <contour>
        <pt x="1415" y="0" on="1"/>
        <pt x="1075" y="1118" on="1"/>
        <pt x="731" y="0" on="1"/>
        <pt x="481" y="0" on="1"/>
        <pt x="6" y="1434" on="1"/>
        <pt x="266" y="1434" on="1"/>
        <pt x="614" y="268" on="1"/>
        <pt x="961" y="1432" on="1"/>
        <pt x="1198" y="1434" on="1"/>
        <pt x="1546" y="268" on="1"/>
        <pt x="1892" y="1434" on="1"/>
        <pt x="2142" y="1434" on="1"/>
        <pt x="1663" y="0" on="1"/>
      </contour>
    </TTGlyph>
    <TTGlyph name="Wacute" xMin="6" yMin="0" xMax="2142" yMax="1892">
      <component glyphName="W" x="0" y="0" flags="0x1000"/>
      <component glyphName="acute" x="807" y="344" flags="0x1000"/>
    </TTGlyph>
    <TTGlyph name="Wcircumflex" xMin="6" yMin="0" xMax="2142" yMax="1884">
      <component glyphName="W" x="0" y="0" flags="0x1000"/>
      <component glyphName="circumflex" x="713" y="338" flags="0x1000"/>
    </TTGlyph>
    <TTGlyph name="Wdieresis" xMin="6" yMin="0" xMax="2142" yMax="1886">
      <contour>
        <pt x="944" y="1886" on="0"/>
        <pt x="1014" y="1812" on="0"/>
        <pt x="1014" y="1755" on="1"/>
        <pt x="1014" y="1700" on="0"/>
        <pt x="944" y="1626" on="0"/>
        <pt x="891" y="1626" on="1"/>
        <pt x="838" y="1626" on="0"/>
        <pt x="766" y="1700" on="0"/>
        <pt x="766" y="1755" on="1"/>
        <pt x="766" y="1812" on="0"/>
        <pt x="838" y="1886" on="0"/>
        <pt x="891" y="1886" on="1"/>
      </contour>
      <contour>
        <pt x="1307" y="1886" on="0"/>
        <pt x="1376" y="1812" on="0"/>
        <pt x="1376" y="1755" on="1"/>
        <pt x="1376" y="1700" on="0"/>
        <pt x="1307" y="1626" on="0"/>
        <pt x="1253" y="1626" on="1"/>
        <pt x="1200" y="1626" on="0"/>
        <pt x="1128" y="1700" on="0"/>
        <pt x="1128" y="1755" on="1"/>
        <pt x="1128" y="1812" on="0"/>
        <pt x="1200" y="1886" on="0"/>
        <pt x="1253" y="1886" on="1"/>
      </contour>
      <contour>
        <pt x="1415" y="0" on="1"/>
        <pt x="1075" y="1118" on="1"/>
        <pt x="731" y="0" on="1"/>
        <pt x="481" y="0" on="1"/>
        <pt x="6" y="1434" on="1"/>
        <pt x="266" y="1434" on="1"/>
        <pt x="614" y="268" on="1"/>
        <pt x="961" y="1432" on="1"/>
        <pt x="1198" y="1434" on="1"/>
        <pt x="1546" y="268" on="1"/>
        <pt x="1892" y="1434" on="1"/>
        <pt x="2142" y="1434" on="1"/>
        <pt x="1663" y="0" on="1"/>
      </contour>
    </TTGlyph>
    <TTGlyph name="Wgrave" xMin="6" yMin="0" xMax="2142" yMax="1894">
      <component glyphName="W" x="0" y="0" flags="0x1000"/>
      <component glyphName="grave" x="625" y="344" flags="0x1000"/>
    </TTGlyph>
    <TTGlyph name="X" xMin="31" yMin="0" xMax="1374" yMax="1434">
      <contour>
        <pt x="1374" y="0" on="1"/>
        <pt x="1085" y="0" on="1"/>
        <pt x="698" y="541" on="1"/>
        <pt x="313" y="0" on="1"/>
        <pt x="31" y="0" on="1"/>
        <pt x="553" y="735" on="1"/>
        <pt x="68" y="1434" on="1"/>
        <pt x="348" y="1434" on="1"/>
        <pt x="698" y="936" on="1"/>
        <pt x="1051" y="1434" on="1"/>
        <pt x="1333" y="1434" on="1"/>
        <pt x="852" y="745" on="1"/>
      </contour>
    </TTGlyph>
    <TTGlyph name="Y" xMin="2" yMin="0" xMax="1303" yMax="1434">
      <contour>
        <pt x="776" y="0" on="1"/>
        <pt x="537" y="0" on="1"/>
        <pt x="537" y="469" on="1"/>
        <pt x="2" y="1434" on="1"/>
        <pt x="246" y="1434" on="1"/>
        <pt x="655" y="735" on="1"/>
        <pt x="1057" y="1434" on="1"/>
        <pt x="1303" y="1434" on="1"/>
        <pt x="776" y="477" on="1"/>
      </contour>
    </TTGlyph>
    <TTGlyph name="Yacute" xMin="2" yMin="0" xMax="1303" yMax="1892">
      <component glyphName="Y" x="0" y="0" flags="0x1000"/>
      <component glyphName="acute" x="387" y="344" flags="0x1000"/>
    </TTGlyph>
    <TTGlyph name="Ycircumflex" xMin="2" yMin="0" xMax="1303" yMax="1884">
      <component glyphName="Y" x="0" y="0" flags="0x1000"/>
      <component glyphName="circumflex" x="293" y="338" flags="0x1000"/>
    </TTGlyph>
    <TTGlyph name="Ydieresis" xMin="2" yMin="0" xMax="1303" yMax="1886">
      <contour>
        <pt x="418" y="1626" on="0"/>
        <pt x="346" y="1700" on="0"/>
        <pt x="346" y="1755" on="1"/>
        <pt x="346" y="1812" on="0"/>
        <pt x="418" y="1886" on="0"/>
        <pt x="471" y="1886" on="1"/>
        <pt x="524" y="1886" on="0"/>
        <pt x="594" y="1812" on="0"/>
        <pt x="594" y="1755" on="1"/>
        <pt x="594" y="1700" on="0"/>
        <pt x="524" y="1626" on="0"/>
        <pt x="471" y="1626" on="1"/>
      </contour>
      <contour>
        <pt x="780" y="1626" on="0"/>
        <pt x="709" y="1700" on="0"/>
        <pt x="709" y="1755" on="1"/>
        <pt x="709" y="1812" on="0"/>
        <pt x="780" y="1886" on="0"/>
        <pt x="834" y="1886" on="1"/>
        <pt x="887" y="1886" on="0"/>
        <pt x="956" y="1812" on="0"/>
        <pt x="956" y="1755" on="1"/>
        <pt x="956" y="1700" on="0"/>
        <pt x="887" y="1626" on="0"/>
        <pt x="834" y="1626" on="1"/>
      </contour>
      <contour>
        <pt x="776" y="0" on="1"/>
        <pt x="537" y="0" on="1"/>
        <pt x="537" y="469" on="1"/>
        <pt x="2" y="1434" on="1"/>
        <pt x="246" y="1434" on="1"/>
        <pt x="655" y="735" on="1"/>
        <pt x="1057" y="1434" on="1"/>
        <pt x="1303" y="1434" on="1"/>
        <pt x="776" y="477" on="1"/>
      </contour>
    </TTGlyph>
    <TTGlyph name="Ygrave" xMin="2" yMin="0" xMax="1303" yMax="1894">
      <component glyphName="Y" x="0" y="0" flags="0x1000"/>
      <component glyphName="grave" x="205" y="344" flags="0x1000"/>
    </TTGlyph>
    <TTGlyph name="Z" xMin="76" yMin="0" xMax="1286" yMax="1434">
      <contour>
        <pt x="403" y="217" on="1"/>
        <pt x="1286" y="217" on="1"/>
        <pt x="1286" y="0" on="1"/>
        <pt x="76" y="0" on="1"/>
        <pt x="76" y="174" on="1"/>
        <pt x="950" y="1217" on="1"/>
        <pt x="102" y="1217" on="1"/>
        <pt x="102" y="1434" on="1"/>
        <pt x="1276" y="1434" on="1"/>
        <pt x="1276" y="1260" on="1"/>
      </contour>
    </TTGlyph>
    <TTGlyph name="Zacute" xMin="76" yMin="0" xMax="1286" yMax="1892">
      <component glyphName="Z" x="0" y="0" flags="0x1000"/>
      <component glyphName="acute" x="436" y="344" flags="0x1000"/>
    </TTGlyph>
    <TTGlyph name="Zcaron" xMin="76" yMin="0" xMax="1286" yMax="1884">
      <component glyphName="Z" x="0" y="0" flags="0x1000"/>
      <component glyphName="caron" x="336" y="338" flags="0x1000"/>
    </TTGlyph>
    <TTGlyph name="Zdotaccent" xMin="76" yMin="0" xMax="1286" yMax="1888">
      <component glyphName="Z" x="0" y="0" flags="0x1000"/>
      <component glyphName="dotaccent" x="342" y="344" flags="0x1000"/>
    </TTGlyph>
    <TTGlyph name="a" xMin="84" yMin="-10" xMax="1059" yMax="1098">
      <contour>
        <pt x="827" y="133" on="1"/>
        <pt x="710" y="-10" on="0"/>
        <pt x="467" y="-10" on="1"/>
        <pt x="352" y="-10" on="0"/>
        <pt x="178" y="78" on="0"/>
        <pt x="84" y="231" on="0"/>
        <pt x="84" y="328" on="1"/>
        <pt x="84" y="478" on="0"/>
        <pt x="301" y="653" on="0"/>
        <pt x="496" y="655" on="1"/>
        <pt x="825" y="655" on="1"/>
        <pt x="825" y="688" on="1"/>
        <pt x="825" y="792" on="0"/>
        <pt x="692" y="907" on="0"/>
        <pt x="565" y="907" on="1"/>
        <pt x="407" y="907" on="0"/>
        <pt x="244" y="797" on="1"/>
        <pt x="147" y="961" on="1"/>
        <pt x="272" y="1035" on="0"/>
        <pt x="471" y="1098" on="0"/>
        <pt x="616" y="1098" on="1"/>
        <pt x="825" y="1098" on="0"/>
        <pt x="1055" y="895" on="0"/>
        <pt x="1057" y="715" on="1"/>
        <pt x="1059" y="0" on="1"/>
        <pt x="827" y="0" on="1"/>
      </contour>
      <contour>
        <pt x="641" y="176" on="0"/>
        <pt x="815" y="293" on="0"/>
        <pt x="825" y="383" on="1"/>
        <pt x="825" y="483" on="1"/>
        <pt x="530" y="483" on="1"/>
        <pt x="413" y="483" on="0"/>
        <pt x="305" y="416" on="0"/>
        <pt x="305" y="338" on="1"/>
        <pt x="305" y="264" on="0"/>
        <pt x="418" y="176" on="0"/>
        <pt x="516" y="176" on="1"/>
      </contour>
    </TTGlyph>
    <TTGlyph name="aacute" xMin="84" yMin="-10" xMax="1059" yMax="1548">
      <component glyphName="a" x="0" y="0" flags="0x1000"/>
      <component glyphName="acute" x="330" y="0" flags="0x1000"/>
    </TTGlyph>
    <TTGlyph name="abreve" xMin="84" yMin="-10" xMax="1059" yMax="1532">
      <component glyphName="a" x="0" y="0" flags="0x1000"/>
      <component glyphName="breve" x="236" y="-2" flags="0x1000"/>
    </TTGlyph>
    <TTGlyph name="acircumflex" xMin="84" yMin="-10" xMax="1059" yMax="1540">
      <component glyphName="a" x="0" y="0" flags="0x1000"/>
      <component glyphName="circumflex" x="236" y="-6" flags="0x1000"/>
    </TTGlyph>
    <TTGlyph name="acute" xMin="127" yMin="1245" xMax="586" yMax="1548">
      <contour>
        <pt x="336" y="1245" on="1"/>
        <pt x="127" y="1245" on="1"/>
        <pt x="344" y="1548" on="1"/>
        <pt x="586" y="1446" on="1"/>
      </contour>
    </TTGlyph>
    <TTGlyph name="adieresis" xMin="84" yMin="-10" xMax="1059" yMax="1542">
      <contour>
        <pt x="360" y="1282" on="0"/>
        <pt x="289" y="1356" on="0"/>
        <pt x="289" y="1411" on="1"/>
        <pt x="289" y="1468" on="0"/>
        <pt x="360" y="1542" on="0"/>
        <pt x="414" y="1542" on="1"/>
        <pt x="467" y="1542" on="0"/>
        <pt x="537" y="1468" on="0"/>
        <pt x="537" y="1411" on="1"/>
        <pt x="537" y="1356" on="0"/>
        <pt x="467" y="1282" on="0"/>
        <pt x="414" y="1282" on="1"/>
      </contour>
      <contour>
        <pt x="723" y="1282" on="0"/>
        <pt x="651" y="1356" on="0"/>
        <pt x="651" y="1411" on="1"/>
        <pt x="651" y="1468" on="0"/>
        <pt x="723" y="1542" on="0"/>
        <pt x="776" y="1542" on="1"/>
        <pt x="829" y="1542" on="0"/>
        <pt x="899" y="1468" on="0"/>
        <pt x="899" y="1411" on="1"/>
        <pt x="899" y="1356" on="0"/>
        <pt x="829" y="1282" on="0"/>
        <pt x="776" y="1282" on="1"/>
      </contour>
      <contour>
        <pt x="827" y="133" on="1"/>
        <pt x="710" y="-10" on="0"/>
        <pt x="467" y="-10" on="1"/>
        <pt x="352" y="-10" on="0"/>
        <pt x="178" y="78" on="0"/>
        <pt x="84" y="231" on="0"/>
        <pt x="84" y="328" on="1"/>
        <pt x="84" y="478" on="0"/>
        <pt x="301" y="653" on="0"/>
        <pt x="496" y="655" on="1"/>
        <pt x="825" y="655" on="1"/>
        <pt x="825" y="688" on="1"/>
        <pt x="825" y="792" on="0"/>
        <pt x="692" y="907" on="0"/>
        <pt x="565" y="907" on="1"/>
        <pt x="407" y="907" on="0"/>
        <pt x="244" y="797" on="1"/>
        <pt x="147" y="961" on="1"/>
        <pt x="272" y="1035" on="0"/>
        <pt x="471" y="1098" on="0"/>
        <pt x="616" y="1098" on="1"/>
        <pt x="825" y="1098" on="0"/>
        <pt x="1055" y="895" on="0"/>
        <pt x="1057" y="715" on="1"/>
        <pt x="1059" y="0" on="1"/>
        <pt x="827" y="0" on="1"/>
      </contour>
      <contour>
        <pt x="641" y="176" on="0"/>
        <pt x="815" y="293" on="0"/>
        <pt x="825" y="383" on="1"/>
        <pt x="825" y="483" on="1"/>
        <pt x="530" y="483" on="1"/>
        <pt x="413" y="483" on="0"/>
        <pt x="305" y="416" on="0"/>
        <pt x="305" y="338" on="1"/>
        <pt x="305" y="264" on="0"/>
        <pt x="418" y="176" on="0"/>
        <pt x="516" y="176" on="1"/>
      </contour>
    </TTGlyph>
    <TTGlyph name="ae" xMin="84" yMin="-10" xMax="1933" yMax="1098">
      <contour>
        <pt x="1554" y="1098" on="0"/>
        <pt x="1804" y="946" on="0"/>
        <pt x="1933" y="672" on="0"/>
        <pt x="1927" y="494" on="1"/>
        <pt x="1067" y="494" on="1"/>
        <pt x="1085" y="351" on="0"/>
        <pt x="1272" y="182" on="0"/>
        <pt x="1411" y="182" on="1"/>
        <pt x="1499" y="182" on="0"/>
        <pt x="1659" y="248" on="0"/>
        <pt x="1718" y="309" on="1"/>
        <pt x="1845" y="176" on="1"/>
        <pt x="1763" y="88" on="0"/>
        <pt x="1532" y="-8" on="0"/>
        <pt x="1393" y="-8" on="1"/>
        <pt x="1233" y="-8" on="0"/>
        <pt x="993" y="129" on="0"/>
        <pt x="930" y="254" on="1"/>
        <pt x="864" y="123" on="0"/>
        <pt x="627" y="-10" on="0"/>
        <pt x="465" y="-10" on="1"/>
        <pt x="291" y="-10" on="0"/>
        <pt x="84" y="172" on="0"/>
        <pt x="84" y="317" on="1"/>
        <pt x="84" y="464" on="0"/>
        <pt x="301" y="625" on="0"/>
        <pt x="498" y="627" on="1"/>
        <pt x="829" y="627" on="1"/>
        <pt x="829" y="688" on="1"/>
        <pt x="829" y="792" on="0"/>
        <pt x="694" y="907" on="0"/>
        <pt x="567" y="907" on="1"/>
        <pt x="393" y="907" on="0"/>
        <pt x="207" y="797" on="1"/>
        <pt x="147" y="967" on="1"/>
        <pt x="387" y="1098" on="0"/>
        <pt x="616" y="1098" on="1"/>
        <pt x="749" y="1098" on="0"/>
        <pt x="944" y="1014" on="0"/>
        <pt x="999" y="934" on="1"/>
        <pt x="1069" y="1014" on="0"/>
        <pt x="1266" y="1098" on="0"/>
        <pt x="1386" y="1098" on="1"/>
      </contour>
      <contour>
        <pt x="1688" y="756" on="0"/>
        <pt x="1522" y="926" on="0"/>
        <pt x="1389" y="926" on="1"/>
        <pt x="1260" y="926" on="0"/>
        <pt x="1085" y="756" on="0"/>
        <pt x="1067" y="621" on="1"/>
        <pt x="1692" y="621" on="1"/>
      </contour>
      <contour>
        <pt x="887" y="362" on="0"/>
        <pt x="879" y="399" on="1"/>
        <pt x="831" y="410" on="1"/>
        <pt x="831" y="500" on="1"/>
        <pt x="543" y="500" on="1"/>
        <pt x="428" y="500" on="0"/>
        <pt x="305" y="416" on="0"/>
        <pt x="305" y="338" on="1"/>
        <pt x="305" y="256" on="0"/>
        <pt x="422" y="156" on="0"/>
        <pt x="518" y="156" on="1"/>
        <pt x="756" y="156" on="0"/>
        <pt x="848" y="383" on="1"/>
        <pt x="893" y="344" on="1"/>
      </contour>
    </TTGlyph>
    <TTGlyph name="agrave" xMin="84" yMin="-10" xMax="1059" yMax="1550">
      <component glyphName="a" x="0" y="0" flags="0x1000"/>
      <component glyphName="grave" x="147" y="0" flags="0x1000"/>
    </TTGlyph>
    <TTGlyph name="amacron" xMin="84" yMin="-10" xMax="1059" yMax="1483">
      <component glyphName="a" x="0" y="0" flags="0x1000"/>
      <component glyphName="macron" x="236" y="0" flags="0x1000"/>
    </TTGlyph>
    <TTGlyph name="ampersand" xMin="117" yMin="-39" xMax="1343" yMax="1444">
      <contour>
        <pt x="999" y="180" on="1"/>
        <pt x="798" y="-10" on="0"/>
        <pt x="567" y="-10" on="1"/>
        <pt x="440" y="-10" on="0"/>
        <pt x="236" y="94" on="0"/>
        <pt x="117" y="276" on="0"/>
        <pt x="117" y="391" on="1"/>
        <pt x="117" y="530" on="0"/>
        <pt x="281" y="711" on="0"/>
        <pt x="426" y="788" on="1"/>
        <pt x="354" y="884" on="0"/>
        <pt x="289" y="1044" on="0"/>
        <pt x="289" y="1120" on="1"/>
        <pt x="289" y="1263" on="0"/>
        <pt x="496" y="1444" on="0"/>
        <pt x="662" y="1444" on="1"/>
        <pt x="822" y="1444" on="0"/>
        <pt x="1024" y="1276" on="0"/>
        <pt x="1024" y="1143" on="1"/>
        <pt x="1024" y="1051" on="0"/>
        <pt x="930" y="909" on="0"/>
        <pt x="784" y="809" on="0"/>
        <pt x="676" y="752" on="1"/>
        <pt x="778" y="635" on="0"/>
        <pt x="977" y="440" on="1"/>
        <pt x="1051" y="551" on="0"/>
        <pt x="1106" y="698" on="1"/>
        <pt x="1260" y="584" on="1"/>
        <pt x="1192" y="422" on="0"/>
        <pt x="1110" y="311" on="1"/>
        <pt x="1343" y="84" on="1"/>
        <pt x="1223" y="-39" on="1"/>
      </contour>
      <contour>
        <pt x="476" y="1013" on="0"/>
        <pt x="582" y="868" on="1"/>
        <pt x="707" y="934" on="0"/>
        <pt x="838" y="1055" on="0"/>
        <pt x="838" y="1141" on="1"/>
        <pt x="838" y="1213" on="0"/>
        <pt x="743" y="1296" on="0"/>
        <pt x="664" y="1296" on="1"/>
        <pt x="580" y="1296" on="0"/>
        <pt x="475" y="1198" on="0"/>
        <pt x="475" y="1122" on="1"/>
      </contour>
      <contour>
        <pt x="727" y="168" on="0"/>
        <pt x="870" y="307" on="1"/>
        <pt x="626" y="551" on="0"/>
        <pt x="522" y="670" on="1"/>
        <pt x="422" y="613" on="0"/>
        <pt x="311" y="492" on="0"/>
        <pt x="311" y="410" on="1"/>
        <pt x="311" y="304" on="0"/>
        <pt x="463" y="168" on="0"/>
        <pt x="575" y="168" on="1"/>
      </contour>
    </TTGlyph>
    <TTGlyph name="aogonek" xMin="84" yMin="-412" xMax="1116" yMax="1098">
      <contour>
        <pt x="825" y="1098" on="0"/>
        <pt x="1055" y="895" on="0"/>
        <pt x="1059" y="715" on="1"/>
        <pt x="1059" y="0" on="1"/>
        <pt x="989" y="0" on="1"/>
        <pt x="887" y="-141" on="0"/>
        <pt x="887" y="-215" on="1"/>
        <pt x="887" y="-246" on="0"/>
        <pt x="920" y="-281" on="0"/>
        <pt x="948" y="-281" on="1"/>
        <pt x="997" y="-281" on="0"/>
        <pt x="1049" y="-215" on="1"/>
        <pt x="1116" y="-295" on="1"/>
        <pt x="1081" y="-350" on="0"/>
        <pt x="979" y="-412" on="0"/>
        <pt x="922" y="-412" on="1"/>
        <pt x="856" y="-412" on="0"/>
        <pt x="760" y="-332" on="0"/>
        <pt x="760" y="-252" on="1"/>
        <pt x="760" y="-146" on="0"/>
        <pt x="870" y="0" on="1"/>
        <pt x="827" y="0" on="1"/>
        <pt x="827" y="133" on="1"/>
        <pt x="710" y="-10" on="0"/>
        <pt x="467" y="-10" on="1"/>
        <pt x="350" y="-10" on="0"/>
        <pt x="176" y="78" on="0"/>
        <pt x="84" y="231" on="0"/>
        <pt x="84" y="328" on="1"/>
        <pt x="84" y="478" on="0"/>
        <pt x="301" y="653" on="0"/>
        <pt x="494" y="655" on="1"/>
        <pt x="825" y="655" on="1"/>
        <pt x="825" y="688" on="1"/>
        <pt x="823" y="792" on="0"/>
        <pt x="692" y="907" on="0"/>
        <pt x="563" y="907" on="1"/>
        <pt x="407" y="907" on="0"/>
        <pt x="244" y="797" on="1"/>
        <pt x="147" y="961" on="1"/>
        <pt x="272" y="1035" on="0"/>
        <pt x="469" y="1098" on="0"/>
        <pt x="616" y="1098" on="1"/>
      </contour>
      <contour>
        <pt x="412" y="483" on="0"/>
        <pt x="305" y="416" on="0"/>
        <pt x="305" y="338" on="1"/>
        <pt x="305" y="264" on="0"/>
        <pt x="418" y="176" on="0"/>
        <pt x="516" y="176" on="1"/>
        <pt x="596" y="176" on="0"/>
        <pt x="737" y="233" on="0"/>
        <pt x="825" y="328" on="0"/>
        <pt x="827" y="381" on="1"/>
        <pt x="827" y="483" on="1"/>
        <pt x="530" y="483" on="1"/>
      </contour>
    </TTGlyph>
    <TTGlyph name="approxequal" xMin="135" yMin="295" xMax="887" yMax="1047">
      <contour>
        <pt x="383" y="1047" on="0"/>
        <pt x="463" y="1014" on="0"/>
        <pt x="524" y="979" on="1"/>
        <pt x="604" y="930" on="0"/>
        <pt x="645" y="930" on="1"/>
        <pt x="684" y="930" on="0"/>
        <pt x="725" y="983" on="0"/>
        <pt x="725" y="1034" on="1"/>
        <pt x="887" y="1034" on="1"/>
        <pt x="887" y="747" on="0"/>
        <pt x="688" y="748" on="1"/>
        <pt x="637" y="748" on="0"/>
        <pt x="551" y="782" on="0"/>
        <pt x="494" y="817" on="1"/>
        <pt x="453" y="842" on="0"/>
        <pt x="403" y="864" on="0"/>
        <pt x="379" y="864" on="1"/>
        <pt x="299" y="864" on="0"/>
        <pt x="299" y="760" on="1"/>
        <pt x="135" y="760" on="1"/>
        <pt x="135" y="1047" on="0"/>
        <pt x="334" y="1047" on="1"/>
      </contour>
      <contour>
        <pt x="383" y="596" on="0"/>
        <pt x="463" y="563" on="0"/>
        <pt x="524" y="528" on="1"/>
        <pt x="604" y="479" on="0"/>
        <pt x="645" y="479" on="1"/>
        <pt x="725" y="479" on="0"/>
        <pt x="725" y="582" on="1"/>
        <pt x="887" y="582" on="1"/>
        <pt x="887" y="295" on="0"/>
        <pt x="688" y="295" on="1"/>
        <pt x="637" y="295" on="0"/>
        <pt x="551" y="330" on="0"/>
        <pt x="494" y="365" on="1"/>
        <pt x="453" y="390" on="0"/>
        <pt x="403" y="412" on="0"/>
        <pt x="379" y="412" on="1"/>
        <pt x="299" y="412" on="0"/>
        <pt x="299" y="309" on="1"/>
        <pt x="135" y="309" on="1"/>
        <pt x="135" y="596" on="0"/>
        <pt x="334" y="596" on="1"/>
      </contour>
    </TTGlyph>
    <TTGlyph name="aring" xMin="84" yMin="-10" xMax="1059" yMax="1640">
      <component glyphName="a" x="0" y="0" flags="0x1000"/>
      <component glyphName="ring" x="236" y="0" flags="0x1000"/>
    </TTGlyph>
    <TTGlyph name="asciicircum" xMin="75" yMin="270" xMax="1044" yMax="1077">
      <component glyphName="less" x="-107" y="1143" scalex="0.0" scale01="-0.919982910156" scale10="1.0" scaley="0.0" flags="0x1000"/>
    </TTGlyph>
    <TTGlyph name="asciitilde" xMin="135" yMin="508" xMax="887" yMax="809">
      <contour>
        <pt x="383" y="809" on="0"/>
        <pt x="463" y="776" on="0"/>
        <pt x="524" y="741" on="1"/>
        <pt x="604" y="692" on="0"/>
        <pt x="645" y="692" on="1"/>
        <pt x="725" y="692" on="0"/>
        <pt x="725" y="795" on="1"/>
        <pt x="887" y="795" on="1"/>
        <pt x="887" y="508" on="0"/>
        <pt x="688" y="508" on="1"/>
        <pt x="637" y="508" on="0"/>
        <pt x="551" y="543" on="0"/>
        <pt x="494" y="578" on="1"/>
        <pt x="453" y="603" on="0"/>
        <pt x="403" y="625" on="0"/>
        <pt x="379" y="625" on="1"/>
        <pt x="299" y="625" on="0"/>
        <pt x="299" y="522" on="1"/>
        <pt x="135" y="522" on="1"/>
        <pt x="135" y="809" on="0"/>
        <pt x="334" y="809" on="1"/>
      </contour>
    </TTGlyph>
    <TTGlyph name="asterisk" xMin="51" yMin="836" xMax="659" yMax="1477">
      <contour>
        <pt x="418" y="836" on="1"/>
        <pt x="295" y="836" on="1"/>
        <pt x="297" y="1047" on="1"/>
        <pt x="115" y="940" on="1"/>
        <pt x="51" y="1053" on="1"/>
        <pt x="236" y="1157" on="1"/>
        <pt x="51" y="1257" on="1"/>
        <pt x="115" y="1374" on="1"/>
        <pt x="297" y="1266" on="1"/>
        <pt x="295" y="1477" on="1"/>
        <pt x="418" y="1477" on="1"/>
        <pt x="416" y="1266" on="1"/>
        <pt x="598" y="1372" on="1"/>
        <pt x="659" y="1257" on="1"/>
        <pt x="475" y="1157" on="1"/>
        <pt x="659" y="1053" on="1"/>
        <pt x="598" y="938" on="1"/>
        <pt x="416" y="1047" on="1"/>
      </contour>
    </TTGlyph>
    <TTGlyph name="at" xMin="70" yMin="-313" xMax="1925" yMax="1438">
      <contour>
        <pt x="1270" y="1438" on="0"/>
        <pt x="1688" y="1210" on="0"/>
        <pt x="1925" y="809" on="0"/>
        <pt x="1925" y="557" on="1"/>
        <pt x="1925" y="405" on="0"/>
        <pt x="1825" y="174" on="0"/>
        <pt x="1649" y="47" on="0"/>
        <pt x="1534" y="47" on="1"/>
        <pt x="1438" y="47" on="0"/>
        <pt x="1313" y="129" on="0"/>
        <pt x="1296" y="213" on="1"/>
        <pt x="1292" y="254" on="1"/>
        <pt x="1231" y="164" on="0"/>
        <pt x="1049" y="72" on="0"/>
        <pt x="940" y="72" on="1"/>
        <pt x="815" y="72" on="0"/>
        <pt x="598" y="193" on="0"/>
        <pt x="467" y="412" on="0"/>
        <pt x="467" y="551" on="1"/>
        <pt x="467" y="686" on="0"/>
        <pt x="580" y="909" on="0"/>
        <pt x="784" y="1040" on="0"/>
        <pt x="918" y="1040" on="1"/>
        <pt x="1000" y="1040" on="0"/>
        <pt x="1139" y="985" on="0"/>
        <pt x="1229" y="913" on="0"/>
        <pt x="1241" y="887" on="1"/>
        <pt x="1241" y="1020" on="1"/>
        <pt x="1462" y="1020" on="1"/>
        <pt x="1462" y="305" on="1"/>
        <pt x="1462" y="250" on="0"/>
        <pt x="1513" y="195" on="0"/>
        <pt x="1556" y="195" on="1"/>
        <pt x="1607" y="195" on="0"/>
        <pt x="1696" y="287" on="0"/>
        <pt x="1749" y="449" on="0"/>
        <pt x="1749" y="551" on="1"/>
        <pt x="1749" y="756" on="0"/>
        <pt x="1567" y="1083" on="0"/>
        <pt x="1233" y="1272" on="0"/>
        <pt x="1010" y="1272" on="1"/>
        <pt x="801" y="1272" on="0"/>
        <pt x="451" y="1079" on="0"/>
        <pt x="246" y="745" on="0"/>
        <pt x="246" y="547" on="1"/>
        <pt x="246" y="350" on="0"/>
        <pt x="440" y="35" on="0"/>
        <pt x="776" y="-143" on="0"/>
        <pt x="983" y="-143" on="1"/>
        <pt x="1079" y="-143" on="0"/>
        <pt x="1296" y="-82" on="0"/>
        <pt x="1378" y="-23" on="1"/>
        <pt x="1462" y="-172" on="1"/>
        <pt x="1374" y="-235" on="0"/>
        <pt x="1102" y="-313" on="0"/>
        <pt x="983" y="-313" on="1"/>
        <pt x="727" y="-313" on="0"/>
        <pt x="309" y="-90" on="0"/>
        <pt x="70" y="303" on="0"/>
        <pt x="70" y="547" on="1"/>
        <pt x="70" y="795" on="0"/>
        <pt x="319" y="1202" on="0"/>
        <pt x="750" y="1438" on="0"/>
        <pt x="1010" y="1438" on="1"/>
      </contour>
      <contour>
        <pt x="848" y="836" on="0"/>
        <pt x="707" y="678" on="0"/>
        <pt x="707" y="561" on="1"/>
        <pt x="707" y="440" on="0"/>
        <pt x="850" y="272" on="0"/>
        <pt x="965" y="272" on="1"/>
        <pt x="1084" y="272" on="0"/>
        <pt x="1227" y="436" on="0"/>
        <pt x="1227" y="559" on="1"/>
        <pt x="1227" y="678" on="0"/>
        <pt x="1079" y="836" on="0"/>
        <pt x="961" y="836" on="1"/>
      </contour>
    </TTGlyph>
    <TTGlyph name="atilde" xMin="84" yMin="-10" xMax="1059" yMax="1552">
      <component glyphName="a" x="0" y="0" flags="0x1000"/>
      <component glyphName="tilde" x="236" y="0" flags="0x1000"/>
    </TTGlyph>
    <TTGlyph name="b" xMin="184" yMin="-8" xMax="1321" yMax="1520">
      <contour>
        <pt x="954" y="1098" on="0"/>
        <pt x="1190" y="958" on="0"/>
        <pt x="1321" y="705" on="0"/>
        <pt x="1321" y="541" on="1"/>
        <pt x="1321" y="379" on="0"/>
        <pt x="1192" y="129" on="0"/>
        <pt x="958" y="-8" on="0"/>
        <pt x="805" y="-8" on="1"/>
        <pt x="676" y="-8" on="0"/>
        <pt x="479" y="92" on="0"/>
        <pt x="420" y="188" on="1"/>
        <pt x="420" y="0" on="1"/>
        <pt x="184" y="0" on="1"/>
        <pt x="184" y="1520" on="1"/>
        <pt x="420" y="1520" on="1"/>
        <pt x="420" y="901" on="1"/>
        <pt x="479" y="997" on="0"/>
        <pt x="674" y="1098" on="0"/>
        <pt x="801" y="1098" on="1"/>
      </contour>
      <contour>
        <pt x="848" y="193" on="0"/>
        <pt x="999" y="283" on="0"/>
        <pt x="1083" y="446" on="0"/>
        <pt x="1083" y="549" on="1"/>
        <pt x="1083" y="649" on="0"/>
        <pt x="999" y="809" on="0"/>
        <pt x="848" y="901" on="0"/>
        <pt x="752" y="901" on="1"/>
        <pt x="656" y="901" on="0"/>
        <pt x="504" y="811" on="0"/>
        <pt x="420" y="649" on="0"/>
        <pt x="420" y="549" on="1"/>
        <pt x="420" y="391" on="0"/>
        <pt x="606" y="193" on="0"/>
        <pt x="752" y="193" on="1"/>
      </contour>
    </TTGlyph>
    <TTGlyph name="backslash" xMin="266" yMin="-240" xMax="1116" yMax="1671">
      <component glyphName="slash" x="1073" y="0" scalex="-1.0" scaley="1.0" flags="0x1000"/>
    </TTGlyph>
    <TTGlyph name="bar" xMin="186" yMin="-238" xMax="365" yMax="1659">
      <contour>
        <pt x="186" y="-238" on="1"/>
        <pt x="186" y="1659" on="1"/>
        <pt x="365" y="1659" on="1"/>
        <pt x="365" y="-238" on="1"/>
      </contour>
    </TTGlyph>
    <TTGlyph name="braceleft" xMin="74" yMin="-258" xMax="633" yMax="1522">
      <contour>
        <pt x="438" y="754" on="0"/>
        <pt x="373" y="651" on="0"/>
        <pt x="295" y="631" on="1"/>
        <pt x="373" y="613" on="0"/>
        <pt x="438" y="510" on="0"/>
        <pt x="438" y="412" on="1"/>
        <pt x="438" y="76" on="1"/>
        <pt x="438" y="-2" on="0"/>
        <pt x="526" y="-70" on="0"/>
        <pt x="633" y="-70" on="1"/>
        <pt x="633" y="-258" on="1"/>
        <pt x="545" y="-258" on="1"/>
        <pt x="373" y="-258" on="0"/>
        <pt x="225" y="-139" on="0"/>
        <pt x="225" y="4" on="1"/>
        <pt x="225" y="426" on="1"/>
        <pt x="225" y="483" on="0"/>
        <pt x="184" y="535" on="0"/>
        <pt x="137" y="535" on="1"/>
        <pt x="74" y="535" on="1"/>
        <pt x="74" y="729" on="1"/>
        <pt x="137" y="729" on="1"/>
        <pt x="184" y="729" on="0"/>
        <pt x="225" y="780" on="0"/>
        <pt x="225" y="838" on="1"/>
        <pt x="225" y="1262" on="1"/>
        <pt x="225" y="1403" on="0"/>
        <pt x="373" y="1522" on="0"/>
        <pt x="545" y="1522" on="1"/>
        <pt x="633" y="1522" on="1"/>
        <pt x="633" y="1333" on="1"/>
        <pt x="527" y="1333" on="0"/>
        <pt x="438" y="1266" on="0"/>
        <pt x="438" y="1188" on="1"/>
        <pt x="438" y="852" on="1"/>
      </contour>
    </TTGlyph>
    <TTGlyph name="braceright" xMin="264" yMin="-258" xMax="823" yMax="1522">
      <component glyphName="braceleft" x="897" y="0" scalex="-1.0" scaley="1.0" flags="0x1000"/>
    </TTGlyph>
    <TTGlyph name="bracketleft" xMin="188" yMin="-254" xMax="653" yMax="1520">
      <contour>
        <pt x="399" y="1331" on="1"/>
        <pt x="399" y="-66" on="1"/>
        <pt x="653" y="-66" on="1"/>
        <pt x="653" y="-254" on="1"/>
        <pt x="188" y="-254" on="1"/>
        <pt x="188" y="1520" on="1"/>
        <pt x="653" y="1520" on="1"/>
        <pt x="653" y="1331" on="1"/>
      </contour>
    </TTGlyph>
    <TTGlyph name="bracketright" xMin="316" yMin="-254" xMax="781" yMax="1520">
      <component glyphName="bracketleft" x="969" y="0" scalex="-1.0" scaley="1.0" flags="0x1000"/>
    </TTGlyph>
    <TTGlyph name="breve" xMin="70" yMin="1243" xMax="647" yMax="1534">
      <contour>
        <pt x="643" y="1405" on="0"/>
        <pt x="481" y="1243" on="0"/>
        <pt x="358" y="1243" on="1"/>
        <pt x="235" y="1243" on="0"/>
        <pt x="74" y="1405" on="0"/>
        <pt x="70" y="1534" on="1"/>
        <pt x="229" y="1534" on="1"/>
        <pt x="233" y="1475" on="0"/>
        <pt x="305" y="1401" on="0"/>
        <pt x="358" y="1401" on="1"/>
        <pt x="411" y="1401" on="0"/>
        <pt x="483" y="1475" on="0"/>
        <pt x="487" y="1534" on="1"/>
        <pt x="647" y="1534" on="1"/>
      </contour>
    </TTGlyph>
    <TTGlyph name="brokenbar" xMin="186" yMin="-238" xMax="365" yMax="1659">
      <contour>
        <pt x="186" y="950" on="1"/>
        <pt x="186" y="1659" on="1"/>
        <pt x="365" y="1659" on="1"/>
        <pt x="365" y="950" on="1"/>
      </contour>
      <contour>
        <pt x="186" y="-238" on="1"/>
        <pt x="186" y="471" on="1"/>
        <pt x="365" y="471" on="1"/>
        <pt x="365" y="-238" on="1"/>
      </contour>
    </TTGlyph>
    <TTGlyph name="bullet" xMin="94" yMin="344" xMax="481" yMax="750">
      <contour>
        <pt x="371" y="750" on="0"/>
        <pt x="481" y="637" on="0"/>
        <pt x="481" y="549" on="1"/>
        <pt x="481" y="461" on="0"/>
        <pt x="371" y="344" on="0"/>
        <pt x="287" y="344" on="1"/>
        <pt x="205" y="344" on="0"/>
        <pt x="94" y="461" on="0"/>
        <pt x="94" y="549" on="1"/>
        <pt x="94" y="637" on="0"/>
        <pt x="203" y="750" on="0"/>
        <pt x="287" y="750" on="1"/>
      </contour>
    </TTGlyph>
    <TTGlyph name="bulletoperator" xMin="94" yMin="344" xMax="481" yMax="750">
      <contour>
        <pt x="371" y="750" on="0"/>
        <pt x="481" y="637" on="0"/>
        <pt x="481" y="549" on="1"/>
        <pt x="481" y="461" on="0"/>
        <pt x="371" y="344" on="0"/>
        <pt x="287" y="344" on="1"/>
        <pt x="205" y="344" on="0"/>
        <pt x="94" y="461" on="0"/>
        <pt x="94" y="549" on="1"/>
        <pt x="94" y="637" on="0"/>
        <pt x="203" y="750" on="0"/>
        <pt x="287" y="750" on="1"/>
      </contour>
    </TTGlyph>
    <TTGlyph name="c" xMin="72" yMin="-8" xMax="1083" yMax="1098">
      <contour>
        <pt x="766" y="1098" on="0"/>
        <pt x="995" y="1006" on="0"/>
        <pt x="1071" y="920" on="1"/>
        <pt x="942" y="768" on="1"/>
        <pt x="823" y="891" on="0"/>
        <pt x="639" y="891" on="1"/>
        <pt x="494" y="891" on="0"/>
        <pt x="307" y="698" on="0"/>
        <pt x="307" y="543" on="1"/>
        <pt x="307" y="389" on="0"/>
        <pt x="489" y="195" on="0"/>
        <pt x="631" y="195" on="1"/>
        <pt x="840" y="195" on="0"/>
        <pt x="952" y="326" on="1"/>
        <pt x="1083" y="195" on="1"/>
        <pt x="1009" y="97" on="0"/>
        <pt x="774" y="-8" on="0"/>
        <pt x="621" y="-8" on="1"/>
        <pt x="461" y="-8" on="0"/>
        <pt x="211" y="131" on="0"/>
        <pt x="72" y="381" on="0"/>
        <pt x="72" y="543" on="1"/>
        <pt x="72" y="707" on="0"/>
        <pt x="211" y="958" on="0"/>
        <pt x="461" y="1098" on="0"/>
        <pt x="621" y="1098" on="1"/>
      </contour>
    </TTGlyph>
    <TTGlyph name="cacute" xMin="72" yMin="-8" xMax="1083" yMax="1548">
      <component glyphName="c" x="0" y="0" flags="0x1000"/>
      <component glyphName="acute" x="326" y="0" flags="0x1000"/>
    </TTGlyph>
    <TTGlyph name="caron" xMin="20" yMin="1239" xMax="696" yMax="1546">
      <contour>
        <pt x="229" y="1546" on="1"/>
        <pt x="358" y="1356" on="1"/>
        <pt x="487" y="1546" on="1"/>
        <pt x="696" y="1546" on="1"/>
        <pt x="475" y="1239" on="1"/>
        <pt x="242" y="1239" on="1"/>
        <pt x="20" y="1546" on="1"/>
      </contour>
    </TTGlyph>
    <TTGlyph name="ccaron" xMin="72" yMin="-8" xMax="1083" yMax="1540">
      <component glyphName="c" x="0" y="0" flags="0x1000"/>
      <component glyphName="caron" x="225" y="-6" flags="0x1000"/>
    </TTGlyph>
    <TTGlyph name="ccedilla" xMin="72" yMin="-459" xMax="1083" yMax="1098">
      <contour>
        <pt x="1018" y="109" on="0"/>
        <pt x="819" y="6" on="0"/>
        <pt x="694" y="-4" on="1"/>
        <pt x="647" y="-102" on="1"/>
        <pt x="713" y="-114" on="0"/>
        <pt x="791" y="-199" on="0"/>
        <pt x="791" y="-264" on="1"/>
        <pt x="791" y="-352" on="0"/>
        <pt x="666" y="-459" on="0"/>
        <pt x="573" y="-459" on="1"/>
        <pt x="524" y="-459" on="0"/>
        <pt x="430" y="-428" on="0"/>
        <pt x="393" y="-401" on="1"/>
        <pt x="438" y="-291" on="1"/>
        <pt x="491" y="-332" on="0"/>
        <pt x="557" y="-332" on="1"/>
        <pt x="600" y="-332" on="0"/>
        <pt x="651" y="-281" on="0"/>
        <pt x="651" y="-248" on="1"/>
        <pt x="651" y="-215" on="0"/>
        <pt x="600" y="-170" on="0"/>
        <pt x="553" y="-170" on="1"/>
        <pt x="518" y="-170" on="0"/>
        <pt x="481" y="-180" on="1"/>
        <pt x="555" y="-4" on="1"/>
        <pt x="412" y="8" on="0"/>
        <pt x="193" y="154" on="0"/>
        <pt x="72" y="391" on="0"/>
        <pt x="72" y="543" on="1"/>
        <pt x="72" y="707" on="0"/>
        <pt x="211" y="958" on="0"/>
        <pt x="461" y="1098" on="0"/>
        <pt x="621" y="1098" on="1"/>
        <pt x="766" y="1098" on="0"/>
        <pt x="995" y="1006" on="0"/>
        <pt x="1071" y="920" on="1"/>
        <pt x="942" y="768" on="1"/>
        <pt x="823" y="891" on="0"/>
        <pt x="639" y="891" on="1"/>
        <pt x="494" y="891" on="0"/>
        <pt x="307" y="698" on="0"/>
        <pt x="307" y="543" on="1"/>
        <pt x="307" y="389" on="0"/>
        <pt x="489" y="195" on="0"/>
        <pt x="631" y="195" on="1"/>
        <pt x="840" y="195" on="0"/>
        <pt x="952" y="326" on="1"/>
        <pt x="1083" y="195" on="1"/>
      </contour>
    </TTGlyph>
    <TTGlyph name="cedilla" xMin="160" yMin="-459" xMax="557" yMax="23">
      <contour>
        <pt x="479" y="-115" on="0"/>
        <pt x="557" y="-199" on="0"/>
        <pt x="557" y="-264" on="1"/>
        <pt x="557" y="-352" on="0"/>
        <pt x="432" y="-459" on="0"/>
        <pt x="340" y="-459" on="1"/>
        <pt x="291" y="-459" on="0"/>
        <pt x="197" y="-428" on="0"/>
        <pt x="160" y="-401" on="1"/>
        <pt x="205" y="-291" on="1"/>
        <pt x="258" y="-332" on="0"/>
        <pt x="324" y="-332" on="1"/>
        <pt x="367" y="-332" on="0"/>
        <pt x="418" y="-281" on="0"/>
        <pt x="418" y="-248" on="1"/>
        <pt x="418" y="-215" on="0"/>
        <pt x="367" y="-170" on="0"/>
        <pt x="319" y="-170" on="1"/>
        <pt x="284" y="-170" on="0"/>
        <pt x="248" y="-180" on="1"/>
        <pt x="334" y="23" on="1"/>
        <pt x="473" y="23" on="1"/>
        <pt x="414" y="-102" on="1"/>
      </contour>
    </TTGlyph>
    <TTGlyph name="cent" xMin="72" yMin="-291" xMax="1083" yMax="1401">
      <contour>
        <pt x="955" y="23" on="0"/>
        <pt x="709" y="-4" on="1"/>
        <pt x="709" y="-291" on="1"/>
        <pt x="530" y="-291" on="1"/>
        <pt x="530" y="-2" on="1"/>
        <pt x="393" y="16" on="0"/>
        <pt x="186" y="162" on="0"/>
        <pt x="72" y="395" on="0"/>
        <pt x="72" y="543" on="1"/>
        <pt x="72" y="690" on="0"/>
        <pt x="186" y="926" on="0"/>
        <pt x="393" y="1073" on="0"/>
        <pt x="530" y="1092" on="1"/>
        <pt x="530" y="1401" on="1"/>
        <pt x="709" y="1401" on="1"/>
        <pt x="709" y="1094" on="1"/>
        <pt x="940" y="1069" on="0"/>
        <pt x="1071" y="920" on="1"/>
        <pt x="942" y="768" on="1"/>
        <pt x="848" y="866" on="0"/>
        <pt x="709" y="887" on="1"/>
        <pt x="709" y="201" on="1"/>
        <pt x="863" y="219" on="0"/>
        <pt x="952" y="326" on="1"/>
        <pt x="1083" y="195" on="1"/>
      </contour>
      <contour>
        <pt x="307" y="418" on="0"/>
        <pt x="428" y="240" on="0"/>
        <pt x="530" y="209" on="1"/>
        <pt x="530" y="877" on="1"/>
        <pt x="428" y="846" on="0"/>
        <pt x="307" y="668" on="0"/>
        <pt x="307" y="543" on="1"/>
      </contour>
    </TTGlyph>
    <TTGlyph name="circumflex" xMin="39" yMin="1257" xMax="678" yMax="1546">
      <contour>
        <pt x="485" y="1257" on="1"/>
        <pt x="358" y="1438" on="1"/>
        <pt x="231" y="1257" on="1"/>
        <pt x="39" y="1257" on="1"/>
        <pt x="250" y="1546" on="1"/>
        <pt x="467" y="1546" on="1"/>
        <pt x="678" y="1257" on="1"/>
      </contour>
    </TTGlyph>
    <TTGlyph name="colon" xMin="94" yMin="-18" xMax="352" yMax="860">
      <component glyphName="period" x="0" y="608" flags="0x1000"/>
      <component glyphName="period" x="0" y="0" flags="0x1000"/>
    </TTGlyph>
    <TTGlyph name="comma" xMin="74" yMin="-168" xMax="348" yMax="248">
      <contour>
        <pt x="274" y="248" on="0"/>
        <pt x="348" y="176" on="0"/>
        <pt x="348" y="117" on="1"/>
        <pt x="348" y="62" on="0"/>
        <pt x="311" y="8" on="1"/>
        <pt x="195" y="-168" on="1"/>
        <pt x="74" y="-168" on="1"/>
        <pt x="152" y="10" on="1"/>
        <pt x="97" y="47" on="0"/>
        <pt x="96" y="117" on="1"/>
        <pt x="96" y="174" on="0"/>
        <pt x="168" y="248" on="0"/>
        <pt x="223" y="248" on="1"/>
      </contour>
    </TTGlyph>
    <TTGlyph name="copyright" xMin="70" yMin="18" xMax="1456" yMax="1411">
      <contour>
        <pt x="954" y="1411" on="0"/>
        <pt x="1272" y="1225" on="0"/>
        <pt x="1456" y="905" on="0"/>
        <pt x="1456" y="717" on="1"/>
        <pt x="1456" y="531" on="0"/>
        <pt x="1272" y="209" on="0"/>
        <pt x="952" y="18" on="0"/>
        <pt x="760" y="18" on="1"/>
        <pt x="570" y="18" on="0"/>
        <pt x="252" y="207" on="0"/>
        <pt x="70" y="526" on="0"/>
        <pt x="70" y="713" on="1"/>
        <pt x="70" y="899" on="0"/>
        <pt x="254" y="1221" on="0"/>
        <pt x="571" y="1411" on="0"/>
        <pt x="764" y="1411" on="1"/>
      </contour>
      <contour>
        <pt x="604" y="1288" on="0"/>
        <pt x="338" y="1133" on="0"/>
        <pt x="186" y="868" on="0"/>
        <pt x="186" y="713" on="1"/>
        <pt x="186" y="557" on="0"/>
        <pt x="338" y="295" on="0"/>
        <pt x="600" y="141" on="0"/>
        <pt x="760" y="141" on="1"/>
        <pt x="920" y="141" on="0"/>
        <pt x="1186" y="297" on="0"/>
        <pt x="1339" y="561" on="0"/>
        <pt x="1339" y="717" on="1"/>
        <pt x="1339" y="873" on="0"/>
        <pt x="1188" y="1135" on="0"/>
        <pt x="924" y="1288" on="0"/>
        <pt x="764" y="1288" on="1"/>
      </contour>
      <contour>
        <pt x="848" y="1065" on="0"/>
        <pt x="989" y="1008" on="0"/>
        <pt x="1042" y="956" on="1"/>
        <pt x="971" y="870" on="1"/>
        <pt x="930" y="911" on="0"/>
        <pt x="829" y="956" on="0"/>
        <pt x="776" y="956" on="1"/>
        <pt x="672" y="956" on="0"/>
        <pt x="528" y="817" on="0"/>
        <pt x="528" y="717" on="1"/>
        <pt x="528" y="615" on="0"/>
        <pt x="672" y="473" on="0"/>
        <pt x="776" y="473" on="1"/>
        <pt x="827" y="473" on="0"/>
        <pt x="932" y="516" on="0"/>
        <pt x="971" y="555" on="1"/>
        <pt x="1042" y="475" on="1"/>
        <pt x="987" y="422" on="0"/>
        <pt x="844" y="360" on="0"/>
        <pt x="770" y="360" on="1"/>
        <pt x="670" y="360" on="0"/>
        <pt x="502" y="455" on="0"/>
        <pt x="406" y="616" on="0"/>
        <pt x="406" y="715" on="1"/>
        <pt x="406" y="813" on="0"/>
        <pt x="504" y="973" on="0"/>
        <pt x="672" y="1065" on="0"/>
        <pt x="774" y="1065" on="1"/>
      </contour>
    </TTGlyph>
    <TTGlyph name="currency" xMin="72" yMin="-8" xMax="1384" yMax="1309">
      <contour>
        <pt x="1280" y="483" on="0"/>
        <pt x="1176" y="342" on="1"/>
        <pt x="1384" y="133" on="1"/>
        <pt x="1251" y="-8" on="1"/>
        <pt x="1034" y="207" on="1"/>
        <pt x="895" y="117" on="0"/>
        <pt x="727" y="117" on="1"/>
        <pt x="561" y="117" on="0"/>
        <pt x="422" y="207" on="1"/>
        <pt x="205" y="-8" on="1"/>
        <pt x="72" y="133" on="1"/>
        <pt x="281" y="342" on="1"/>
        <pt x="179" y="483" on="0"/>
        <pt x="178" y="653" on="1"/>
        <pt x="178" y="821" on="0"/>
        <pt x="276" y="963" on="1"/>
        <pt x="72" y="1167" on="1"/>
        <pt x="205" y="1309" on="1"/>
        <pt x="416" y="1098" on="1"/>
        <pt x="557" y="1194" on="0"/>
        <pt x="727" y="1194" on="1"/>
        <pt x="897" y="1194" on="0"/>
        <pt x="1040" y="1100" on="1"/>
        <pt x="1251" y="1309" on="1"/>
        <pt x="1384" y="1167" on="1"/>
        <pt x="1180" y="963" on="1"/>
        <pt x="1280" y="824" on="0"/>
        <pt x="1280" y="653" on="1"/>
      </contour>
      <contour>
        <pt x="827" y="317" on="0"/>
        <pt x="995" y="408" on="0"/>
        <pt x="1094" y="563" on="0"/>
        <pt x="1094" y="653" on="1"/>
        <pt x="1094" y="745" on="0"/>
        <pt x="995" y="903" on="0"/>
        <pt x="827" y="995" on="0"/>
        <pt x="727" y="995" on="1"/>
        <pt x="629" y="995" on="0"/>
        <pt x="463" y="903" on="0"/>
        <pt x="367" y="745" on="0"/>
        <pt x="367" y="653" on="1"/>
        <pt x="367" y="563" on="0"/>
        <pt x="463" y="408" on="0"/>
        <pt x="629" y="317" on="0"/>
        <pt x="727" y="317" on="1"/>
      </contour>
    </TTGlyph>
    <TTGlyph name="d" xMin="72" yMin="-10" xMax="1212" yMax="1520">
      <contour>
        <pt x="1212" y="0" on="1"/>
        <pt x="977" y="0" on="1"/>
        <pt x="977" y="186" on="1"/>
        <pt x="918" y="90" on="0"/>
        <pt x="723" y="-10" on="0"/>
        <pt x="594" y="-10" on="1"/>
        <pt x="438" y="-10" on="0"/>
        <pt x="203" y="131" on="0"/>
        <pt x="72" y="385" on="0"/>
        <pt x="72" y="549" on="1"/>
        <pt x="72" y="711" on="0"/>
        <pt x="203" y="961" on="0"/>
        <pt x="438" y="1100" on="0"/>
        <pt x="590" y="1100" on="1"/>
        <pt x="721" y="1100" on="0"/>
        <pt x="915" y="997" on="0"/>
        <pt x="977" y="901" on="1"/>
        <pt x="977" y="1520" on="1"/>
        <pt x="1212" y="1520" on="1"/>
      </contour>
      <contour>
        <pt x="791" y="186" on="0"/>
        <pt x="977" y="385" on="0"/>
        <pt x="977" y="541" on="1"/>
        <pt x="977" y="699" on="0"/>
        <pt x="791" y="899" on="0"/>
        <pt x="643" y="899" on="1"/>
        <pt x="496" y="899" on="0"/>
        <pt x="309" y="698" on="0"/>
        <pt x="307" y="541" on="1"/>
        <pt x="309" y="385" on="0"/>
        <pt x="496" y="186" on="0"/>
        <pt x="643" y="186" on="1"/>
      </contour>
    </TTGlyph>
    <TTGlyph name="dagger" xMin="31" yMin="-389" xMax="1067" yMax="1432">
      <contour>
        <pt x="1067" y="995" on="1"/>
        <pt x="1067" y="778" on="1"/>
        <pt x="657" y="778" on="1"/>
        <pt x="657" y="-389" on="1"/>
        <pt x="434" y="-389" on="1"/>
        <pt x="434" y="778" on="1"/>
        <pt x="31" y="778" on="1"/>
        <pt x="31" y="995" on="1"/>
        <pt x="434" y="995" on="1"/>
        <pt x="434" y="1432" on="1"/>
        <pt x="657" y="1432" on="1"/>
        <pt x="657" y="995" on="1"/>
      </contour>
    </TTGlyph>
    <TTGlyph name="daggerdbl" xMin="31" yMin="-389" xMax="1067" yMax="1432">
      <contour>
        <pt x="657" y="305" on="1"/>
        <pt x="1067" y="305" on="1"/>
        <pt x="1067" y="90" on="1"/>
        <pt x="657" y="90" on="1"/>
        <pt x="657" y="-389" on="1"/>
        <pt x="434" y="-389" on="1"/>
        <pt x="434" y="90" on="1"/>
        <pt x="31" y="90" on="1"/>
        <pt x="31" y="305" on="1"/>
        <pt x="434" y="305" on="1"/>
        <pt x="434" y="778" on="1"/>
        <pt x="31" y="778" on="1"/>
        <pt x="31" y="995" on="1"/>
        <pt x="434" y="995" on="1"/>
        <pt x="434" y="1432" on="1"/>
        <pt x="657" y="1432" on="1"/>
        <pt x="657" y="995" on="1"/>
        <pt x="1067" y="995" on="1"/>
        <pt x="1067" y="778" on="1"/>
        <pt x="657" y="778" on="1"/>
      </contour>
    </TTGlyph>
    <TTGlyph name="dcaron" xMin="72" yMin="-10" xMax="1587" yMax="1520">
      <contour>
        <pt x="1212" y="1520" on="1"/>
        <pt x="1212" y="0" on="1"/>
        <pt x="977" y="0" on="1"/>
        <pt x="977" y="186" on="1"/>
        <pt x="918" y="90" on="0"/>
        <pt x="723" y="-10" on="0"/>
        <pt x="594" y="-10" on="1"/>
        <pt x="438" y="-10" on="0"/>
        <pt x="203" y="131" on="0"/>
        <pt x="72" y="385" on="0"/>
        <pt x="72" y="549" on="1"/>
        <pt x="72" y="711" on="0"/>
        <pt x="203" y="961" on="0"/>
        <pt x="438" y="1100" on="0"/>
        <pt x="590" y="1100" on="1"/>
        <pt x="721" y="1100" on="0"/>
        <pt x="915" y="997" on="0"/>
        <pt x="977" y="901" on="1"/>
        <pt x="977" y="1520" on="1"/>
      </contour>
      <contour>
        <pt x="1513" y="1401" on="0"/>
        <pt x="1587" y="1329" on="0"/>
        <pt x="1587" y="1270" on="1"/>
        <pt x="1587" y="1217" on="0"/>
        <pt x="1550" y="1163" on="1"/>
        <pt x="1434" y="987" on="1"/>
        <pt x="1313" y="987" on="1"/>
        <pt x="1391" y="1163" on="1"/>
        <pt x="1336" y="1200" on="0"/>
        <pt x="1335" y="1270" on="1"/>
        <pt x="1335" y="1327" on="0"/>
        <pt x="1407" y="1401" on="0"/>
        <pt x="1462" y="1401" on="1"/>
      </contour>
      <contour>
        <pt x="791" y="186" on="0"/>
        <pt x="977" y="385" on="0"/>
        <pt x="977" y="541" on="1"/>
        <pt x="977" y="699" on="0"/>
        <pt x="791" y="899" on="0"/>
        <pt x="643" y="899" on="1"/>
        <pt x="496" y="899" on="0"/>
        <pt x="309" y="698" on="0"/>
        <pt x="307" y="541" on="1"/>
        <pt x="309" y="385" on="0"/>
        <pt x="496" y="186" on="0"/>
        <pt x="643" y="186" on="1"/>
      </contour>
    </TTGlyph>
    <TTGlyph name="dcroat" xMin="72" yMin="-10" xMax="1354" yMax="1520">
      <contour>
        <pt x="1212" y="1262" on="1"/>
        <pt x="1212" y="0" on="1"/>
        <pt x="977" y="0" on="1"/>
        <pt x="977" y="186" on="1"/>
        <pt x="918" y="90" on="0"/>
        <pt x="723" y="-10" on="0"/>
        <pt x="594" y="-10" on="1"/>
        <pt x="438" y="-10" on="0"/>
        <pt x="203" y="131" on="0"/>
        <pt x="72" y="385" on="0"/>
        <pt x="72" y="549" on="1"/>
        <pt x="72" y="711" on="0"/>
        <pt x="203" y="961" on="0"/>
        <pt x="438" y="1100" on="0"/>
        <pt x="590" y="1100" on="1"/>
        <pt x="721" y="1100" on="0"/>
        <pt x="915" y="997" on="0"/>
        <pt x="977" y="901" on="1"/>
        <pt x="977" y="1262" on="1"/>
        <pt x="774" y="1262" on="1"/>
        <pt x="774" y="1397" on="1"/>
        <pt x="977" y="1397" on="1"/>
        <pt x="977" y="1520" on="1"/>
        <pt x="1212" y="1520" on="1"/>
        <pt x="1212" y="1397" on="1"/>
        <pt x="1354" y="1397" on="1"/>
        <pt x="1354" y="1262" on="1"/>
      </contour>
      <contour>
        <pt x="791" y="186" on="0"/>
        <pt x="977" y="385" on="0"/>
        <pt x="977" y="541" on="1"/>
        <pt x="977" y="699" on="0"/>
        <pt x="791" y="899" on="0"/>
        <pt x="643" y="899" on="1"/>
        <pt x="496" y="899" on="0"/>
        <pt x="309" y="698" on="0"/>
        <pt x="307" y="541" on="1"/>
        <pt x="309" y="385" on="0"/>
        <pt x="496" y="186" on="0"/>
        <pt x="643" y="186" on="1"/>
      </contour>
    </TTGlyph>
    <TTGlyph name="degree" xMin="166" yMin="1188" xMax="641" yMax="1659">
      <contour>
        <pt x="502" y="1659" on="0"/>
        <pt x="641" y="1520" on="0"/>
        <pt x="641" y="1423" on="1"/>
        <pt x="641" y="1327" on="0"/>
        <pt x="502" y="1188" on="0"/>
        <pt x="403" y="1188" on="1"/>
        <pt x="307" y="1188" on="0"/>
        <pt x="166" y="1327" on="0"/>
        <pt x="166" y="1423" on="1"/>
        <pt x="166" y="1519" on="0"/>
        <pt x="305" y="1659" on="0"/>
        <pt x="403" y="1659" on="1"/>
      </contour>
      <contour>
        <pt x="346" y="1554" on="0"/>
        <pt x="266" y="1477" on="0"/>
        <pt x="266" y="1423" on="1"/>
        <pt x="266" y="1370" on="0"/>
        <pt x="346" y="1294" on="0"/>
        <pt x="403" y="1294" on="1"/>
        <pt x="460" y="1294" on="0"/>
        <pt x="541" y="1370" on="0"/>
        <pt x="541" y="1423" on="1"/>
        <pt x="541" y="1476" on="0"/>
        <pt x="461" y="1554" on="0"/>
        <pt x="403" y="1554" on="1"/>
      </contour>
    </TTGlyph>
    <TTGlyph name="dieresis" xMin="66" yMin="1270" xMax="646" yMax="1528">
      <component glyphName="dotaccent" x="195" y="126" scale="0.908020019531" flags="0x1000"/>
      <component glyphName="dotaccent" x="-134" y="126" scale="0.908020019531" flags="0x1000"/>
    </TTGlyph>
    <TTGlyph name="divide" xMin="72" yMin="184" xMax="948" yMax="1171">
      <contour>
        <pt x="551" y="1171" on="0"/>
        <pt x="623" y="1098" on="0"/>
        <pt x="623" y="1042" on="1"/>
        <pt x="623" y="985" on="0"/>
        <pt x="551" y="911" on="0"/>
        <pt x="498" y="911" on="1"/>
        <pt x="445" y="911" on="0"/>
        <pt x="375" y="985" on="0"/>
        <pt x="375" y="1042" on="1"/>
        <pt x="375" y="1097" on="0"/>
        <pt x="444" y="1171" on="0"/>
        <pt x="498" y="1171" on="1"/>
      </contour>
      <contour>
        <pt x="72" y="584" on="1"/>
        <pt x="72" y="745" on="1"/>
        <pt x="948" y="745" on="1"/>
        <pt x="948" y="584" on="1"/>
      </contour>
      <contour>
        <pt x="551" y="444" on="0"/>
        <pt x="623" y="371" on="0"/>
        <pt x="623" y="315" on="1"/>
        <pt x="623" y="258" on="0"/>
        <pt x="551" y="184" on="0"/>
        <pt x="498" y="184" on="1"/>
        <pt x="445" y="184" on="0"/>
        <pt x="375" y="258" on="0"/>
        <pt x="375" y="315" on="1"/>
        <pt x="375" y="370" on="0"/>
        <pt x="444" y="444" on="0"/>
        <pt x="498" y="444" on="1"/>
      </contour>
    </TTGlyph>
    <TTGlyph name="divisionslash" xMin="-43" yMin="-240" xMax="807" yMax="1671">
      <component glyphName="slash" x="0" y="0" flags="0x1000"/>
    </TTGlyph>
    <TTGlyph name="dollar" xMin="53" yMin="-291" xMax="1180" yMax="1708">
      <contour>
        <pt x="879" y="786" on="0"/>
        <pt x="1057" y="700" on="0"/>
        <pt x="1180" y="539" on="0"/>
        <pt x="1180" y="410" on="1"/>
        <pt x="1180" y="240" on="0"/>
        <pt x="942" y="20" on="0"/>
        <pt x="743" y="-2" on="1"/>
        <pt x="743" y="-291" on="1"/>
        <pt x="563" y="-291" on="1"/>
        <pt x="563" y="-4" on="1"/>
        <pt x="420" y="8" on="0"/>
        <pt x="154" y="127" on="0"/>
        <pt x="53" y="219" on="1"/>
        <pt x="158" y="428" on="1"/>
        <pt x="248" y="346" on="0"/>
        <pt x="459" y="242" on="0"/>
        <pt x="563" y="225" on="1"/>
        <pt x="563" y="635" on="1"/>
        <pt x="430" y="674" on="0"/>
        <pt x="256" y="758" on="0"/>
        <pt x="137" y="918" on="0"/>
        <pt x="137" y="1044" on="1"/>
        <pt x="137" y="1206" on="0"/>
        <pt x="367" y="1415" on="0"/>
        <pt x="563" y="1438" on="1"/>
        <pt x="563" y="1708" on="1"/>
        <pt x="743" y="1708" on="1"/>
        <pt x="743" y="1440" on="1"/>
        <pt x="858" y="1430" on="0"/>
        <pt x="1075" y="1354" on="0"/>
        <pt x="1161" y="1296" on="1"/>
        <pt x="1061" y="1083" on="1"/>
        <pt x="905" y="1177" on="0"/>
        <pt x="743" y="1206" on="1"/>
        <pt x="743" y="827" on="1"/>
      </contour>
      <contour>
        <pt x="408" y="1004" on="0"/>
        <pt x="487" y="920" on="0"/>
        <pt x="563" y="889" on="1"/>
        <pt x="563" y="1210" on="1"/>
        <pt x="489" y="1198" on="0"/>
        <pt x="408" y="1124" on="0"/>
        <pt x="408" y="1067" on="1"/>
      </contour>
      <contour>
        <pt x="823" y="244" on="0"/>
        <pt x="911" y="330" on="0"/>
        <pt x="911" y="393" on="1"/>
        <pt x="911" y="461" on="0"/>
        <pt x="825" y="547" on="0"/>
        <pt x="743" y="580" on="1"/>
        <pt x="743" y="227" on="1"/>
      </contour>
    </TTGlyph>
    <TTGlyph name="dotaccent" xMin="221" yMin="1260" xMax="496" yMax="1544">
      <contour>
        <pt x="418" y="1544" on="0"/>
        <pt x="496" y="1464" on="0"/>
        <pt x="496" y="1401" on="1"/>
        <pt x="496" y="1340" on="0"/>
        <pt x="418" y="1260" on="0"/>
        <pt x="358" y="1260" on="1"/>
        <pt x="299" y="1260" on="0"/>
        <pt x="221" y="1339" on="0"/>
        <pt x="221" y="1401" on="1"/>
        <pt x="221" y="1464" on="0"/>
        <pt x="299" y="1544" on="0"/>
        <pt x="358" y="1544" on="1"/>
      </contour>
    </TTGlyph>
    <TTGlyph name="dotlessi" xMin="174" yMin="0" xMax="408" yMax="1090">
      <contour>
        <pt x="174" y="0" on="1"/>
        <pt x="174" y="1090" on="1"/>
        <pt x="408" y="1090" on="1"/>
        <pt x="408" y="0" on="1"/>
      </contour>
    </TTGlyph>
    <TTGlyph name="dotlessj" xMin="-186" yMin="-406" xMax="408" yMax="1090">
      <contour>
        <pt x="408" y="-219" on="0"/>
        <pt x="233" y="-406" on="0"/>
        <pt x="78" y="-406" on="1"/>
        <pt x="-67" y="-406" on="0"/>
        <pt x="-186" y="-332" on="1"/>
        <pt x="-127" y="-160" on="1"/>
        <pt x="-49" y="-209" on="0"/>
        <pt x="29" y="-209" on="1"/>
        <pt x="99" y="-209" on="0"/>
        <pt x="172" y="-111" on="0"/>
        <pt x="172" y="-14" on="1"/>
        <pt x="172" y="1090" on="1"/>
        <pt x="408" y="1090" on="1"/>
        <pt x="408" y="-49" on="1"/>
      </contour>
    </TTGlyph>
    <TTGlyph name="e" xMin="72" yMin="-8" xMax="1137" yMax="1098">
      <contour>
        <pt x="881" y="1098" on="0"/>
        <pt x="1137" y="807" on="0"/>
        <pt x="1137" y="543" on="1"/>
        <pt x="1137" y="516" on="0"/>
        <pt x="1133" y="455" on="1"/>
        <pt x="309" y="455" on="1"/>
        <pt x="338" y="328" on="0"/>
        <pt x="518" y="182" on="0"/>
        <pt x="647" y="182" on="1"/>
        <pt x="735" y="182" on="0"/>
        <pt x="895" y="248" on="0"/>
        <pt x="954" y="309" on="1"/>
        <pt x="1079" y="176" on="1"/>
        <pt x="997" y="88" on="0"/>
        <pt x="768" y="-8" on="0"/>
        <pt x="629" y="-8" on="1"/>
        <pt x="463" y="-8" on="0"/>
        <pt x="211" y="131" on="0"/>
        <pt x="72" y="381" on="0"/>
        <pt x="72" y="543" on="1"/>
        <pt x="72" y="705" on="0"/>
        <pt x="211" y="956" on="0"/>
        <pt x="463" y="1098" on="0"/>
        <pt x="623" y="1098" on="1"/>
      </contour>
      <contour>
        <pt x="922" y="758" on="0"/>
        <pt x="758" y="909" on="0"/>
        <pt x="625" y="909" on="1"/>
        <pt x="496" y="909" on="0"/>
        <pt x="326" y="758" on="0"/>
        <pt x="305" y="627" on="1"/>
        <pt x="928" y="627" on="1"/>
      </contour>
    </TTGlyph>
    <TTGlyph name="eacute" xMin="72" yMin="-8" xMax="1137" yMax="1548">
      <component glyphName="e" x="0" y="0" flags="0x1000"/>
      <component glyphName="acute" x="348" y="0" flags="0x1000"/>
    </TTGlyph>
    <TTGlyph name="ecaron" xMin="72" yMin="-8" xMax="1137" yMax="1540">
      <component glyphName="e" x="0" y="0" flags="0x1000"/>
      <component glyphName="caron" x="248" y="-6" flags="0x1000"/>
    </TTGlyph>
    <TTGlyph name="ecircumflex" xMin="72" yMin="-8" xMax="1137" yMax="1540">
      <component glyphName="e" x="0" y="0" flags="0x1000"/>
      <component glyphName="circumflex" x="254" y="-6" flags="0x1000"/>
    </TTGlyph>
    <TTGlyph name="edieresis" xMin="72" yMin="-8" xMax="1137" yMax="1542">
      <contour>
        <pt x="379" y="1282" on="0"/>
        <pt x="307" y="1356" on="0"/>
        <pt x="307" y="1411" on="1"/>
        <pt x="307" y="1468" on="0"/>
        <pt x="379" y="1542" on="0"/>
        <pt x="432" y="1542" on="1"/>
        <pt x="485" y="1542" on="0"/>
        <pt x="555" y="1468" on="0"/>
        <pt x="555" y="1411" on="1"/>
        <pt x="555" y="1356" on="0"/>
        <pt x="485" y="1282" on="0"/>
        <pt x="432" y="1282" on="1"/>
      </contour>
      <contour>
        <pt x="741" y="1282" on="0"/>
        <pt x="670" y="1356" on="0"/>
        <pt x="670" y="1411" on="1"/>
        <pt x="670" y="1468" on="0"/>
        <pt x="741" y="1542" on="0"/>
        <pt x="795" y="1542" on="1"/>
        <pt x="848" y="1542" on="0"/>
        <pt x="918" y="1468" on="0"/>
        <pt x="918" y="1411" on="1"/>
        <pt x="918" y="1356" on="0"/>
        <pt x="848" y="1282" on="0"/>
        <pt x="795" y="1282" on="1"/>
      </contour>
      <contour>
        <pt x="881" y="1098" on="0"/>
        <pt x="1137" y="807" on="0"/>
        <pt x="1137" y="543" on="1"/>
        <pt x="1137" y="516" on="0"/>
        <pt x="1133" y="455" on="1"/>
        <pt x="309" y="455" on="1"/>
        <pt x="338" y="328" on="0"/>
        <pt x="518" y="182" on="0"/>
        <pt x="647" y="182" on="1"/>
        <pt x="735" y="182" on="0"/>
        <pt x="895" y="248" on="0"/>
        <pt x="954" y="309" on="1"/>
        <pt x="1079" y="176" on="1"/>
        <pt x="997" y="88" on="0"/>
        <pt x="768" y="-8" on="0"/>
        <pt x="629" y="-8" on="1"/>
        <pt x="463" y="-8" on="0"/>
        <pt x="211" y="131" on="0"/>
        <pt x="72" y="381" on="0"/>
        <pt x="72" y="543" on="1"/>
        <pt x="72" y="705" on="0"/>
        <pt x="211" y="956" on="0"/>
        <pt x="463" y="1098" on="0"/>
        <pt x="623" y="1098" on="1"/>
      </contour>
      <contour>
        <pt x="922" y="758" on="0"/>
        <pt x="758" y="909" on="0"/>
        <pt x="625" y="909" on="1"/>
        <pt x="496" y="909" on="0"/>
        <pt x="326" y="758" on="0"/>
        <pt x="305" y="627" on="1"/>
        <pt x="928" y="627" on="1"/>
      </contour>
    </TTGlyph>
    <TTGlyph name="edotaccent" xMin="72" yMin="-8" xMax="1137" yMax="1544">
      <component glyphName="e" x="0" y="0" flags="0x1000"/>
      <component glyphName="dotaccent" x="254" y="0" flags="0x1000"/>
    </TTGlyph>
    <TTGlyph name="egrave" xMin="72" yMin="-8" xMax="1137" yMax="1550">
      <component glyphName="e" x="0" y="0" flags="0x1000"/>
      <component glyphName="grave" x="166" y="0" flags="0x1000"/>
    </TTGlyph>
    <TTGlyph name="eight" xMin="90" yMin="-10" xMax="1194" yMax="1444">
      <contour>
        <pt x="862" y="1444" on="0"/>
        <pt x="1122" y="1245" on="0"/>
        <pt x="1122" y="1073" on="1"/>
        <pt x="1122" y="971" on="0"/>
        <pt x="1010" y="811" on="0"/>
        <pt x="909" y="766" on="1"/>
        <pt x="1042" y="723" on="0"/>
        <pt x="1194" y="530" on="0"/>
        <pt x="1194" y="401" on="1"/>
        <pt x="1194" y="211" on="0"/>
        <pt x="897" y="-10" on="0"/>
        <pt x="641" y="-10" on="1"/>
        <pt x="387" y="-10" on="0"/>
        <pt x="90" y="209" on="0"/>
        <pt x="90" y="397" on="1"/>
        <pt x="90" y="528" on="0"/>
        <pt x="248" y="723" on="0"/>
        <pt x="385" y="766" on="1"/>
        <pt x="279" y="815" on="0"/>
        <pt x="162" y="979" on="0"/>
        <pt x="162" y="1081" on="1"/>
        <pt x="162" y="1249" on="0"/>
        <pt x="420" y="1444" on="0"/>
        <pt x="641" y="1444" on="1"/>
      </contour>
      <contour>
        <pt x="512" y="1270" on="0"/>
        <pt x="367" y="1159" on="0"/>
        <pt x="367" y="1059" on="1"/>
        <pt x="367" y="959" on="0"/>
        <pt x="512" y="850" on="0"/>
        <pt x="641" y="850" on="1"/>
        <pt x="772" y="850" on="0"/>
        <pt x="915" y="958" on="0"/>
        <pt x="915" y="1059" on="1"/>
        <pt x="915" y="1159" on="0"/>
        <pt x="772" y="1270" on="0"/>
        <pt x="641" y="1270" on="1"/>
      </contour>
      <contour>
        <pt x="489" y="662" on="0"/>
        <pt x="319" y="537" on="0"/>
        <pt x="319" y="424" on="1"/>
        <pt x="319" y="307" on="0"/>
        <pt x="487" y="180" on="0"/>
        <pt x="641" y="180" on="1"/>
        <pt x="795" y="180" on="0"/>
        <pt x="965" y="307" on="0"/>
        <pt x="965" y="424" on="1"/>
        <pt x="965" y="537" on="0"/>
        <pt x="795" y="662" on="0"/>
        <pt x="641" y="662" on="1"/>
      </contour>
    </TTGlyph>
    <TTGlyph name="eight.dnom" xMin="72" yMin="-6" xMax="762" yMax="852">
      <contour>
        <pt x="555" y="852" on="0"/>
        <pt x="719" y="733" on="0"/>
        <pt x="719" y="631" on="1"/>
        <pt x="719" y="574" on="0"/>
        <pt x="651" y="479" on="0"/>
        <pt x="594" y="453" on="1"/>
        <pt x="674" y="424" on="0"/>
        <pt x="762" y="311" on="0"/>
        <pt x="762" y="238" on="1"/>
        <pt x="762" y="125" on="0"/>
        <pt x="578" y="-6" on="0"/>
        <pt x="418" y="-6" on="1"/>
        <pt x="258" y="-6" on="0"/>
        <pt x="72" y="123" on="0"/>
        <pt x="72" y="236" on="1"/>
        <pt x="72" y="310" on="0"/>
        <pt x="166" y="424" on="0"/>
        <pt x="248" y="453" on="1"/>
        <pt x="187" y="482" on="0"/>
        <pt x="117" y="578" on="0"/>
        <pt x="117" y="637" on="1"/>
        <pt x="117" y="737" on="0"/>
        <pt x="279" y="852" on="0"/>
        <pt x="416" y="852" on="1"/>
      </contour>
      <contour>
        <pt x="342" y="737" on="0"/>
        <pt x="260" y="676" on="0"/>
        <pt x="260" y="623" on="1"/>
        <pt x="260" y="568" on="0"/>
        <pt x="342" y="508" on="0"/>
        <pt x="418" y="508" on="1"/>
        <pt x="492" y="508" on="0"/>
        <pt x="573" y="567" on="0"/>
        <pt x="573" y="623" on="1"/>
        <pt x="573" y="676" on="0"/>
        <pt x="492" y="737" on="0"/>
        <pt x="418" y="737" on="1"/>
      </contour>
      <contour>
        <pt x="330" y="381" on="0"/>
        <pt x="233" y="313" on="0"/>
        <pt x="233" y="254" on="1"/>
        <pt x="233" y="191" on="0"/>
        <pt x="330" y="121" on="0"/>
        <pt x="418" y="121" on="1"/>
        <pt x="504" y="121" on="0"/>
        <pt x="600" y="188" on="0"/>
        <pt x="600" y="252" on="1"/>
        <pt x="600" y="313" on="0"/>
        <pt x="504" y="381" on="0"/>
        <pt x="416" y="381" on="1"/>
      </contour>
    </TTGlyph>
    <TTGlyph name="eight.numr" xMin="72" yMin="580" xMax="762" yMax="1440">
      <contour>
        <pt x="555" y="1440" on="0"/>
        <pt x="719" y="1321" on="0"/>
        <pt x="719" y="1219" on="1"/>
        <pt x="719" y="1160" on="0"/>
        <pt x="651" y="1067" on="0"/>
        <pt x="594" y="1040" on="1"/>
        <pt x="672" y="1011" on="0"/>
        <pt x="762" y="899" on="0"/>
        <pt x="762" y="825" on="1"/>
        <pt x="762" y="712" on="0"/>
        <pt x="575" y="580" on="0"/>
        <pt x="418" y="580" on="1"/>
        <pt x="258" y="580" on="0"/>
        <pt x="72" y="711" on="0"/>
        <pt x="72" y="823" on="1"/>
        <pt x="72" y="897" on="0"/>
        <pt x="166" y="1012" on="0"/>
        <pt x="248" y="1040" on="1"/>
        <pt x="187" y="1069" on="0"/>
        <pt x="117" y="1163" on="0"/>
        <pt x="117" y="1225" on="1"/>
        <pt x="117" y="1325" on="0"/>
        <pt x="279" y="1440" on="0"/>
        <pt x="416" y="1440" on="1"/>
      </contour>
      <contour>
        <pt x="342" y="1323" on="0"/>
        <pt x="260" y="1264" on="0"/>
        <pt x="260" y="1208" on="1"/>
        <pt x="260" y="1155" on="0"/>
        <pt x="342" y="1096" on="0"/>
        <pt x="418" y="1096" on="1"/>
        <pt x="492" y="1096" on="0"/>
        <pt x="573" y="1155" on="0"/>
        <pt x="573" y="1208" on="1"/>
        <pt x="573" y="1263" on="0"/>
        <pt x="492" y="1323" on="0"/>
        <pt x="418" y="1323" on="1"/>
      </contour>
      <contour>
        <pt x="330" y="969" on="0"/>
        <pt x="233" y="901" on="0"/>
        <pt x="233" y="840" on="1"/>
        <pt x="233" y="777" on="0"/>
        <pt x="330" y="709" on="0"/>
        <pt x="418" y="709" on="1"/>
        <pt x="504" y="709" on="0"/>
        <pt x="600" y="776" on="0"/>
        <pt x="600" y="840" on="1"/>
        <pt x="600" y="901" on="0"/>
        <pt x="504" y="969" on="0"/>
        <pt x="416" y="969" on="1"/>
      </contour>
    </TTGlyph>
    <TTGlyph name="ellipsis" xMin="93" yMin="-18" xMax="1114" yMax="241">
      <component glyphName="period" x="4" y="0" scale="0.953979492188" flags="0x1000"/>
      <component glyphName="period" x="391" y="0" scale="0.953979492188" flags="0x1000"/>
      <component glyphName="period" x="778" y="0" scale="0.953979492188" flags="0x1000"/>
    </TTGlyph>
    <TTGlyph name="emacron" xMin="72" yMin="-8" xMax="1137" yMax="1483">
      <component glyphName="e" x="0" y="0" flags="0x1000"/>
      <component glyphName="macron" x="254" y="0" flags="0x1000"/>
    </TTGlyph>
    <TTGlyph name="emdash" xMin="0" yMin="461" xMax="1415" yMax="623">
      <contour>
        <pt x="0" y="461" on="1"/>
        <pt x="0" y="623" on="1"/>
        <pt x="1415" y="623" on="1"/>
        <pt x="1415" y="461" on="1"/>
      </contour>
    </TTGlyph>
    <TTGlyph name="endash" xMin="0" yMin="461" xMax="829" yMax="623">
      <contour>
        <pt x="0" y="461" on="1"/>
        <pt x="0" y="623" on="1"/>
        <pt x="829" y="623" on="1"/>
        <pt x="829" y="461" on="1"/>
      </contour>
    </TTGlyph>
    <TTGlyph name="eogonek" xMin="72" yMin="-412" xMax="1137" yMax="1096">
      <contour>
        <pt x="657" y="1096" on="0"/>
        <pt x="778" y="1096" on="0"/>
        <pt x="643" y="1096" on="1"/>
        <pt x="883" y="1096" on="0"/>
        <pt x="1137" y="797" on="0"/>
        <pt x="1137" y="532" on="1"/>
        <pt x="1137" y="481" on="0"/>
        <pt x="1135" y="455" on="1"/>
        <pt x="309" y="455" on="1"/>
        <pt x="338" y="328" on="0"/>
        <pt x="512" y="180" on="0"/>
        <pt x="647" y="180" on="1"/>
        <pt x="733" y="180" on="0"/>
        <pt x="895" y="248" on="0"/>
        <pt x="954" y="309" on="1"/>
        <pt x="1079" y="176" on="1"/>
        <pt x="983" y="61" on="0"/>
        <pt x="866" y="-143" on="0"/>
        <pt x="866" y="-211" on="1"/>
        <pt x="866" y="-246" on="0"/>
        <pt x="899" y="-281" on="0"/>
        <pt x="928" y="-281" on="1"/>
        <pt x="977" y="-281" on="0"/>
        <pt x="1026" y="-215" on="1"/>
        <pt x="1094" y="-295" on="1"/>
        <pt x="1059" y="-348" on="0"/>
        <pt x="958" y="-412" on="0"/>
        <pt x="901" y="-412" on="1"/>
        <pt x="833" y="-412" on="0"/>
        <pt x="739" y="-332" on="0"/>
        <pt x="739" y="-250" on="1"/>
        <pt x="739" y="-117" on="0"/>
        <pt x="868" y="57" on="1"/>
        <pt x="809" y="22" on="0"/>
        <pt x="690" y="-8" on="0"/>
        <pt x="618" y="-8" on="1"/>
        <pt x="458" y="-8" on="0"/>
        <pt x="211" y="131" on="0"/>
        <pt x="72" y="383" on="0"/>
        <pt x="72" y="547" on="1"/>
        <pt x="72" y="639" on="0"/>
        <pt x="184" y="811" on="0"/>
        <pt x="279" y="915" on="1"/>
        <pt x="324" y="964" on="0"/>
        <pt x="367" y="1020" on="0"/>
        <pt x="367" y="1038" on="1"/>
        <pt x="367" y="1067" on="0"/>
        <pt x="299" y="1067" on="1"/>
        <pt x="268" y="1067" on="0"/>
        <pt x="571" y="1094" on="1"/>
      </contour>
      <contour>
        <pt x="496" y="909" on="0"/>
        <pt x="317" y="754" on="0"/>
        <pt x="305" y="627" on="1"/>
        <pt x="928" y="627" on="1"/>
        <pt x="922" y="754" on="0"/>
        <pt x="758" y="909" on="0"/>
        <pt x="627" y="909" on="1"/>
      </contour>
    </TTGlyph>
    <TTGlyph name="equal" xMin="72" yMin="369" xMax="948" yMax="961">
      <contour>
        <pt x="72" y="799" on="1"/>
        <pt x="72" y="961" on="1"/>
        <pt x="948" y="961" on="1"/>
        <pt x="948" y="799" on="1"/>
      </contour>
      <contour>
        <pt x="72" y="369" on="1"/>
        <pt x="72" y="530" on="1"/>
        <pt x="948" y="530" on="1"/>
        <pt x="948" y="369" on="1"/>
      </contour>
    </TTGlyph>
    <TTGlyph name="estimated" xMin="143" yMin="37" xMax="1516" yMax="1272">
      <contour>
        <pt x="393" y="639" on="0"/>
        <pt x="393" y="631" on="1"/>
        <pt x="393" y="295" on="1"/>
        <pt x="393" y="277" on="0"/>
        <pt x="410" y="256" on="1"/>
        <pt x="490" y="170" on="0"/>
        <pt x="709" y="74" on="0"/>
        <pt x="831" y="74" on="1"/>
        <pt x="960" y="74" on="0"/>
        <pt x="1192" y="182" on="0"/>
        <pt x="1272" y="276" on="1"/>
        <pt x="1372" y="276" on="1"/>
        <pt x="1278" y="165" on="0"/>
        <pt x="991" y="37" on="0"/>
        <pt x="829" y="37" on="1"/>
        <pt x="643" y="37" on="0"/>
        <pt x="328" y="203" on="0"/>
        <pt x="143" y="485" on="0"/>
        <pt x="143" y="653" on="1"/>
        <pt x="143" y="821" on="0"/>
        <pt x="328" y="1106" on="0"/>
        <pt x="643" y="1272" on="0"/>
        <pt x="829" y="1272" on="1"/>
        <pt x="1015" y="1272" on="0"/>
        <pt x="1331" y="1106" on="0"/>
        <pt x="1516" y="821" on="0"/>
        <pt x="1516" y="653" on="1"/>
        <pt x="1516" y="639" on="1"/>
        <pt x="403" y="639" on="1"/>
      </contour>
      <contour>
        <pt x="1265" y="1043" on="0"/>
        <pt x="1247" y="1061" on="1"/>
        <pt x="1165" y="1143" on="0"/>
        <pt x="950" y="1235" on="0"/>
        <pt x="831" y="1235" on="1"/>
        <pt x="710" y="1235" on="0"/>
        <pt x="494" y="1139" on="0"/>
        <pt x="412" y="1055" on="1"/>
        <pt x="394" y="1037" on="0"/>
        <pt x="393" y="1014" on="1"/>
        <pt x="393" y="682" on="1"/>
        <pt x="393" y="672" on="0"/>
        <pt x="403" y="672" on="1"/>
        <pt x="1255" y="672" on="1"/>
        <pt x="1265" y="672" on="0"/>
        <pt x="1266" y="682" on="1"/>
        <pt x="1266" y="1020" on="1"/>
      </contour>
    </TTGlyph>
    <TTGlyph name="eth" xMin="74" yMin="-10" xMax="1139" yMax="1530">
      <contour>
        <pt x="977" y="1085" on="0"/>
        <pt x="1139" y="727" on="0"/>
        <pt x="1139" y="543" on="1"/>
        <pt x="1139" y="377" on="0"/>
        <pt x="999" y="127" on="0"/>
        <pt x="745" y="-10" on="0"/>
        <pt x="578" y="-10" on="1"/>
        <pt x="426" y="-10" on="0"/>
        <pt x="199" y="104" on="0"/>
        <pt x="74" y="317" on="0"/>
        <pt x="74" y="459" on="1"/>
        <pt x="74" y="594" on="0"/>
        <pt x="188" y="797" on="0"/>
        <pt x="399" y="907" on="0"/>
        <pt x="539" y="907" on="1"/>
        <pt x="656" y="907" on="0"/>
        <pt x="854" y="817" on="0"/>
        <pt x="903" y="741" on="1"/>
        <pt x="870" y="850" on="0"/>
        <pt x="723" y="1067" on="0"/>
        <pt x="618" y="1165" on="1"/>
        <pt x="307" y="1063" on="1"/>
        <pt x="268" y="1186" on="1"/>
        <pt x="504" y="1264" on="1"/>
        <pt x="373" y="1364" on="0"/>
        <pt x="252" y="1421" on="1"/>
        <pt x="408" y="1530" on="1"/>
        <pt x="580" y="1452" on="0"/>
        <pt x="721" y="1335" on="1"/>
        <pt x="993" y="1425" on="1"/>
        <pt x="1030" y="1303" on="1"/>
        <pt x="829" y="1237" on="1"/>
      </contour>
      <contour>
        <pt x="727" y="199" on="0"/>
        <pt x="889" y="342" on="0"/>
        <pt x="889" y="463" on="1"/>
        <pt x="889" y="588" on="0"/>
        <pt x="727" y="735" on="0"/>
        <pt x="592" y="735" on="1"/>
        <pt x="459" y="735" on="0"/>
        <pt x="299" y="592" on="0"/>
        <pt x="299" y="473" on="1"/>
        <pt x="299" y="348" on="0"/>
        <pt x="459" y="199" on="0"/>
        <pt x="592" y="199" on="1"/>
      </contour>
    </TTGlyph>
    <TTGlyph name="exclam" xMin="117" yMin="-18" xMax="375" yMax="1415">
      <contour>
        <pt x="319" y="457" on="1"/>
        <pt x="170" y="457" on="1"/>
        <pt x="133" y="1063" on="1"/>
        <pt x="133" y="1415" on="1"/>
        <pt x="356" y="1415" on="1"/>
        <pt x="356" y="1063" on="1"/>
      </contour>
      <contour>
        <pt x="301" y="252" on="0"/>
        <pt x="375" y="176" on="0"/>
        <pt x="375" y="119" on="1"/>
        <pt x="375" y="60" on="0"/>
        <pt x="301" y="-18" on="0"/>
        <pt x="246" y="-18" on="1"/>
        <pt x="191" y="-18" on="0"/>
        <pt x="117" y="59" on="0"/>
        <pt x="117" y="119" on="1"/>
        <pt x="117" y="176" on="0"/>
        <pt x="190" y="252" on="0"/>
        <pt x="246" y="252" on="1"/>
      </contour>
    </TTGlyph>
    <TTGlyph name="exclamdown" xMin="110" yMin="-328" xMax="368" yMax="1105">
      <component glyphName="exclam" x="485" y="1087" scale="-1.0" flags="0x1000"/>
    </TTGlyph>
    <TTGlyph name="f" xMin="76" yMin="0" xMax="840" yMax="1530">
      <contour>
        <pt x="537" y="1325" on="0"/>
        <pt x="453" y="1251" on="0"/>
        <pt x="453" y="1178" on="1"/>
        <pt x="453" y="1049" on="1"/>
        <pt x="737" y="1049" on="1"/>
        <pt x="737" y="872" on="1"/>
        <pt x="453" y="872" on="1"/>
        <pt x="453" y="0" on="1"/>
        <pt x="219" y="0" on="1"/>
        <pt x="219" y="872" on="1"/>
        <pt x="76" y="872" on="1"/>
        <pt x="76" y="1049" on="1"/>
        <pt x="219" y="1049" on="1"/>
        <pt x="219" y="1155" on="1"/>
        <pt x="219" y="1276" on="0"/>
        <pt x="324" y="1446" on="0"/>
        <pt x="496" y="1530" on="0"/>
        <pt x="594" y="1530" on="1"/>
        <pt x="737" y="1530" on="0"/>
        <pt x="840" y="1454" on="1"/>
        <pt x="750" y="1274" on="1"/>
        <pt x="680" y="1325" on="0"/>
        <pt x="600" y="1325" on="1"/>
      </contour>
    </TTGlyph>
    <TTGlyph name="fi" xMin="76" yMin="0" xMax="1130" yMax="1544">
      <contour>
        <pt x="934" y="1260" on="0"/>
        <pt x="856" y="1339" on="0"/>
        <pt x="856" y="1401" on="1"/>
        <pt x="856" y="1464" on="0"/>
        <pt x="934" y="1544" on="0"/>
        <pt x="993" y="1544" on="1"/>
        <pt x="1052" y="1544" on="0"/>
        <pt x="1130" y="1464" on="0"/>
        <pt x="1130" y="1401" on="1"/>
        <pt x="1130" y="1340" on="0"/>
        <pt x="1053" y="1260" on="0"/>
        <pt x="993" y="1260" on="1"/>
      </contour>
      <contour>
        <pt x="219" y="1278" on="0"/>
        <pt x="326" y="1448" on="0"/>
        <pt x="498" y="1530" on="0"/>
        <pt x="594" y="1530" on="1"/>
        <pt x="711" y="1530" on="0"/>
        <pt x="797" y="1481" on="1"/>
        <pt x="788" y="1276" on="1"/>
        <pt x="684" y="1323" on="0"/>
        <pt x="600" y="1323" on="1"/>
        <pt x="532" y="1323" on="0"/>
        <pt x="453" y="1253" on="0"/>
        <pt x="453" y="1178" on="1"/>
        <pt x="453" y="1051" on="1"/>
        <pt x="737" y="1051" on="1"/>
        <pt x="737" y="874" on="1"/>
        <pt x="453" y="874" on="1"/>
        <pt x="453" y="0" on="1"/>
        <pt x="219" y="0" on="1"/>
        <pt x="219" y="874" on="1"/>
        <pt x="76" y="874" on="1"/>
        <pt x="76" y="1051" on="1"/>
        <pt x="219" y="1051" on="1"/>
        <pt x="219" y="1155" on="1"/>
      </contour>
      <contour>
        <pt x="1110" y="1090" on="1"/>
        <pt x="1110" y="0" on="1"/>
        <pt x="877" y="0" on="1"/>
        <pt x="877" y="1090" on="1"/>
      </contour>
    </TTGlyph>
    <TTGlyph name="firsttonechinese" xMin="98" yMin="1313" xMax="621" yMax="1483">
      <component glyphName="macron" x="0" y="0" flags="0x1000"/>
    </TTGlyph>
    <TTGlyph name="five" xMin="53" yMin="-8" xMax="1094" yMax="1434">
      <contour>
        <pt x="385" y="1217" on="1"/>
        <pt x="385" y="907" on="1"/>
        <pt x="582" y="909" on="1"/>
        <pt x="736" y="909" on="0"/>
        <pt x="967" y="797" on="0"/>
        <pt x="1094" y="598" on="0"/>
        <pt x="1094" y="473" on="1"/>
        <pt x="1094" y="330" on="0"/>
        <pt x="963" y="111" on="0"/>
        <pt x="723" y="-8" on="0"/>
        <pt x="563" y="-8" on="1"/>
        <pt x="436" y="-8" on="0"/>
        <pt x="160" y="82" on="0"/>
        <pt x="53" y="156" on="1"/>
        <pt x="150" y="352" on="1"/>
        <pt x="236" y="280" on="0"/>
        <pt x="440" y="201" on="0"/>
        <pt x="537" y="201" on="1"/>
        <pt x="676" y="201" on="0"/>
        <pt x="836" y="338" on="0"/>
        <pt x="836" y="459" on="1"/>
        <pt x="836" y="568" on="0"/>
        <pt x="676" y="694" on="0"/>
        <pt x="539" y="694" on="1"/>
        <pt x="469" y="694" on="0"/>
        <pt x="229" y="684" on="0"/>
        <pt x="162" y="676" on="1"/>
        <pt x="162" y="1434" on="1"/>
        <pt x="1034" y="1434" on="1"/>
        <pt x="1036" y="1217" on="1"/>
      </contour>
    </TTGlyph>
    <TTGlyph name="five.dnom" xMin="47" yMin="-6" xMax="702" yMax="846">
      <contour>
        <pt x="274" y="512" on="1"/>
        <pt x="297" y="518" on="0"/>
        <pt x="358" y="526" on="0"/>
        <pt x="383" y="526" on="1"/>
        <pt x="528" y="526" on="0"/>
        <pt x="702" y="393" on="0"/>
        <pt x="702" y="281" on="1"/>
        <pt x="702" y="150" on="0"/>
        <pt x="520" y="-6" on="0"/>
        <pt x="369" y="-6" on="1"/>
        <pt x="291" y="-6" on="0"/>
        <pt x="115" y="49" on="0"/>
        <pt x="47" y="92" on="1"/>
        <pt x="117" y="227" on="1"/>
        <pt x="168" y="178" on="0"/>
        <pt x="291" y="125" on="0"/>
        <pt x="350" y="125" on="1"/>
        <pt x="430" y="125" on="0"/>
        <pt x="520" y="201" on="0"/>
        <pt x="520" y="270" on="1"/>
        <pt x="520" y="329" on="0"/>
        <pt x="430" y="397" on="0"/>
        <pt x="350" y="397" on="1"/>
        <pt x="305" y="397" on="0"/>
        <pt x="158" y="387" on="0"/>
        <pt x="117" y="379" on="1"/>
        <pt x="117" y="846" on="1"/>
        <pt x="666" y="846" on="1"/>
        <pt x="666" y="711" on="1"/>
        <pt x="274" y="711" on="1"/>
      </contour>
    </TTGlyph>
    <TTGlyph name="five.numr" xMin="47" yMin="582" xMax="702" yMax="1434">
      <contour>
        <pt x="274" y="1100" on="1"/>
        <pt x="321" y="1112" on="0"/>
        <pt x="383" y="1112" on="1"/>
        <pt x="528" y="1112" on="0"/>
        <pt x="702" y="981" on="0"/>
        <pt x="702" y="868" on="1"/>
        <pt x="702" y="737" on="0"/>
        <pt x="520" y="582" on="0"/>
        <pt x="369" y="582" on="1"/>
        <pt x="289" y="582" on="0"/>
        <pt x="113" y="635" on="0"/>
        <pt x="47" y="680" on="1"/>
        <pt x="117" y="815" on="1"/>
        <pt x="168" y="766" on="0"/>
        <pt x="291" y="713" on="0"/>
        <pt x="350" y="713" on="1"/>
        <pt x="430" y="713" on="0"/>
        <pt x="520" y="788" on="0"/>
        <pt x="520" y="858" on="1"/>
        <pt x="520" y="917" on="0"/>
        <pt x="430" y="983" on="0"/>
        <pt x="350" y="983" on="1"/>
        <pt x="301" y="983" on="0"/>
        <pt x="158" y="973" on="0"/>
        <pt x="117" y="967" on="1"/>
        <pt x="117" y="1434" on="1"/>
        <pt x="666" y="1434" on="1"/>
        <pt x="666" y="1296" on="1"/>
        <pt x="274" y="1296" on="1"/>
      </contour>
    </TTGlyph>
    <TTGlyph name="fiveeighths" xMin="47" yMin="-6" xMax="1800" yMax="1434">
      <component glyphName="five.numr" x="0" y="0" flags="0x1000"/>
      <component glyphName="fraction" x="834" y="0" flags="0x1000"/>
      <component glyphName="eight.dnom" x="1038" y="0" flags="0x1000"/>
    </TTGlyph>
    <TTGlyph name="fl" xMin="76" yMin="0" xMax="1149" yMax="1540">
      <contour>
        <pt x="219" y="1286" on="0"/>
        <pt x="313" y="1450" on="0"/>
        <pt x="483" y="1540" on="0"/>
        <pt x="592" y="1540" on="1"/>
        <pt x="645" y="1540" on="0"/>
        <pt x="758" y="1516" on="0"/>
        <pt x="799" y="1493" on="1"/>
        <pt x="793" y="1288" on="1"/>
        <pt x="721" y="1341" on="0"/>
        <pt x="637" y="1341" on="1"/>
        <pt x="557" y="1341" on="0"/>
        <pt x="453" y="1233" on="0"/>
        <pt x="453" y="1149" on="1"/>
        <pt x="453" y="1051" on="1"/>
        <pt x="739" y="1051" on="1"/>
        <pt x="737" y="877" on="1"/>
        <pt x="453" y="877" on="1"/>
        <pt x="453" y="0" on="1"/>
        <pt x="219" y="0" on="1"/>
        <pt x="219" y="877" on="1"/>
        <pt x="76" y="877" on="1"/>
        <pt x="78" y="1051" on="1"/>
        <pt x="219" y="1051" on="1"/>
        <pt x="219" y="1184" on="1"/>
      </contour>
      <contour>
        <pt x="1149" y="0" on="1"/>
        <pt x="913" y="0" on="1"/>
        <pt x="913" y="1520" on="1"/>
        <pt x="1149" y="1520" on="1"/>
      </contour>
    </TTGlyph>
    <TTGlyph name="florin" xMin="-244" yMin="-408" xMax="913" yMax="1540">
      <contour>
        <pt x="606" y="1341" on="0"/>
        <pt x="504" y="1243" on="0"/>
        <pt x="494" y="1161" on="1"/>
        <pt x="467" y="950" on="1"/>
        <pt x="754" y="950" on="1"/>
        <pt x="735" y="786" on="1"/>
        <pt x="449" y="786" on="1"/>
        <pt x="344" y="-61" on="1"/>
        <pt x="324" y="-223" on="0"/>
        <pt x="137" y="-408" on="0"/>
        <pt x="-16" y="-408" on="1"/>
        <pt x="-73" y="-408" on="0"/>
        <pt x="-201" y="-365" on="0"/>
        <pt x="-244" y="-330" on="1"/>
        <pt x="-178" y="-156" on="1"/>
        <pt x="-149" y="-181" on="0"/>
        <pt x="-74" y="-211" on="0"/>
        <pt x="-41" y="-211" on="1"/>
        <pt x="90" y="-211" on="0"/>
        <pt x="115" y="-27" on="1"/>
        <pt x="215" y="786" on="1"/>
        <pt x="74" y="786" on="1"/>
        <pt x="92" y="950" on="1"/>
        <pt x="233" y="950" on="1"/>
        <pt x="264" y="1194" on="1"/>
        <pt x="284" y="1352" on="0"/>
        <pt x="492" y="1540" on="0"/>
        <pt x="647" y="1540" on="1"/>
        <pt x="717" y="1540" on="0"/>
        <pt x="862" y="1497" on="0"/>
        <pt x="913" y="1462" on="1"/>
        <pt x="829" y="1288" on="1"/>
        <pt x="798" y="1313" on="0"/>
        <pt x="717" y="1341" on="0"/>
        <pt x="680" y="1341" on="1"/>
      </contour>
    </TTGlyph>
    <TTGlyph name="four" xMin="61" yMin="0" xMax="1180" yMax="1434">
      <contour>
        <pt x="745" y="567" on="1"/>
        <pt x="745" y="907" on="1"/>
        <pt x="971" y="907" on="1"/>
        <pt x="971" y="567" on="1"/>
        <pt x="1180" y="567" on="1"/>
        <pt x="1180" y="352" on="1"/>
        <pt x="971" y="352" on="1"/>
        <pt x="971" y="0" on="1"/>
        <pt x="745" y="0" on="1"/>
        <pt x="745" y="352" on="1"/>
        <pt x="61" y="352" on="1"/>
        <pt x="61" y="532" on="1"/>
        <pt x="551" y="1434" on="1"/>
        <pt x="784" y="1434" on="1"/>
        <pt x="319" y="567" on="1"/>
      </contour>
    </TTGlyph>
    <TTGlyph name="four.dnom" xMin="57" yMin="0" xMax="762" yMax="846">
      <contour>
        <pt x="475" y="535" on="1"/>
        <pt x="637" y="535" on="1"/>
        <pt x="637" y="326" on="1"/>
        <pt x="762" y="326" on="1"/>
        <pt x="762" y="199" on="1"/>
        <pt x="637" y="199" on="1"/>
        <pt x="637" y="0" on="1"/>
        <pt x="475" y="0" on="1"/>
        <pt x="475" y="199" on="1"/>
        <pt x="57" y="199" on="1"/>
        <pt x="57" y="319" on="1"/>
        <pt x="350" y="846" on="1"/>
        <pt x="514" y="846" on="1"/>
        <pt x="229" y="326" on="1"/>
        <pt x="475" y="326" on="1"/>
      </contour>
    </TTGlyph>
    <TTGlyph name="four.numr" xMin="57" yMin="588" xMax="762" yMax="1434">
      <contour>
        <pt x="475" y="1120" on="1"/>
        <pt x="637" y="1120" on="1"/>
        <pt x="637" y="913" on="1"/>
        <pt x="762" y="913" on="1"/>
        <pt x="762" y="786" on="1"/>
        <pt x="637" y="786" on="1"/>
        <pt x="637" y="588" on="1"/>
        <pt x="475" y="588" on="1"/>
        <pt x="475" y="786" on="1"/>
        <pt x="57" y="786" on="1"/>
        <pt x="57" y="907" on="1"/>
        <pt x="350" y="1434" on="1"/>
        <pt x="514" y="1434" on="1"/>
        <pt x="229" y="913" on="1"/>
        <pt x="475" y="913" on="1"/>
      </contour>
    </TTGlyph>
    <TTGlyph name="fraction" xMin="-567" yMin="0" xMax="713" yMax="1434">
      <contour>
        <pt x="487" y="1434" on="1"/>
        <pt x="713" y="1434" on="1"/>
        <pt x="-340" y="0" on="1"/>
        <pt x="-567" y="0" on="1"/>
      </contour>
    </TTGlyph>
    <TTGlyph name="g" xMin="72" yMin="-403" xMax="1157" yMax="1098">
      <contour>
        <pt x="1157" y="106" on="1"/>
        <pt x="1157" y="-50" on="0"/>
        <pt x="1018" y="-279" on="0"/>
        <pt x="762" y="-403" on="0"/>
        <pt x="592" y="-403" on="1"/>
        <pt x="350" y="-403" on="0"/>
        <pt x="139" y="-260" on="1"/>
        <pt x="240" y="-90" on="1"/>
        <pt x="320" y="-149" on="0"/>
        <pt x="485" y="-209" on="0"/>
        <pt x="582" y="-209" on="1"/>
        <pt x="738" y="-209" on="0"/>
        <pt x="924" y="-41" on="0"/>
        <pt x="924" y="100" on="1"/>
        <pt x="924" y="238" on="1"/>
        <pt x="869" y="148" on="0"/>
        <pt x="686" y="53" on="0"/>
        <pt x="563" y="53" on="1"/>
        <pt x="418" y="53" on="0"/>
        <pt x="195" y="186" on="0"/>
        <pt x="72" y="424" on="0"/>
        <pt x="72" y="580" on="1"/>
        <pt x="72" y="734" on="0"/>
        <pt x="195" y="969" on="0"/>
        <pt x="418" y="1098" on="0"/>
        <pt x="563" y="1098" on="1"/>
        <pt x="684" y="1098" on="0"/>
        <pt x="868" y="1001" on="0"/>
        <pt x="924" y="913" on="1"/>
        <pt x="924" y="1090" on="1"/>
        <pt x="1157" y="1090" on="1"/>
      </contour>
      <contour>
        <pt x="748" y="238" on="0"/>
        <pt x="924" y="426" on="0"/>
        <pt x="924" y="573" on="1"/>
        <pt x="924" y="720" on="0"/>
        <pt x="750" y="907" on="0"/>
        <pt x="610" y="907" on="1"/>
        <pt x="471" y="907" on="0"/>
        <pt x="295" y="721" on="0"/>
        <pt x="293" y="573" on="1"/>
        <pt x="295" y="426" on="0"/>
        <pt x="469" y="238" on="0"/>
        <pt x="610" y="238" on="1"/>
      </contour>
    </TTGlyph>
    <TTGlyph name="gbreve" xMin="72" yMin="-403" xMax="1157" yMax="1532">
      <component glyphName="g" x="0" y="0" flags="0x1000"/>
      <component glyphName="breve" x="297" y="-2" flags="0x1000"/>
    </TTGlyph>
    <TTGlyph name="gcommaaccent" xMin="72" yMin="-403" xMax="1157" yMax="1604">
      <component glyphName="g" x="0" y="0" flags="0x1000"/>
      <component glyphName="uni0326" x="866" y="1090" scale="-1.0" flags="0x1000"/>
    </TTGlyph>
    <TTGlyph name="germandbls" xMin="160" yMin="0" xMax="1241" yMax="1530">
      <contour>
        <pt x="821" y="1530" on="0"/>
        <pt x="1038" y="1432" on="0"/>
        <pt x="1159" y="1253" on="0"/>
        <pt x="1159" y="1135" on="1"/>
        <pt x="1159" y="1014" on="0"/>
        <pt x="1030" y="821" on="0"/>
        <pt x="922" y="780" on="1"/>
        <pt x="1067" y="751" on="0"/>
        <pt x="1241" y="571" on="0"/>
        <pt x="1241" y="430" on="1"/>
        <pt x="1241" y="305" on="0"/>
        <pt x="1108" y="111" on="0"/>
        <pt x="864" y="0" on="0"/>
        <pt x="702" y="0" on="1"/>
        <pt x="598" y="0" on="1"/>
        <pt x="598" y="182" on="1"/>
        <pt x="721" y="182" on="1"/>
        <pt x="852" y="182" on="0"/>
        <pt x="1012" y="317" on="0"/>
        <pt x="1012" y="424" on="1"/>
        <pt x="1012" y="539" on="0"/>
        <pt x="827" y="666" on="0"/>
        <pt x="670" y="666" on="1"/>
        <pt x="643" y="666" on="1"/>
        <pt x="643" y="846" on="1"/>
        <pt x="774" y="846" on="0"/>
        <pt x="932" y="983" on="0"/>
        <pt x="932" y="1098" on="1"/>
        <pt x="932" y="1209" on="0"/>
        <pt x="793" y="1339" on="0"/>
        <pt x="678" y="1339" on="1"/>
        <pt x="547" y="1339" on="0"/>
        <pt x="393" y="1165" on="0"/>
        <pt x="393" y="1016" on="1"/>
        <pt x="393" y="0" on="1"/>
        <pt x="160" y="0" on="1"/>
        <pt x="160" y="999" on="1"/>
        <pt x="160" y="1159" on="0"/>
        <pt x="285" y="1399" on="0"/>
        <pt x="520" y="1530" on="0"/>
        <pt x="682" y="1530" on="1"/>
      </contour>
    </TTGlyph>
    <TTGlyph name="grave" xMin="115" yMin="1247" xMax="573" yMax="1550">
      <contour>
        <pt x="365" y="1247" on="1"/>
        <pt x="115" y="1448" on="1"/>
        <pt x="356" y="1550" on="1"/>
        <pt x="573" y="1247" on="1"/>
      </contour>
    </TTGlyph>
    <TTGlyph name="greater" xMin="72" yMin="193" xMax="948" yMax="1161">
      <contour>
        <pt x="791" y="676" on="1"/>
        <pt x="72" y="979" on="1"/>
        <pt x="72" y="1161" on="1"/>
        <pt x="948" y="780" on="1"/>
        <pt x="948" y="573" on="1"/>
        <pt x="72" y="193" on="1"/>
        <pt x="72" y="375" on="1"/>
      </contour>
    </TTGlyph>
    <TTGlyph name="greaterequal" xMin="72" yMin="41" xMax="948" yMax="1283">
      <component glyphName="greater" x="0" y="148" scalex="1.0" scaley="0.976989746094" flags="0x1000"/>
      <component glyphName="minus" x="0" y="-543" flags="0x1000"/>
    </TTGlyph>
    <TTGlyph name="guillemotleft" xMin="47" yMin="176" xMax="850" yMax="889">
      <component glyphName="guilsinglleft" x="0" y="0" flags="0x1000"/>
      <component glyphName="guilsinglleft" x="369" y="0" flags="0x1000"/>
    </TTGlyph>
    <TTGlyph name="guillemotright" xMin="156" yMin="176" xMax="959" yMax="891">
      <component glyphName="guilsinglright" x="0" y="0" flags="0x1000"/>
      <component glyphName="guilsinglright" x="369" y="0" flags="0x1000"/>
    </TTGlyph>
    <TTGlyph name="guilsinglleft" xMin="47" yMin="176" xMax="481" yMax="889">
      <contour>
        <pt x="481" y="176" on="1"/>
        <pt x="285" y="176" on="1"/>
        <pt x="47" y="532" on="1"/>
        <pt x="285" y="889" on="1"/>
        <pt x="481" y="889" on="1"/>
        <pt x="262" y="532" on="1"/>
      </contour>
    </TTGlyph>
    <TTGlyph name="guilsinglright" xMin="156" yMin="176" xMax="590" yMax="891">
      <contour>
        <pt x="156" y="891" on="1"/>
        <pt x="352" y="891" on="1"/>
        <pt x="590" y="535" on="1"/>
        <pt x="352" y="176" on="1"/>
        <pt x="156" y="176" on="1"/>
        <pt x="375" y="535" on="1"/>
      </contour>
    </TTGlyph>
    <TTGlyph name="h" xMin="184" yMin="0" xMax="1229" yMax="1520">
      <contour>
        <pt x="1014" y="1098" on="0"/>
        <pt x="1229" y="874" on="0"/>
        <pt x="1229" y="678" on="1"/>
        <pt x="1229" y="0" on="1"/>
        <pt x="993" y="0" on="1"/>
        <pt x="993" y="612" on="1"/>
        <pt x="993" y="735" on="0"/>
        <pt x="854" y="877" on="0"/>
        <pt x="731" y="877" on="1"/>
        <pt x="588" y="875" on="0"/>
        <pt x="420" y="684" on="0"/>
        <pt x="420" y="537" on="1"/>
        <pt x="420" y="0" on="1"/>
        <pt x="184" y="0" on="1"/>
        <pt x="184" y="1520" on="1"/>
        <pt x="420" y="1520" on="1"/>
        <pt x="420" y="877" on="1"/>
        <pt x="533" y="1098" on="0"/>
        <pt x="823" y="1098" on="1"/>
      </contour>
    </TTGlyph>
    <TTGlyph name="hbar" xMin="12" yMin="0" xMax="1229" yMax="1520">
      <contour>
        <pt x="1014" y="1098" on="0"/>
        <pt x="1229" y="874" on="0"/>
        <pt x="1229" y="678" on="1"/>
        <pt x="1229" y="0" on="1"/>
        <pt x="993" y="0" on="1"/>
        <pt x="993" y="612" on="1"/>
        <pt x="993" y="735" on="0"/>
        <pt x="854" y="877" on="0"/>
        <pt x="731" y="877" on="1"/>
        <pt x="588" y="875" on="0"/>
        <pt x="420" y="684" on="0"/>
        <pt x="420" y="537" on="1"/>
        <pt x="420" y="0" on="1"/>
        <pt x="184" y="0" on="1"/>
        <pt x="184" y="1206" on="1"/>
        <pt x="12" y="1206" on="1"/>
        <pt x="12" y="1348" on="1"/>
        <pt x="184" y="1348" on="1"/>
        <pt x="184" y="1520" on="1"/>
        <pt x="420" y="1520" on="1"/>
        <pt x="420" y="1348" on="1"/>
        <pt x="709" y="1348" on="1"/>
        <pt x="709" y="1206" on="1"/>
        <pt x="420" y="1206" on="1"/>
        <pt x="420" y="877" on="1"/>
        <pt x="533" y="1098" on="0"/>
        <pt x="823" y="1098" on="1"/>
      </contour>
    </TTGlyph>
    <TTGlyph name="hungarumlaut" xMin="4" yMin="1247" xMax="713" yMax="1563">
      <contour>
        <pt x="186" y="1247" on="1"/>
        <pt x="4" y="1247" on="1"/>
        <pt x="174" y="1563" on="1"/>
        <pt x="375" y="1473" on="1"/>
      </contour>
      <contour>
        <pt x="524" y="1247" on="1"/>
        <pt x="342" y="1247" on="1"/>
        <pt x="512" y="1563" on="1"/>
        <pt x="713" y="1473" on="1"/>
      </contour>
    </TTGlyph>
    <TTGlyph name="hyphen" xMin="125" yMin="543" xMax="629" yMax="705">
      <contour>
        <pt x="125" y="543" on="1"/>
        <pt x="125" y="705" on="1"/>
        <pt x="629" y="705" on="1"/>
        <pt x="629" y="543" on="1"/>
      </contour>
    </TTGlyph>
    <TTGlyph name="i" xMin="153" yMin="0" xMax="428" yMax="1544">
      <component glyphName="dotlessi" x="0" y="0" flags="0x1000"/>
      <component glyphName="dotaccent" x="-68" y="0" flags="0x1000"/>
    </TTGlyph>
    <TTGlyph name="iacute" xMin="154" yMin="0" xMax="613" yMax="1548">
      <component glyphName="dotlessi" x="0" y="0" flags="0x1000"/>
      <component glyphName="acute" x="27" y="0" flags="0x1000"/>
    </TTGlyph>
    <TTGlyph name="icircumflex" xMin="-29" yMin="0" xMax="610" yMax="1540">
      <component glyphName="dotlessi" x="0" y="0" flags="0x1000"/>
      <component glyphName="circumflex" x="-68" y="-6" flags="0x1000"/>
    </TTGlyph>
    <TTGlyph name="idieresis" xMin="-14" yMin="0" xMax="596" yMax="1542">
      <contour>
        <pt x="164" y="1542" on="0"/>
        <pt x="233" y="1468" on="0"/>
        <pt x="233" y="1411" on="1"/>
        <pt x="233" y="1356" on="0"/>
        <pt x="164" y="1282" on="0"/>
        <pt x="111" y="1282" on="1"/>
        <pt x="58" y="1282" on="0"/>
        <pt x="-14" y="1356" on="0"/>
        <pt x="-14" y="1411" on="1"/>
        <pt x="-14" y="1468" on="0"/>
        <pt x="57" y="1542" on="0"/>
        <pt x="111" y="1542" on="1"/>
      </contour>
      <contour>
        <pt x="526" y="1542" on="0"/>
        <pt x="596" y="1468" on="0"/>
        <pt x="596" y="1411" on="1"/>
        <pt x="596" y="1356" on="0"/>
        <pt x="526" y="1282" on="0"/>
        <pt x="473" y="1282" on="1"/>
        <pt x="420" y="1282" on="0"/>
        <pt x="348" y="1356" on="0"/>
        <pt x="348" y="1411" on="1"/>
        <pt x="348" y="1468" on="0"/>
        <pt x="420" y="1542" on="0"/>
        <pt x="473" y="1542" on="1"/>
      </contour>
      <contour>
        <pt x="174" y="0" on="1"/>
        <pt x="174" y="1090" on="1"/>
        <pt x="408" y="1090" on="1"/>
        <pt x="408" y="0" on="1"/>
      </contour>
    </TTGlyph>
    <TTGlyph name="igrave" xMin="-41" yMin="0" xMax="417" yMax="1550">
      <component glyphName="dotlessi" x="0" y="0" flags="0x1000"/>
      <component glyphName="grave" x="-156" y="0" flags="0x1000"/>
    </TTGlyph>
    <TTGlyph name="ij" xMin="154" yMin="-408" xMax="1016" yMax="1544">
      <contour>
        <pt x="350" y="1544" on="0"/>
        <pt x="428" y="1464" on="0"/>
        <pt x="428" y="1401" on="1"/>
        <pt x="428" y="1340" on="0"/>
        <pt x="350" y="1260" on="0"/>
        <pt x="291" y="1260" on="1"/>
        <pt x="232" y="1260" on="0"/>
        <pt x="154" y="1339" on="0"/>
        <pt x="154" y="1401" on="1"/>
        <pt x="154" y="1464" on="0"/>
        <pt x="231" y="1544" on="0"/>
        <pt x="291" y="1544" on="1"/>
      </contour>
      <contour>
        <pt x="934" y="1544" on="0"/>
        <pt x="1016" y="1464" on="0"/>
        <pt x="1016" y="1401" on="1"/>
        <pt x="1016" y="1340" on="0"/>
        <pt x="934" y="1257" on="0"/>
        <pt x="870" y="1257" on="1"/>
        <pt x="809" y="1257" on="0"/>
        <pt x="727" y="1339" on="0"/>
        <pt x="727" y="1401" on="1"/>
        <pt x="727" y="1464" on="0"/>
        <pt x="809" y="1544" on="0"/>
        <pt x="870" y="1544" on="1"/>
      </contour>
      <contour>
        <pt x="174" y="0" on="1"/>
        <pt x="174" y="1090" on="1"/>
        <pt x="408" y="1090" on="1"/>
        <pt x="408" y="0" on="1"/>
      </contour>
      <contour>
        <pt x="987" y="-154" on="0"/>
        <pt x="887" y="-324" on="0"/>
        <pt x="727" y="-408" on="0"/>
        <pt x="635" y="-408" on="1"/>
        <pt x="574" y="-408" on="0"/>
        <pt x="455" y="-369" on="0"/>
        <pt x="408" y="-334" on="1"/>
        <pt x="485" y="-152" on="1"/>
        <pt x="555" y="-201" on="0"/>
        <pt x="625" y="-201" on="1"/>
        <pt x="682" y="-201" on="0"/>
        <pt x="754" y="-127" on="0"/>
        <pt x="754" y="-53" on="1"/>
        <pt x="754" y="1090" on="1"/>
        <pt x="987" y="1090" on="1"/>
        <pt x="987" y="-31" on="1"/>
      </contour>
    </TTGlyph>
    <TTGlyph name="imacron" xMin="30" yMin="0" xMax="553" yMax="1483">
      <component glyphName="dotlessi" x="0" y="0" flags="0x1000"/>
      <component glyphName="macron" x="-68" y="0" flags="0x1000"/>
    </TTGlyph>
    <TTGlyph name="infinity" xMin="72" yMin="205" xMax="1720" yMax="1030">
      <contour>
        <pt x="1438" y="1030" on="0"/>
        <pt x="1618" y="924" on="0"/>
        <pt x="1720" y="735" on="0"/>
        <pt x="1720" y="618" on="1"/>
        <pt x="1720" y="501" on="0"/>
        <pt x="1618" y="313" on="0"/>
        <pt x="1438" y="205" on="0"/>
        <pt x="1325" y="205" on="1"/>
        <pt x="1171" y="205" on="0"/>
        <pt x="981" y="348" on="0"/>
        <pt x="897" y="479" on="1"/>
        <pt x="815" y="348" on="0"/>
        <pt x="623" y="205" on="0"/>
        <pt x="467" y="205" on="1"/>
        <pt x="354" y="205" on="0"/>
        <pt x="174" y="311" on="0"/>
        <pt x="72" y="500" on="0"/>
        <pt x="72" y="616" on="1"/>
        <pt x="72" y="733" on="0"/>
        <pt x="174" y="922" on="0"/>
        <pt x="354" y="1030" on="0"/>
        <pt x="467" y="1030" on="1"/>
        <pt x="621" y="1030" on="0"/>
        <pt x="811" y="887" on="0"/>
        <pt x="895" y="756" on="1"/>
        <pt x="977" y="887" on="0"/>
        <pt x="1169" y="1030" on="0"/>
        <pt x="1325" y="1030" on="1"/>
      </contour>
      <contour>
        <pt x="1425" y="379" on="0"/>
        <pt x="1556" y="514" on="0"/>
        <pt x="1556" y="618" on="1"/>
        <pt x="1556" y="722" on="0"/>
        <pt x="1425" y="858" on="0"/>
        <pt x="1325" y="858" on="1"/>
        <pt x="1204" y="858" on="0"/>
        <pt x="1051" y="733" on="0"/>
        <pt x="979" y="616" on="1"/>
        <pt x="1053" y="501" on="0"/>
        <pt x="1206" y="379" on="0"/>
        <pt x="1325" y="379" on="1"/>
      </contour>
      <contour>
        <pt x="586" y="377" on="0"/>
        <pt x="739" y="502" on="0"/>
        <pt x="813" y="618" on="1"/>
        <pt x="739" y="733" on="0"/>
        <pt x="586" y="856" on="0"/>
        <pt x="467" y="856" on="1"/>
        <pt x="367" y="856" on="0"/>
        <pt x="236" y="721" on="0"/>
        <pt x="236" y="616" on="1"/>
        <pt x="236" y="512" on="0"/>
        <pt x="367" y="377" on="0"/>
        <pt x="467" y="377" on="1"/>
      </contour>
    </TTGlyph>
    <TTGlyph name="integral" xMin="-16" yMin="-262" xMax="709" yMax="1724">
      <contour>
        <pt x="629" y="1544" on="0"/>
        <pt x="578" y="1544" on="1"/>
        <pt x="494" y="1544" on="0"/>
        <pt x="422" y="1434" on="0"/>
        <pt x="422" y="1298" on="1"/>
        <pt x="422" y="1151" on="0"/>
        <pt x="444" y="764" on="1"/>
        <pt x="446" y="705" on="0"/>
        <pt x="467" y="295" on="0"/>
        <pt x="467" y="184" on="1"/>
        <pt x="467" y="-58" on="0"/>
        <pt x="326" y="-262" on="0"/>
        <pt x="158" y="-262" on="1"/>
        <pt x="105" y="-262" on="0"/>
        <pt x="25" y="-242" on="0"/>
        <pt x="-16" y="-219" on="1"/>
        <pt x="14" y="-55" on="1"/>
        <pt x="49" y="-73" on="0"/>
        <pt x="102" y="-88" on="0"/>
        <pt x="131" y="-88" on="1"/>
        <pt x="217" y="-88" on="0"/>
        <pt x="291" y="31" on="0"/>
        <pt x="291" y="168" on="1"/>
        <pt x="291" y="307" on="0"/>
        <pt x="266" y="741" on="1"/>
        <pt x="262" y="809" on="0"/>
        <pt x="244" y="1184" on="0"/>
        <pt x="244" y="1278" on="1"/>
        <pt x="244" y="1520" on="0"/>
        <pt x="385" y="1724" on="0"/>
        <pt x="551" y="1724" on="1"/>
        <pt x="623" y="1724" on="0"/>
        <pt x="709" y="1686" on="1"/>
        <pt x="680" y="1522" on="1"/>
      </contour>
    </TTGlyph>
    <TTGlyph name="iogonek" xMin="119" yMin="-412" xMax="475" yMax="1544">
      <contour>
        <pt x="336" y="1544" on="0"/>
        <pt x="414" y="1464" on="0"/>
        <pt x="414" y="1401" on="1"/>
        <pt x="414" y="1338" on="0"/>
        <pt x="336" y="1257" on="0"/>
        <pt x="276" y="1257" on="1"/>
        <pt x="217" y="1257" on="0"/>
        <pt x="139" y="1337" on="0"/>
        <pt x="139" y="1401" on="1"/>
        <pt x="139" y="1464" on="0"/>
        <pt x="217" y="1544" on="0"/>
        <pt x="276" y="1544" on="1"/>
      </contour>
      <contour>
        <pt x="346" y="0" on="1"/>
        <pt x="246" y="-141" on="0"/>
        <pt x="246" y="-215" on="1"/>
        <pt x="246" y="-246" on="0"/>
        <pt x="279" y="-281" on="0"/>
        <pt x="307" y="-281" on="1"/>
        <pt x="356" y="-281" on="0"/>
        <pt x="408" y="-215" on="1"/>
        <pt x="475" y="-295" on="1"/>
        <pt x="440" y="-350" on="0"/>
        <pt x="338" y="-412" on="0"/>
        <pt x="281" y="-412" on="1"/>
        <pt x="215" y="-412" on="0"/>
        <pt x="119" y="-332" on="0"/>
        <pt x="119" y="-252" on="1"/>
        <pt x="119" y="-197" on="0"/>
        <pt x="172" y="-76" on="0"/>
        <pt x="225" y="0" on="1"/>
        <pt x="160" y="0" on="1"/>
        <pt x="160" y="1090" on="1"/>
        <pt x="395" y="1090" on="1"/>
        <pt x="395" y="0" on="1"/>
      </contour>
    </TTGlyph>
    <TTGlyph name="itilde" xMin="-39" yMin="0" xMax="620" yMax="1552">
      <component glyphName="dotlessi" x="0" y="0" flags="0x1000"/>
      <component glyphName="tilde" x="-68" y="0" flags="0x1000"/>
    </TTGlyph>
    <TTGlyph name="j" xMin="-174" yMin="-408" xMax="434" yMax="1544">
      <contour>
        <pt x="352" y="1544" on="0"/>
        <pt x="434" y="1464" on="0"/>
        <pt x="434" y="1401" on="1"/>
        <pt x="434" y="1340" on="0"/>
        <pt x="352" y="1257" on="0"/>
        <pt x="289" y="1257" on="1"/>
        <pt x="228" y="1257" on="0"/>
        <pt x="145" y="1339" on="0"/>
        <pt x="145" y="1401" on="1"/>
        <pt x="145" y="1464" on="0"/>
        <pt x="227" y="1544" on="0"/>
        <pt x="289" y="1544" on="1"/>
      </contour>
      <contour>
        <pt x="406" y="-154" on="0"/>
        <pt x="305" y="-324" on="0"/>
        <pt x="145" y="-408" on="0"/>
        <pt x="53" y="-408" on="1"/>
        <pt x="-8" y="-408" on="0"/>
        <pt x="-127" y="-369" on="0"/>
        <pt x="-174" y="-334" on="1"/>
        <pt x="-96" y="-152" on="1"/>
        <pt x="-26" y="-201" on="0"/>
        <pt x="43" y="-201" on="1"/>
        <pt x="100" y="-201" on="0"/>
        <pt x="172" y="-127" on="0"/>
        <pt x="172" y="-53" on="1"/>
        <pt x="172" y="1090" on="1"/>
        <pt x="406" y="1090" on="1"/>
        <pt x="406" y="-31" on="1"/>
      </contour>
    </TTGlyph>
    <TTGlyph name="jcircumflex" xMin="-186" yMin="-406" xMax="600" yMax="1540">
      <component glyphName="dotlessj" x="0" y="0" flags="0x1000"/>
      <component glyphName="circumflex" x="-78" y="-6" flags="0x1000"/>
    </TTGlyph>
    <TTGlyph name="k" xMin="184" yMin="0" xMax="1202" yMax="1520">
      <contour>
        <pt x="420" y="305" on="1"/>
        <pt x="420" y="0" on="1"/>
        <pt x="184" y="0" on="1"/>
        <pt x="184" y="1520" on="1"/>
        <pt x="420" y="1520" on="1"/>
        <pt x="420" y="602" on="1"/>
        <pt x="901" y="1090" on="1"/>
        <pt x="1171" y="1090" on="1"/>
        <pt x="768" y="668" on="1"/>
        <pt x="1202" y="0" on="1"/>
        <pt x="924" y="0" on="1"/>
        <pt x="604" y="500" on="1"/>
      </contour>
    </TTGlyph>
    <TTGlyph name="kcedilla" xMin="51" yMin="-453" xMax="1202" yMax="1520">
      <contour>
        <pt x="307" y="-96" on="1"/>
        <pt x="370" y="-106" on="0"/>
        <pt x="451" y="-197" on="0"/>
        <pt x="451" y="-256" on="1"/>
        <pt x="451" y="-344" on="0"/>
        <pt x="328" y="-453" on="0"/>
        <pt x="225" y="-453" on="1"/>
        <pt x="182" y="-453" on="0"/>
        <pt x="86" y="-422" on="0"/>
        <pt x="51" y="-397" on="1"/>
        <pt x="98" y="-287" on="1"/>
        <pt x="118" y="-303" on="0"/>
        <pt x="178" y="-326" on="0"/>
        <pt x="205" y="-326" on="1"/>
        <pt x="254" y="-326" on="0"/>
        <pt x="313" y="-270" on="0"/>
        <pt x="311" y="-229" on="1"/>
        <pt x="311" y="-190" on="0"/>
        <pt x="256" y="-141" on="0"/>
        <pt x="213" y="-141" on="1"/>
        <pt x="197" y="-141" on="0"/>
        <pt x="147" y="-147" on="1"/>
        <pt x="217" y="0" on="1"/>
        <pt x="184" y="0" on="1"/>
        <pt x="184" y="1520" on="1"/>
        <pt x="420" y="1520" on="1"/>
        <pt x="420" y="602" on="1"/>
        <pt x="901" y="1090" on="1"/>
        <pt x="1171" y="1090" on="1"/>
        <pt x="768" y="668" on="1"/>
        <pt x="1202" y="0" on="1"/>
        <pt x="924" y="0" on="1"/>
        <pt x="604" y="500" on="1"/>
        <pt x="420" y="305" on="1"/>
        <pt x="420" y="0" on="1"/>
        <pt x="354" y="0" on="1"/>
      </contour>
    </TTGlyph>
    <TTGlyph name="kgreenlandic" xMin="174" yMin="0" xMax="1192" yMax="1090">
      <contour>
        <pt x="408" y="303" on="1"/>
        <pt x="408" y="0" on="1"/>
        <pt x="174" y="0" on="1"/>
        <pt x="174" y="1090" on="1"/>
        <pt x="408" y="1090" on="1"/>
        <pt x="408" y="602" on="1"/>
        <pt x="891" y="1090" on="1"/>
        <pt x="1161" y="1090" on="1"/>
        <pt x="758" y="668" on="1"/>
        <pt x="1192" y="0" on="1"/>
        <pt x="913" y="0" on="1"/>
        <pt x="596" y="500" on="1"/>
      </contour>
    </TTGlyph>
    <TTGlyph name="l" xMin="184" yMin="0" xMax="420" yMax="1520">
      <contour>
        <pt x="184" y="0" on="1"/>
        <pt x="184" y="1520" on="1"/>
        <pt x="420" y="1520" on="1"/>
        <pt x="420" y="0" on="1"/>
      </contour>
    </TTGlyph>
    <TTGlyph name="lacute" xMin="166" yMin="0" xMax="625" yMax="1978">
      <component glyphName="l" x="0" y="0" flags="0x1000"/>
      <component glyphName="acute" x="39" y="430" flags="0x1000"/>
    </TTGlyph>
    <TTGlyph name="lcaron" xMin="184" yMin="0" xMax="770" yMax="1520">
      <contour>
        <pt x="420" y="1520" on="1"/>
        <pt x="420" y="0" on="1"/>
        <pt x="184" y="0" on="1"/>
        <pt x="184" y="1520" on="1"/>
      </contour>
      <contour>
        <pt x="698" y="1401" on="0"/>
        <pt x="770" y="1331" on="0"/>
        <pt x="770" y="1270" on="1"/>
        <pt x="770" y="1217" on="0"/>
        <pt x="733" y="1163" on="1"/>
        <pt x="618" y="987" on="1"/>
        <pt x="498" y="987" on="1"/>
        <pt x="573" y="1163" on="1"/>
        <pt x="520" y="1198" on="0"/>
        <pt x="520" y="1270" on="1"/>
        <pt x="520" y="1327" on="0"/>
        <pt x="592" y="1401" on="0"/>
        <pt x="645" y="1401" on="1"/>
      </contour>
    </TTGlyph>
    <TTGlyph name="lcommaaccent" xMin="166" yMin="-514" xMax="440" yMax="1520">
      <component glyphName="l" x="0" y="0" flags="0x1000"/>
      <component glyphName="uni0326" x="92" y="0" flags="0x1000"/>
    </TTGlyph>
    <TTGlyph name="ldot" xMin="184" yMin="0" xMax="748" yMax="1520">
      <contour>
        <pt x="184" y="0" on="1"/>
        <pt x="184" y="1520" on="1"/>
        <pt x="420" y="1520" on="1"/>
        <pt x="420" y="0" on="1"/>
      </contour>
      <contour>
        <pt x="676" y="766" on="0"/>
        <pt x="748" y="690" on="0"/>
        <pt x="748" y="633" on="1"/>
        <pt x="748" y="578" on="0"/>
        <pt x="676" y="504" on="0"/>
        <pt x="623" y="504" on="1"/>
        <pt x="568" y="504" on="0"/>
        <pt x="496" y="578" on="0"/>
        <pt x="496" y="633" on="1"/>
        <pt x="496" y="690" on="0"/>
        <pt x="567" y="766" on="0"/>
        <pt x="623" y="766" on="1"/>
      </contour>
    </TTGlyph>
    <TTGlyph name="less" xMin="72" yMin="182" xMax="948" yMax="1151">
      <contour>
        <pt x="229" y="668" on="1"/>
        <pt x="948" y="365" on="1"/>
        <pt x="948" y="182" on="1"/>
        <pt x="72" y="563" on="1"/>
        <pt x="72" y="770" on="1"/>
        <pt x="948" y="1151" on="1"/>
        <pt x="948" y="969" on="1"/>
      </contour>
    </TTGlyph>
    <TTGlyph name="lessequal" xMin="72" yMin="41" xMax="948" yMax="1273">
      <component glyphName="less" x="0" y="148" scalex="1.0" scaley="0.976989746094" flags="0x1000"/>
      <component glyphName="minus" x="0" y="-543" flags="0x1000"/>
    </TTGlyph>
    <TTGlyph name="logicalnot" xMin="72" yMin="297" xMax="995" yMax="827">
      <contour>
        <pt x="995" y="297" on="1"/>
        <pt x="823" y="297" on="1"/>
        <pt x="823" y="666" on="1"/>
        <pt x="72" y="666" on="1"/>
        <pt x="72" y="827" on="1"/>
        <pt x="995" y="827" on="1"/>
      </contour>
    </TTGlyph>
    <TTGlyph name="lozenge" xMin="72" yMin="-37" xMax="1026" yMax="1384">
      <contour>
        <pt x="547" y="-37" on="1"/>
        <pt x="72" y="676" on="1"/>
        <pt x="549" y="1384" on="1"/>
        <pt x="1026" y="676" on="1"/>
      </contour>
      <contour>
        <pt x="547" y="297" on="1"/>
        <pt x="809" y="676" on="1"/>
        <pt x="549" y="1055" on="1"/>
        <pt x="289" y="676" on="1"/>
      </contour>
    </TTGlyph>
    <TTGlyph name="lslash" xMin="-43" yMin="0" xMax="690" yMax="1520">
      <contour>
        <pt x="455" y="0" on="1"/>
        <pt x="219" y="0" on="1"/>
        <pt x="219" y="795" on="1"/>
        <pt x="-2" y="729" on="1"/>
        <pt x="-43" y="885" on="1"/>
        <pt x="219" y="963" on="1"/>
        <pt x="219" y="1520" on="1"/>
        <pt x="455" y="1520" on="1"/>
        <pt x="455" y="1032" on="1"/>
        <pt x="649" y="1090" on="1"/>
        <pt x="690" y="932" on="1"/>
        <pt x="455" y="862" on="1"/>
      </contour>
    </TTGlyph>
    <TTGlyph name="m" xMin="174" yMin="0" xMax="1995" yMax="1098">
      <contour>
        <pt x="1782" y="1098" on="0"/>
        <pt x="1995" y="872" on="0"/>
        <pt x="1995" y="678" on="1"/>
        <pt x="1995" y="0" on="1"/>
        <pt x="1759" y="0" on="1"/>
        <pt x="1759" y="612" on="1"/>
        <pt x="1759" y="737" on="0"/>
        <pt x="1622" y="879" on="0"/>
        <pt x="1501" y="879" on="1"/>
        <pt x="1364" y="875" on="0"/>
        <pt x="1202" y="684" on="0"/>
        <pt x="1202" y="539" on="1"/>
        <pt x="1202" y="0" on="1"/>
        <pt x="967" y="0" on="1"/>
        <pt x="967" y="612" on="1"/>
        <pt x="967" y="737" on="0"/>
        <pt x="829" y="879" on="0"/>
        <pt x="711" y="879" on="1"/>
        <pt x="572" y="875" on="0"/>
        <pt x="408" y="684" on="0"/>
        <pt x="408" y="539" on="1"/>
        <pt x="408" y="0" on="1"/>
        <pt x="174" y="0" on="1"/>
        <pt x="174" y="1090" on="1"/>
        <pt x="408" y="1090" on="1"/>
        <pt x="408" y="879" on="1"/>
        <pt x="517" y="1098" on="0"/>
        <pt x="803" y="1098" on="1"/>
        <pt x="948" y="1098" on="0"/>
        <pt x="1143" y="961" on="0"/>
        <pt x="1182" y="836" on="1"/>
        <pt x="1282" y="1098" on="0"/>
        <pt x="1595" y="1098" on="1"/>
      </contour>
    </TTGlyph>
    <TTGlyph name="macron" xMin="98" yMin="1313" xMax="621" yMax="1483">
      <contour>
        <pt x="98" y="1313" on="1"/>
        <pt x="98" y="1483" on="1"/>
        <pt x="621" y="1483" on="1"/>
        <pt x="621" y="1313" on="1"/>
      </contour>
    </TTGlyph>
    <TTGlyph name="minus" xMin="72" yMin="584" xMax="948" yMax="745">
      <contour>
        <pt x="72" y="584" on="1"/>
        <pt x="72" y="745" on="1"/>
        <pt x="948" y="745" on="1"/>
        <pt x="948" y="584" on="1"/>
      </contour>
    </TTGlyph>
    <TTGlyph name="mu" xMin="184" yMin="-397" xMax="1208" yMax="1090">
      <contour>
        <pt x="1208" y="0" on="1"/>
        <pt x="973" y="0" on="1"/>
        <pt x="973" y="213" on="1"/>
        <pt x="867" y="-4" on="0"/>
        <pt x="584" y="-8" on="1"/>
        <pt x="500" y="-8" on="0"/>
        <pt x="420" y="18" on="1"/>
        <pt x="420" y="-397" on="1"/>
        <pt x="184" y="-397" on="1"/>
        <pt x="184" y="1090" on="1"/>
        <pt x="420" y="1090" on="1"/>
        <pt x="420" y="477" on="1"/>
        <pt x="420" y="354" on="0"/>
        <pt x="555" y="213" on="0"/>
        <pt x="674" y="213" on="1"/>
        <pt x="811" y="215" on="0"/>
        <pt x="973" y="406" on="0"/>
        <pt x="973" y="553" on="1"/>
        <pt x="973" y="1090" on="1"/>
        <pt x="1208" y="1090" on="1"/>
      </contour>
    </TTGlyph>
    <TTGlyph name="multiply" xMin="147" yMin="297" xMax="874" yMax="1032">
      <contour>
        <pt x="874" y="412" on="1"/>
        <pt x="766" y="297" on="1"/>
        <pt x="512" y="553" on="1"/>
        <pt x="256" y="297" on="1"/>
        <pt x="147" y="412" on="1"/>
        <pt x="399" y="666" on="1"/>
        <pt x="147" y="918" on="1"/>
        <pt x="256" y="1032" on="1"/>
        <pt x="512" y="776" on="1"/>
        <pt x="766" y="1032" on="1"/>
        <pt x="874" y="918" on="1"/>
        <pt x="623" y="666" on="1"/>
      </contour>
    </TTGlyph>
    <TTGlyph name="n" xMin="174" yMin="0" xMax="1217" yMax="1098">
      <contour>
        <pt x="1001" y="1098" on="0"/>
        <pt x="1217" y="874" on="0"/>
        <pt x="1217" y="678" on="1"/>
        <pt x="1217" y="0" on="1"/>
        <pt x="981" y="0" on="1"/>
        <pt x="981" y="612" on="1"/>
        <pt x="981" y="735" on="0"/>
        <pt x="842" y="877" on="0"/>
        <pt x="719" y="877" on="1"/>
        <pt x="588" y="875" on="0"/>
        <pt x="422" y="711" on="0"/>
        <pt x="410" y="580" on="1"/>
        <pt x="410" y="0" on="1"/>
        <pt x="174" y="0" on="1"/>
        <pt x="174" y="1090" on="1"/>
        <pt x="410" y="1090" on="1"/>
        <pt x="410" y="881" on="1"/>
        <pt x="521" y="1098" on="0"/>
        <pt x="811" y="1098" on="1"/>
      </contour>
    </TTGlyph>
    <TTGlyph name="nacute" xMin="174" yMin="0" xMax="1217" yMax="1548">
      <component glyphName="n" x="0" y="0" flags="0x1000"/>
      <component glyphName="acute" x="444" y="0" flags="0x1000"/>
    </TTGlyph>
    <TTGlyph name="ncaron" xMin="174" yMin="0" xMax="1217" yMax="1540">
      <component glyphName="n" x="0" y="0" flags="0x1000"/>
      <component glyphName="caron" x="344" y="-6" flags="0x1000"/>
    </TTGlyph>
    <TTGlyph name="ncommaaccent" xMin="174" yMin="-514" xMax="1217" yMax="1098">
      <component glyphName="n" x="0" y="0" flags="0x1000"/>
      <component glyphName="uni0326" x="477" y="0" flags="0x1000"/>
    </TTGlyph>
    <TTGlyph name="nine" xMin="86" yMin="-10" xMax="1174" yMax="1444">
      <component glyphName="six" x="1272" y="1434" scale="-1.0" flags="0x1000"/>
    </TTGlyph>
    <TTGlyph name="nine.dnom" xMin="68" yMin="-6" xMax="748" yMax="852">
      <contour>
        <pt x="291" y="-6" on="0"/>
        <pt x="147" y="29" on="0"/>
        <pt x="90" y="59" on="1"/>
        <pt x="158" y="182" on="1"/>
        <pt x="240" y="129" on="0"/>
        <pt x="350" y="129" on="1"/>
        <pt x="461" y="129" on="0"/>
        <pt x="584" y="264" on="0"/>
        <pt x="584" y="387" on="1"/>
        <pt x="584" y="412" on="0"/>
        <pt x="582" y="426" on="1"/>
        <pt x="557" y="367" on="0"/>
        <pt x="434" y="295" on="0"/>
        <pt x="348" y="295" on="1"/>
        <pt x="221" y="295" on="0"/>
        <pt x="68" y="444" on="0"/>
        <pt x="68" y="567" on="1"/>
        <pt x="68" y="698" on="0"/>
        <pt x="240" y="852" on="0"/>
        <pt x="383" y="852" on="1"/>
        <pt x="553" y="852" on="0"/>
        <pt x="748" y="631" on="0"/>
        <pt x="748" y="436" on="1"/>
        <pt x="748" y="235" on="0"/>
        <pt x="537" y="-6" on="0"/>
        <pt x="360" y="-6" on="1"/>
      </contour>
      <contour>
        <pt x="465" y="424" on="0"/>
        <pt x="557" y="506" on="0"/>
        <pt x="557" y="569" on="1"/>
        <pt x="557" y="626" on="0"/>
        <pt x="473" y="713" on="0"/>
        <pt x="391" y="713" on="1"/>
        <pt x="315" y="713" on="0"/>
        <pt x="229" y="635" on="0"/>
        <pt x="229" y="565" on="1"/>
        <pt x="229" y="499" on="0"/>
        <pt x="311" y="424" on="0"/>
        <pt x="385" y="424" on="1"/>
      </contour>
    </TTGlyph>
    <TTGlyph name="nine.numr" xMin="68" yMin="580" xMax="748" yMax="1440">
      <contour>
        <pt x="293" y="580" on="0"/>
        <pt x="147" y="616" on="0"/>
        <pt x="90" y="647" on="1"/>
        <pt x="158" y="770" on="1"/>
        <pt x="240" y="717" on="0"/>
        <pt x="350" y="717" on="1"/>
        <pt x="461" y="717" on="0"/>
        <pt x="584" y="852" on="0"/>
        <pt x="584" y="975" on="1"/>
        <pt x="584" y="1000" on="0"/>
        <pt x="582" y="1014" on="1"/>
        <pt x="557" y="955" on="0"/>
        <pt x="434" y="883" on="0"/>
        <pt x="348" y="883" on="1"/>
        <pt x="221" y="883" on="0"/>
        <pt x="68" y="1030" on="0"/>
        <pt x="68" y="1155" on="1"/>
        <pt x="68" y="1286" on="0"/>
        <pt x="240" y="1440" on="0"/>
        <pt x="383" y="1440" on="1"/>
        <pt x="553" y="1440" on="0"/>
        <pt x="748" y="1219" on="0"/>
        <pt x="748" y="1024" on="1"/>
        <pt x="748" y="823" on="0"/>
        <pt x="537" y="580" on="0"/>
        <pt x="360" y="580" on="1"/>
      </contour>
      <contour>
        <pt x="465" y="1012" on="0"/>
        <pt x="557" y="1094" on="0"/>
        <pt x="557" y="1157" on="1"/>
        <pt x="557" y="1214" on="0"/>
        <pt x="473" y="1298" on="0"/>
        <pt x="391" y="1298" on="1"/>
        <pt x="315" y="1298" on="0"/>
        <pt x="229" y="1223" on="0"/>
        <pt x="229" y="1153" on="1"/>
        <pt x="229" y="1085" on="0"/>
        <pt x="311" y="1012" on="0"/>
        <pt x="385" y="1012" on="1"/>
      </contour>
    </TTGlyph>
    <TTGlyph name="notequal" xMin="72" yMin="63" xMax="948" yMax="1255">
      <contour>
        <pt x="547" y="530" on="1"/>
        <pt x="948" y="530" on="1"/>
        <pt x="948" y="369" on="1"/>
        <pt x="496" y="369" on="1"/>
        <pt x="399" y="63" on="1"/>
        <pt x="219" y="63" on="1"/>
        <pt x="315" y="369" on="1"/>
        <pt x="72" y="369" on="1"/>
        <pt x="72" y="530" on="1"/>
        <pt x="367" y="530" on="1"/>
        <pt x="451" y="799" on="1"/>
        <pt x="72" y="799" on="1"/>
        <pt x="72" y="961" on="1"/>
        <pt x="502" y="961" on="1"/>
        <pt x="596" y="1255" on="1"/>
        <pt x="776" y="1255" on="1"/>
        <pt x="682" y="961" on="1"/>
        <pt x="948" y="961" on="1"/>
        <pt x="948" y="799" on="1"/>
        <pt x="631" y="799" on="1"/>
      </contour>
    </TTGlyph>
    <TTGlyph name="ntilde" xMin="174" yMin="0" xMax="1217" yMax="1552">
      <component glyphName="n" x="0" y="0" flags="0x1000"/>
      <component glyphName="tilde" x="350" y="0" flags="0x1000"/>
    </TTGlyph>
    <TTGlyph name="numbersign" xMin="55" yMin="0" xMax="1425" yMax="1434">
      <contour>
        <pt x="1073" y="530" on="1"/>
        <pt x="1360" y="530" on="1"/>
        <pt x="1343" y="354" on="1"/>
        <pt x="1053" y="354" on="1"/>
        <pt x="1008" y="0" on="1"/>
        <pt x="836" y="0" on="1"/>
        <pt x="879" y="354" on="1"/>
        <pt x="516" y="354" on="1"/>
        <pt x="471" y="0" on="1"/>
        <pt x="299" y="0" on="1"/>
        <pt x="342" y="354" on="1"/>
        <pt x="55" y="354" on="1"/>
        <pt x="72" y="530" on="1"/>
        <pt x="365" y="530" on="1"/>
        <pt x="408" y="891" on="1"/>
        <pt x="123" y="891" on="1"/>
        <pt x="139" y="1067" on="1"/>
        <pt x="430" y="1067" on="1"/>
        <pt x="475" y="1434" on="1"/>
        <pt x="649" y="1434" on="1"/>
        <pt x="604" y="1067" on="1"/>
        <pt x="967" y="1067" on="1"/>
        <pt x="1012" y="1434" on="1"/>
        <pt x="1186" y="1434" on="1"/>
        <pt x="1141" y="1067" on="1"/>
        <pt x="1425" y="1067" on="1"/>
        <pt x="1411" y="891" on="1"/>
        <pt x="1118" y="891" on="1"/>
      </contour>
      <contour>
        <pt x="582" y="891" on="1"/>
        <pt x="537" y="530" on="1"/>
        <pt x="901" y="530" on="1"/>
        <pt x="944" y="891" on="1"/>
      </contour>
    </TTGlyph>
    <TTGlyph name="o" xMin="72" yMin="-8" xMax="1208" yMax="1098">
      <contour>
        <pt x="807" y="1098" on="0"/>
        <pt x="1065" y="958" on="0"/>
        <pt x="1208" y="709" on="0"/>
        <pt x="1208" y="545" on="1"/>
        <pt x="1208" y="383" on="0"/>
        <pt x="1065" y="131" on="0"/>
        <pt x="807" y="-8" on="0"/>
        <pt x="641" y="-8" on="1"/>
        <pt x="473" y="-8" on="0"/>
        <pt x="215" y="131" on="0"/>
        <pt x="72" y="383" on="0"/>
        <pt x="72" y="545" on="1"/>
        <pt x="72" y="709" on="0"/>
        <pt x="215" y="958" on="0"/>
        <pt x="473" y="1098" on="0"/>
        <pt x="641" y="1098" on="1"/>
      </contour>
      <contour>
        <pt x="494" y="895" on="0"/>
        <pt x="307" y="698" on="0"/>
        <pt x="307" y="543" on="1"/>
        <pt x="307" y="385" on="0"/>
        <pt x="494" y="188" on="0"/>
        <pt x="641" y="188" on="1"/>
        <pt x="788" y="188" on="0"/>
        <pt x="973" y="385" on="0"/>
        <pt x="973" y="543" on="1"/>
        <pt x="973" y="699" on="0"/>
        <pt x="786" y="895" on="0"/>
        <pt x="641" y="895" on="1"/>
      </contour>
    </TTGlyph>
    <TTGlyph name="oacute" xMin="72" yMin="-8" xMax="1208" yMax="1548">
      <component glyphName="o" x="0" y="0" flags="0x1000"/>
      <component glyphName="acute" x="377" y="0" flags="0x1000"/>
    </TTGlyph>
    <TTGlyph name="ocircumflex" xMin="72" yMin="-8" xMax="1208" yMax="1540">
      <component glyphName="o" x="0" y="0" flags="0x1000"/>
      <component glyphName="circumflex" x="283" y="-6" flags="0x1000"/>
    </TTGlyph>
    <TTGlyph name="odieresis" xMin="72" yMin="-8" xMax="1208" yMax="1542">
      <contour>
        <pt x="514" y="1542" on="0"/>
        <pt x="584" y="1468" on="0"/>
        <pt x="584" y="1411" on="1"/>
        <pt x="584" y="1356" on="0"/>
        <pt x="514" y="1282" on="0"/>
        <pt x="461" y="1282" on="1"/>
        <pt x="408" y="1282" on="0"/>
        <pt x="336" y="1356" on="0"/>
        <pt x="336" y="1411" on="1"/>
        <pt x="336" y="1468" on="0"/>
        <pt x="408" y="1542" on="0"/>
        <pt x="461" y="1542" on="1"/>
      </contour>
      <contour>
        <pt x="877" y="1542" on="0"/>
        <pt x="946" y="1468" on="0"/>
        <pt x="946" y="1411" on="1"/>
        <pt x="946" y="1356" on="0"/>
        <pt x="877" y="1282" on="0"/>
        <pt x="823" y="1282" on="1"/>
        <pt x="770" y="1282" on="0"/>
        <pt x="698" y="1356" on="0"/>
        <pt x="698" y="1411" on="1"/>
        <pt x="698" y="1468" on="0"/>
        <pt x="770" y="1542" on="0"/>
        <pt x="823" y="1542" on="1"/>
      </contour>
      <contour>
        <pt x="807" y="1098" on="0"/>
        <pt x="1065" y="958" on="0"/>
        <pt x="1208" y="709" on="0"/>
        <pt x="1208" y="545" on="1"/>
        <pt x="1208" y="383" on="0"/>
        <pt x="1065" y="131" on="0"/>
        <pt x="807" y="-8" on="0"/>
        <pt x="641" y="-8" on="1"/>
        <pt x="473" y="-8" on="0"/>
        <pt x="215" y="131" on="0"/>
        <pt x="72" y="383" on="0"/>
        <pt x="72" y="545" on="1"/>
        <pt x="72" y="709" on="0"/>
        <pt x="215" y="958" on="0"/>
        <pt x="473" y="1098" on="0"/>
        <pt x="641" y="1098" on="1"/>
      </contour>
      <contour>
        <pt x="494" y="895" on="0"/>
        <pt x="307" y="698" on="0"/>
        <pt x="307" y="543" on="1"/>
        <pt x="307" y="385" on="0"/>
        <pt x="494" y="188" on="0"/>
        <pt x="641" y="188" on="1"/>
        <pt x="788" y="188" on="0"/>
        <pt x="973" y="385" on="0"/>
        <pt x="973" y="543" on="1"/>
        <pt x="973" y="699" on="0"/>
        <pt x="786" y="895" on="0"/>
        <pt x="641" y="895" on="1"/>
      </contour>
    </TTGlyph>
    <TTGlyph name="oe" xMin="72" yMin="-8" xMax="2066" yMax="1098">
      <contour>
        <pt x="1688" y="1098" on="0"/>
        <pt x="1937" y="946" on="0"/>
        <pt x="2066" y="672" on="0"/>
        <pt x="2062" y="494" on="1"/>
        <pt x="1196" y="494" on="1"/>
        <pt x="1214" y="351" on="0"/>
        <pt x="1403" y="182" on="0"/>
        <pt x="1544" y="182" on="1"/>
        <pt x="1632" y="182" on="0"/>
        <pt x="1792" y="248" on="0"/>
        <pt x="1853" y="309" on="1"/>
        <pt x="1978" y="176" on="1"/>
        <pt x="1896" y="88" on="0"/>
        <pt x="1665" y="-8" on="0"/>
        <pt x="1524" y="-8" on="1"/>
        <pt x="1374" y="-8" on="0"/>
        <pt x="1149" y="119" on="0"/>
        <pt x="1085" y="233" on="1"/>
        <pt x="1019" y="118" on="0"/>
        <pt x="791" y="-8" on="0"/>
        <pt x="641" y="-8" on="1"/>
        <pt x="473" y="-8" on="0"/>
        <pt x="215" y="131" on="0"/>
        <pt x="72" y="383" on="0"/>
        <pt x="72" y="545" on="1"/>
        <pt x="72" y="709" on="0"/>
        <pt x="215" y="958" on="0"/>
        <pt x="473" y="1098" on="0"/>
        <pt x="641" y="1098" on="1"/>
        <pt x="793" y="1098" on="0"/>
        <pt x="1022" y="971" on="0"/>
        <pt x="1085" y="856" on="1"/>
        <pt x="1151" y="971" on="0"/>
        <pt x="1374" y="1098" on="0"/>
        <pt x="1520" y="1098" on="1"/>
      </contour>
      <contour>
        <pt x="1823" y="756" on="0"/>
        <pt x="1655" y="924" on="0"/>
        <pt x="1522" y="924" on="1"/>
        <pt x="1391" y="924" on="0"/>
        <pt x="1214" y="758" on="0"/>
        <pt x="1196" y="621" on="1"/>
        <pt x="1827" y="621" on="1"/>
      </contour>
      <contour>
        <pt x="788" y="188" on="0"/>
        <pt x="973" y="385" on="0"/>
        <pt x="973" y="543" on="1"/>
        <pt x="973" y="699" on="0"/>
        <pt x="786" y="895" on="0"/>
        <pt x="641" y="895" on="1"/>
        <pt x="494" y="895" on="0"/>
        <pt x="307" y="698" on="0"/>
        <pt x="307" y="543" on="1"/>
        <pt x="307" y="385" on="0"/>
        <pt x="494" y="188" on="0"/>
        <pt x="641" y="188" on="1"/>
      </contour>
    </TTGlyph>
    <TTGlyph name="ogonek" xMin="182" yMin="-412" xMax="539" yMax="25">
      <contour>
        <pt x="307" y="-135" on="0"/>
        <pt x="307" y="-215" on="1"/>
        <pt x="307" y="-246" on="0"/>
        <pt x="342" y="-281" on="0"/>
        <pt x="371" y="-281" on="1"/>
        <pt x="420" y="-281" on="0"/>
        <pt x="471" y="-215" on="1"/>
        <pt x="539" y="-295" on="1"/>
        <pt x="504" y="-350" on="0"/>
        <pt x="401" y="-412" on="0"/>
        <pt x="344" y="-412" on="1"/>
        <pt x="278" y="-412" on="0"/>
        <pt x="182" y="-332" on="0"/>
        <pt x="182" y="-252" on="1"/>
        <pt x="182" y="-141" on="0"/>
        <pt x="305" y="25" on="1"/>
        <pt x="426" y="25" on="1"/>
      </contour>
    </TTGlyph>
    <TTGlyph name="ograve" xMin="72" yMin="-8" xMax="1208" yMax="1550">
      <component glyphName="o" x="0" y="0" flags="0x1000"/>
      <component glyphName="grave" x="195" y="0" flags="0x1000"/>
    </TTGlyph>
    <TTGlyph name="ohungarumlaut" xMin="72" yMin="-8" xMax="1208" yMax="1557">
      <component glyphName="o" x="0" y="0" flags="0x1000"/>
      <component glyphName="hungarumlaut" x="338" y="-6" flags="0x1000"/>
    </TTGlyph>
    <TTGlyph name="omacron" xMin="72" yMin="-8" xMax="1208" yMax="1483">
      <component glyphName="o" x="0" y="0" flags="0x1000"/>
      <component glyphName="macron" x="283" y="0" flags="0x1000"/>
    </TTGlyph>
    <TTGlyph name="one" xMin="27" yMin="0" xMax="549" yMax="1434">
      <contour>
        <pt x="307" y="0" on="1"/>
        <pt x="307" y="1219" on="1"/>
        <pt x="27" y="1219" on="1"/>
        <pt x="27" y="1434" on="1"/>
        <pt x="549" y="1434" on="1"/>
        <pt x="549" y="0" on="1"/>
      </contour>
    </TTGlyph>
    <TTGlyph name="one.dnom" xMin="33" yMin="0" xMax="375" yMax="846">
      <contour>
        <pt x="203" y="707" on="1"/>
        <pt x="33" y="707" on="1"/>
        <pt x="33" y="846" on="1"/>
        <pt x="375" y="846" on="1"/>
        <pt x="375" y="0" on="1"/>
        <pt x="203" y="0" on="1"/>
      </contour>
    </TTGlyph>
    <TTGlyph name="one.numr" xMin="33" yMin="588" xMax="375" yMax="1434">
      <contour>
        <pt x="203" y="1292" on="1"/>
        <pt x="33" y="1292" on="1"/>
        <pt x="33" y="1434" on="1"/>
        <pt x="375" y="1434" on="1"/>
        <pt x="375" y="588" on="1"/>
        <pt x="203" y="588" on="1"/>
      </contour>
    </TTGlyph>
    <TTGlyph name="oneeighth" xMin="33" yMin="-6" xMax="1636" yMax="1434">
      <component glyphName="one.numr" x="0" y="0" flags="0x1000"/>
      <component glyphName="fraction" x="670" y="0" flags="0x1000"/>
      <component glyphName="eight.dnom" x="874" y="0" flags="0x1000"/>
    </TTGlyph>
    <TTGlyph name="onehalf" xMin="33" yMin="0" xMax="1647" yMax="1434">
      <component glyphName="one.numr" x="0" y="0" flags="0x1000"/>
      <component glyphName="fraction" x="670" y="0" flags="0x1000"/>
      <component glyphName="two.dnom" x="934" y="0" flags="0x1000"/>
    </TTGlyph>
    <TTGlyph name="onequarter" xMin="33" yMin="0" xMax="1628" yMax="1434">
      <component glyphName="one.numr" x="0" y="0" flags="0x1000"/>
      <component glyphName="fraction" x="670" y="0" flags="0x1000"/>
      <component glyphName="four.dnom" x="866" y="0" flags="0x1000"/>
    </TTGlyph>
    <TTGlyph name="onesuperior" xMin="33" yMin="588" xMax="375" yMax="1434">
      <contour>
        <pt x="203" y="1292" on="1"/>
        <pt x="33" y="1292" on="1"/>
        <pt x="33" y="1434" on="1"/>
        <pt x="375" y="1434" on="1"/>
        <pt x="375" y="588" on="1"/>
        <pt x="203" y="588" on="1"/>
      </contour>
    </TTGlyph>
    <TTGlyph name="ordfeminine" xMin="68" yMin="931" xMax="686" yMax="1592">
      <contour>
        <pt x="539" y="1591" on="0"/>
        <pt x="686" y="1468" on="0"/>
        <pt x="686" y="1360" on="1"/>
        <pt x="686" y="938" on="1"/>
        <pt x="524" y="938" on="1"/>
        <pt x="524" y="1040" on="1"/>
        <pt x="446" y="931" on="0"/>
        <pt x="289" y="932" on="1"/>
        <pt x="187" y="932" on="0"/>
        <pt x="68" y="1038" on="0"/>
        <pt x="68" y="1126" on="1"/>
        <pt x="68" y="1214" on="0"/>
        <pt x="201" y="1311" on="0"/>
        <pt x="324" y="1313" on="1"/>
        <pt x="522" y="1313" on="1"/>
        <pt x="522" y="1341" on="1"/>
        <pt x="522" y="1398" on="0"/>
        <pt x="444" y="1462" on="0"/>
        <pt x="367" y="1462" on="1"/>
        <pt x="271" y="1462" on="0"/>
        <pt x="147" y="1401" on="1"/>
        <pt x="106" y="1516" on="1"/>
        <pt x="264" y="1592" on="0"/>
        <pt x="406" y="1591" on="1"/>
      </contour>
      <contour>
        <pt x="469" y="1043" on="0"/>
        <pt x="522" y="1143" on="1"/>
        <pt x="522" y="1229" on="1"/>
        <pt x="356" y="1229" on="1"/>
        <pt x="293" y="1229" on="0"/>
        <pt x="223" y="1184" on="0"/>
        <pt x="223" y="1141" on="1"/>
        <pt x="223" y="1096" on="0"/>
        <pt x="289" y="1042" on="0"/>
        <pt x="344" y="1042" on="1"/>
      </contour>
    </TTGlyph>
    <TTGlyph name="ordmasculine" xMin="61" yMin="934" xMax="772" yMax="1589">
      <contour>
        <pt x="573" y="1589" on="0"/>
        <pt x="772" y="1409" on="0"/>
        <pt x="772" y="1262" on="1"/>
        <pt x="772" y="1115" on="0"/>
        <pt x="575" y="934" on="0"/>
        <pt x="416" y="934" on="1"/>
        <pt x="258" y="934" on="0"/>
        <pt x="61" y="1114" on="0"/>
        <pt x="61" y="1262" on="1"/>
        <pt x="61" y="1409" on="0"/>
        <pt x="258" y="1589" on="0"/>
        <pt x="416" y="1589" on="1"/>
      </contour>
      <contour>
        <pt x="332" y="1454" on="0"/>
        <pt x="227" y="1348" on="0"/>
        <pt x="227" y="1260" on="1"/>
        <pt x="227" y="1172" on="0"/>
        <pt x="332" y="1065" on="0"/>
        <pt x="416" y="1065" on="1"/>
        <pt x="500" y="1065" on="0"/>
        <pt x="602" y="1171" on="0"/>
        <pt x="602" y="1260" on="1"/>
        <pt x="602" y="1348" on="0"/>
        <pt x="500" y="1454" on="0"/>
        <pt x="416" y="1454" on="1"/>
      </contour>
    </TTGlyph>
    <TTGlyph name="oslash" xMin="72" yMin="-299" xMax="1208" yMax="1362">
      <contour>
        <pt x="1022" y="1004" on="0"/>
        <pt x="1208" y="731" on="0"/>
        <pt x="1208" y="545" on="1"/>
        <pt x="1208" y="383" on="0"/>
        <pt x="1065" y="131" on="0"/>
        <pt x="807" y="-8" on="0"/>
        <pt x="641" y="-8" on="1"/>
        <pt x="582" y="-8" on="0"/>
        <pt x="520" y="2" on="1"/>
        <pt x="422" y="-299" on="1"/>
        <pt x="315" y="-299" on="1"/>
        <pt x="422" y="29" on="1"/>
        <pt x="260" y="86" on="0"/>
        <pt x="72" y="358" on="0"/>
        <pt x="72" y="545" on="1"/>
        <pt x="72" y="709" on="0"/>
        <pt x="215" y="958" on="0"/>
        <pt x="473" y="1098" on="0"/>
        <pt x="641" y="1098" on="1"/>
        <pt x="698" y="1098" on="0"/>
        <pt x="764" y="1087" on="1"/>
        <pt x="852" y="1362" on="1"/>
        <pt x="958" y="1362" on="1"/>
        <pt x="862" y="1061" on="1"/>
      </contour>
      <contour>
        <pt x="295" y="426" on="0"/>
        <pt x="393" y="250" on="0"/>
        <pt x="479" y="207" on="1"/>
        <pt x="707" y="909" on="1"/>
        <pt x="676" y="915" on="0"/>
        <pt x="641" y="915" on="1"/>
        <pt x="487" y="915" on="0"/>
        <pt x="295" y="709" on="0"/>
        <pt x="295" y="543" on="1"/>
      </contour>
      <contour>
        <pt x="741" y="170" on="0"/>
        <pt x="899" y="264" on="0"/>
        <pt x="987" y="432" on="0"/>
        <pt x="987" y="543" on="1"/>
        <pt x="987" y="658" on="0"/>
        <pt x="889" y="836" on="0"/>
        <pt x="803" y="879" on="1"/>
        <pt x="575" y="176" on="1"/>
        <pt x="606" y="170" on="0"/>
        <pt x="641" y="170" on="1"/>
      </contour>
    </TTGlyph>
    <TTGlyph name="otilde" xMin="72" yMin="-8" xMax="1208" yMax="1552">
      <component glyphName="o" x="0" y="0" flags="0x1000"/>
      <component glyphName="tilde" x="283" y="0" flags="0x1000"/>
    </TTGlyph>
</ttFont>
